<svg width="113" height="120" viewBox="0 0 113 120" fill="none" xmlns="http://www.w3.org/2000/svg">
<path d="M48.1996 26.7061L45.3343 27.934L45.0273 26.3991C45.0273 26.3991 45.0273 26.2967 45.0273 26.1944L47.074 25.2734C47.074 25.2734 47.1763 25.2734 47.2787 25.2734L48.1996 26.5014V26.7061Z" fill="#E5DF5D"/>
<path d="M44.6171 28.4499L42.0588 30.1895L41.4448 28.7568C41.4448 28.7568 41.4448 28.6545 41.4448 28.5522L43.2868 27.3242C43.2868 27.3242 43.3892 27.3242 43.4915 27.3242L44.6171 28.3475V28.4499Z" fill="#E5DF5D"/>
<path d="M73.7835 62.8317L75.6255 60.2734L76.6488 61.3991C76.6488 61.3991 76.6488 61.5014 76.6488 61.6037L75.3185 63.3433C75.3185 63.3433 75.2161 63.3433 75.1138 63.3433L73.6812 62.7294L73.7835 62.8317Z" fill="#E5DF5D"/>
<path d="M76.0342 59.552L77.3645 56.7891L78.5925 57.71C78.5925 57.71 78.5925 57.8123 78.5925 57.9147L77.6715 59.859C77.6715 59.859 77.6715 59.859 77.4668 59.859L76.0342 59.4496V59.552Z" fill="#E5DF5D"/>
<path d="M77.6717 55.9715L78.4903 53.0039L79.8207 53.7202C79.8207 53.7202 79.8207 53.7202 79.8207 53.9249L79.2067 56.0738C79.2067 56.0738 79.2067 56.1761 79.1043 56.0738H77.5693L77.6717 55.9715Z" fill="#E5DF5D"/>
<path d="M78.6951 52.0855L79.0021 49.0156L80.4348 49.5273C80.4348 49.5273 80.5371 49.5273 80.4348 49.6296L80.2301 51.7785C80.2301 51.7785 80.2301 51.8809 80.1278 51.8809L78.5928 52.0855H78.6951Z" fill="#E5DF5D"/>
<path d="M79.002 48.0894L78.7974 45.0195L80.3324 45.2242C80.3324 45.2242 80.4347 45.2242 80.4347 45.3265L80.6393 47.4755V47.5778L79.2067 47.9871L79.002 48.0894Z" fill="#E5DF5D"/>
<path d="M78.6949 44.1043L77.9785 41.1367H79.5135H79.6159L80.1275 43.2857C80.1275 43.2857 80.1275 43.388 80.1275 43.4903L78.7972 44.2066L78.6949 44.1043Z" fill="#E5DF5D"/>
<path d="M77.6719 40.3168L76.4438 37.4515L77.9788 37.1445C77.9788 37.1445 78.0812 37.1445 78.1835 37.1445L79.1045 39.1911C79.1045 39.1911 79.1045 39.2935 79.1045 39.3958L77.8765 40.3168H77.6719Z" fill="#E5DF5D"/>
<path d="M75.932 36.6371L74.1924 34.0788L75.625 33.4648C75.625 33.4648 75.7274 33.4648 75.8297 33.4648L77.0577 35.3068C77.0577 35.3068 77.0577 35.4091 77.0577 35.5114L76.0344 36.6371H75.932Z" fill="#E5DF5D"/>
<path d="M73.5782 33.359L71.4292 31.1077L72.7595 30.2891C72.7595 30.2891 72.8619 30.2891 72.9642 30.2891L74.4992 31.824C74.4992 31.824 74.4992 31.9264 74.4992 32.0287L73.6805 33.2567L73.5782 33.359Z" fill="#E5DF5D"/>
<path d="M70.8152 30.5957L68.2568 28.7538L69.3825 27.7305C69.3825 27.7305 69.4849 27.7305 69.5872 27.7305L71.3268 29.0608C71.3268 29.0608 71.3268 29.1631 71.3268 29.2654L70.7128 30.6981L70.8152 30.5957Z" fill="#E5DF5D"/>
<path d="M67.5403 28.3473L64.7773 27.017L65.6983 25.7891C65.6983 25.7891 65.8007 25.7891 65.903 25.7891L67.8473 26.71C67.8473 26.71 67.8473 26.71 67.8473 26.9147L67.438 28.3473H67.5403Z" fill="#E5DF5D"/>
<path d="M63.8563 26.606L60.8887 25.7873L61.605 24.457C61.605 24.457 61.605 24.457 61.8097 24.457L63.9587 25.071C63.9587 25.071 64.061 25.071 63.9587 25.1733V26.7083L63.8563 26.606Z" fill="#E5DF5D"/>
<path d="M59.9665 25.582L56.8965 25.275L57.4081 23.8424C57.4081 23.8424 57.4082 23.74 57.5105 23.8424L59.6595 24.047C59.6595 24.047 59.7618 24.047 59.7618 24.1493L59.9665 25.6843V25.582Z" fill="#E5DF5D"/>
<path d="M55.9762 25.274L52.9062 25.4787L53.1109 23.9437C53.1109 23.9437 53.1109 23.8414 53.2133 23.8414L55.3622 23.6367H55.4646L55.8739 25.0694L55.9762 25.274Z" fill="#E5DF5D"/>
<path d="M52.0883 25.6865L49.1206 26.4028V24.8679V24.7656L51.2696 24.2539C51.2696 24.2539 51.3719 24.2539 51.4743 24.2539L52.1906 25.5842L52.0883 25.6865Z" fill="#E5DF5D"/>
<path d="M77.6709 38.5794C82.9923 50.4497 77.6709 64.3666 65.8003 69.6877C53.9296 75.0089 40.0124 69.6878 34.691 57.8175C29.3697 45.9471 34.691 32.0302 46.5617 26.709C58.4323 21.3879 72.3496 26.709 77.6709 38.5794ZM47.9943 29.9836C37.9657 34.4861 33.463 46.2541 37.9657 56.2825C42.4683 66.3109 54.2366 70.8134 64.2653 66.3109C74.2939 61.8083 78.7966 50.0403 74.2939 40.012C69.7913 29.9836 58.023 25.4811 47.9943 29.9836Z" fill="#E5DF5D"/>
<path d="M54.0319 47.3784L53.6226 47.4808L49.7339 31.9266L50.0409 31.8242L54.0319 47.3784Z" fill="#E5DF5D"/>
<path d="M54.3389 46.558H54.0319L52.9062 30.5945L53.2133 30.4922L54.3389 46.558Z" fill="#E5DF5D"/>
<path d="M56.8974 46.0467L57.2044 45.842L48.1991 32.5391L47.8921 32.7437L56.8974 46.0467Z" fill="#E5DF5D"/>
<path d="M45.1738 34.4646L44.8804 34.75L56.0814 46.2677L56.3748 45.9823L45.1738 34.4646Z" fill="#E5DF5D"/>
<path d="M54.0319 49.1169L53.8272 49.4239L40.0122 41.1351L40.2169 40.8281L54.0319 49.1169Z" fill="#E5DF5D"/>
<path d="M53.7246 48.2978L53.4176 48.5025L41.3423 37.9625L41.5469 37.7578L53.7246 48.2978Z" fill="#E5DF5D"/>
<path d="M55.1577 46.1464V45.8394L39.3984 42.7695V43.0765L55.1577 46.1464Z" fill="#E5DF5D"/>
<path d="M38.507 46.0868L38.502 46.4961L54.567 46.6924L54.572 46.2831L38.507 46.0868Z" fill="#E5DF5D"/>
<path d="M55.2597 50.3438L55.362 50.6508L39.8074 54.6416L39.7051 54.2323L55.2597 50.3438Z" fill="#E5DF5D"/>
<path d="M54.6062 49.766L38.5791 50.8867L38.6077 51.295L54.6348 50.1744L54.6062 49.766Z" fill="#E5DF5D"/>
<path d="M53.7425 47.0904L40.4229 56.0742L40.6517 56.4136L53.9714 47.4297L53.7425 47.0904Z" fill="#E5DF5D"/>
<path d="M53.7248 48.2992L53.4178 47.9922L41.9565 59.2485L42.1612 59.4532L53.7248 48.2992Z" fill="#E5DF5D"/>
<path d="M56.9142 49.7978L48.6875 63.5977L49.0391 63.8072L57.2658 50.0074L56.9142 49.7978Z" fill="#E5DF5D"/>
<path d="M56.1164 51.0263L45.5547 63.1328L45.8631 63.4019L56.4248 51.2954L56.1164 51.0263Z" fill="#E5DF5D"/>
<path d="M54.0323 49.2195L53.7253 49.1172L50.6553 64.876L51.0646 64.9784L54.0323 49.2195Z" fill="#E5DF5D"/>
<path d="M54.4414 49.9336H54.1344L53.9297 65.9995H54.2367L54.4414 49.9336Z" fill="#E5DF5D"/>
<path d="M58.228 49.118L58.535 49.0156L62.526 64.5698L62.1167 64.6721L58.228 49.118Z" fill="#E5DF5D"/>
<path d="M57.8188 49.9383L58.2282 49.8359L59.3538 65.9018H58.9445L57.8188 49.9383Z" fill="#E5DF5D"/>
<path d="M55.3627 50.3438L55.0557 50.5484L64.061 63.8514L64.368 63.6467L55.3627 50.3438Z" fill="#E5DF5D"/>
<path d="M56.1812 50.6484L55.9766 50.8531L67.1309 62.4164L67.4379 62.1094L56.1812 50.6484Z" fill="#E5DF5D"/>
<path d="M58.3009 46.8086L58.0913 47.1602L71.8917 55.3865L72.1013 55.0349L58.3009 46.8086Z" fill="#E5DF5D"/>
<path d="M58.7681 48.2614L58.4995 48.5703L70.625 59.1104L70.8936 58.8014L58.7681 48.2614Z" fill="#E5DF5D"/>
<path d="M57.1019 50.2422L56.9995 50.6515L72.7588 53.7214L72.8611 53.3121L57.1019 50.2422Z" fill="#E5DF5D"/>
<path d="M57.9209 49.8359V50.2453L73.8849 50.4499L73.9872 50.0406L57.9209 49.8359Z" fill="#E5DF5D"/>
<path d="M56.9993 46.1494L56.897 45.7401L72.4516 41.8516L72.554 42.1585L56.9993 46.1494Z" fill="#E5DF5D"/>
<path d="M73.7552 44.9496L57.728 46.0703L57.7566 46.4786L73.7837 45.358L73.7552 44.9496Z" fill="#E5DF5D"/>
<path d="M71.6224 39.7035L58.2871 48.6641L58.5154 49.0038L71.8507 40.0433L71.6224 39.7035Z" fill="#E5DF5D"/>
<path d="M58.5347 48.0915L58.7393 48.3985L70.303 37.1422L69.996 36.9375L58.5347 48.0915Z" fill="#E5DF5D"/>
<path d="M55.2601 46.1481L54.9531 45.9435L63.1398 32.1289L63.4468 32.3335L55.2601 46.1481Z" fill="#E5DF5D"/>
<path d="M66.3604 33.5391L55.8198 45.6641L56.1287 45.9326L66.6693 33.8077L66.3604 33.5391Z" fill="#E5DF5D"/>
<path d="M58.1255 47.2745H58.5348L61.6048 31.5156H61.1955L58.1255 47.2745Z" fill="#E5DF5D"/>
<path d="M57.7163 46.4565H58.1256L58.3303 30.3906H57.921L57.7163 46.4565Z" fill="#E5DF5D"/>
<path d="M59.3535 46.7608C60.1722 48.6028 59.3535 50.6494 57.5115 51.468C55.6695 52.2867 53.6228 51.468 52.8042 49.6261C51.9855 47.7841 52.8042 45.7375 54.6462 44.9189C56.4882 44.1003 58.5348 44.9189 59.3535 46.7608ZM55.4648 46.8632C54.7485 47.1702 54.3392 48.0911 54.7485 48.8074C55.0555 49.5237 55.9765 49.9331 56.6928 49.5238C57.4092 49.2168 57.8185 48.2958 57.4091 47.5795C57.1021 46.8632 56.1812 46.4538 55.4648 46.8632Z" fill="#E5DF5D"/>
<path d="M53.1116 41.5448C49.4277 43.1821 47.7903 47.5823 49.4276 51.2662C51.065 54.9501 55.4653 56.5874 59.1493 54.9501C62.8333 53.3128 64.4706 49.0149 62.8333 45.2287C61.196 41.5448 56.7956 39.9075 53.1116 41.5448ZM57.4096 42.2611C57.6143 41.7495 58.126 41.5448 58.6376 41.7495C59.1493 41.9541 59.354 42.4658 59.1493 42.9775C58.9446 43.4891 58.4329 43.6938 57.9213 43.4891C57.4096 43.2845 57.2049 42.7728 57.4096 42.2611ZM60.4796 46.252C61.6053 48.6056 60.4796 51.4709 58.126 52.5965C55.7723 53.7221 52.907 52.5965 51.7813 50.1406C50.758 47.787 51.7813 44.9217 54.2373 43.7961C56.591 42.6705 59.4563 43.7961 60.5819 46.252H60.4796ZM53.3163 41.8518C53.828 41.6472 54.3396 41.8518 54.5443 42.3635C54.749 42.8751 54.5443 43.3868 54.0326 43.5914C53.521 43.7961 53.0093 43.5914 52.8046 43.0798C52.6 42.5681 52.8046 42.0565 53.3163 41.8518ZM49.6323 45.7404C49.837 45.2287 50.3486 45.024 50.8603 45.2287C51.372 45.4334 51.5766 45.945 51.372 46.4567C51.1673 46.9683 50.6557 47.173 50.144 46.9683C49.6323 46.7637 49.4277 46.252 49.6323 45.7404ZM51.065 51.5732C50.5533 51.7779 50.0416 51.5732 49.837 51.0615C49.6323 50.5499 49.837 50.0382 50.3486 49.8336C50.8603 49.6289 51.372 49.8336 51.5766 50.3452C51.7813 50.8569 51.5766 51.3685 51.065 51.5732ZM54.8513 54.1315C54.6466 54.6431 54.135 54.8478 53.6233 54.6431C53.1116 54.4384 52.907 53.9268 53.1116 53.4151C53.3163 52.9035 53.828 52.6988 54.3396 52.9035C54.8513 53.1081 55.056 53.6198 54.8513 54.1315ZM58.9446 54.5408C58.4329 54.7454 57.9213 54.5408 57.7166 54.0291C57.512 53.5175 57.7166 53.0058 58.2283 52.8011C58.74 52.5965 59.2516 52.8011 59.4563 53.3128C59.6609 53.8244 59.4563 54.3361 58.9446 54.5408ZM62.6286 50.6522C62.4239 51.1639 61.9123 51.3685 61.4006 51.1639C60.889 50.9592 60.6843 50.4476 60.889 49.9359C61.0936 49.4243 61.6053 49.2196 62.1169 49.4243C62.6286 49.6289 62.8333 50.1406 62.6286 50.6522ZM62.0146 46.6613C61.5029 46.866 60.9913 46.6613 60.7866 46.1497C60.582 45.638 60.7866 45.1264 61.2983 44.9217C61.81 44.7171 62.3216 44.9217 62.5263 45.4334C62.7309 45.945 62.5263 46.4567 62.0146 46.6613Z" fill="#E5DF5D"/>
<path d="M41.3425 30.6983L39.0911 32.8473L38.2725 31.517C38.2725 31.517 38.2725 31.4146 38.2725 31.3123L39.8075 29.7773C39.8075 29.7773 39.9098 29.7773 40.0121 29.7773L41.2401 30.596L41.3425 30.6983Z" fill="#E5DF5D"/>
<path d="M38.4771 33.5624L36.6351 36.1207L35.6118 34.995C35.6118 34.995 35.6118 34.8927 35.6118 34.7904L36.9421 33.0508C36.9421 33.0508 37.0445 33.0508 37.1468 33.0508L38.5795 33.6648L38.4771 33.5624Z" fill="#E5DF5D"/>
<path d="M36.2258 36.8383L34.8955 39.6012L33.6675 38.6802C33.6675 38.6802 33.6675 38.5778 33.6675 38.4755L34.5885 36.5312C34.5885 36.5312 34.5885 36.5312 34.7932 36.5312L36.2258 36.9406V36.8383Z" fill="#E5DF5D"/>
<path d="M34.4859 40.4173L33.6673 43.3849L32.3369 42.6686C32.3369 42.6686 32.3369 42.6686 32.3369 42.464L32.9509 40.315C32.9509 40.315 32.9509 40.2127 33.0533 40.315H34.5883L34.4859 40.4173Z" fill="#E5DF5D"/>
<path d="M33.5649 44.3086L33.258 47.3785L31.8253 46.8668C31.8253 46.8668 31.7229 46.8668 31.8253 46.7645L32.0299 44.6156C32.0299 44.6156 32.03 44.5133 32.1323 44.5133L33.6673 44.3086H33.5649Z" fill="#E5DF5D"/>
<path d="M33.1559 48.2969L33.3605 51.3668L31.8255 51.1621C31.8255 51.1621 31.7232 51.1621 31.7232 51.0598L31.5186 48.9109V48.8085L32.9512 48.3992L33.1559 48.2969Z" fill="#E5DF5D"/>
<path d="M33.565 52.2898L34.2813 55.2574H32.7463H32.644L32.1323 53.1085C32.1323 53.1085 32.1323 53.0061 32.1323 52.9038L33.4626 52.1875L33.565 52.2898Z" fill="#E5DF5D"/>
<path d="M34.5884 56.1758L35.8164 59.041L34.2814 59.348C34.2814 59.348 34.1791 59.348 34.0768 59.348L33.1558 57.3014C33.1558 57.3014 33.1558 57.1991 33.1558 57.0967L34.3837 56.1758H34.5884Z" fill="#E5DF5D"/>
<path d="M36.3283 59.7578L38.068 62.3161L36.6353 62.9301C36.6353 62.9301 36.5329 62.9301 36.4306 62.9301L35.2026 61.0881C35.2026 61.0881 35.2026 60.9858 35.2026 60.8835L36.226 59.7578H36.3283Z" fill="#E5DF5D"/>
<path d="M38.5792 63.0352L40.7282 65.2864L39.3979 66.1051C39.3979 66.1051 39.2955 66.1051 39.1932 66.1051L37.6582 64.5701C37.6582 64.5701 37.6582 64.4678 37.6582 64.3655L38.4769 63.1375L38.5792 63.0352Z" fill="#E5DF5D"/>
<path d="M41.4446 65.7976L43.9006 67.6396L42.7749 68.6629C42.7749 68.6629 42.6725 68.6629 42.5702 68.6629L40.8306 67.3326C40.8306 67.3326 40.8306 67.2303 40.8306 67.1279L41.4446 65.6953V65.7976Z" fill="#E5DF5D"/>
<path d="M44.7201 68.1484L47.4831 69.4787L46.5621 70.7067C46.5621 70.7067 46.4597 70.7067 46.3574 70.7067L44.4131 69.7857C44.4131 69.7857 44.4131 69.7857 44.4131 69.5811L44.8224 68.1484H44.7201Z" fill="#E5DF5D"/>
<path d="M48.4037 69.7859L51.3713 70.6046L50.655 71.9349C50.655 71.9349 50.655 71.9349 50.4503 71.9349L48.3013 71.3209C48.3013 71.3209 48.199 71.3209 48.3013 71.2185V69.6836L48.4037 69.7859Z" fill="#E5DF5D"/>
<path d="M52.1904 70.8094L55.2604 71.1164L54.7488 72.549C54.7488 72.549 54.7488 72.6513 54.6464 72.549L52.4974 72.3443C52.4974 72.3443 52.3951 72.3443 52.3951 72.242L52.1904 70.707V70.8094Z" fill="#E5DF5D"/>
<path d="M56.1816 71.1187L59.2516 70.9141L59.047 72.449C59.047 72.449 59.0469 72.5514 58.9446 72.5514L56.7956 72.756H56.6933L56.284 71.3234L56.1816 71.1187Z" fill="#E5DF5D"/>
<path d="M60.1717 70.81L63.1393 70.0938V71.6287V71.731L60.9903 72.2427C60.9903 72.2427 60.888 72.2427 60.7857 72.2427L60.0693 70.9124L60.1717 70.81Z" fill="#E5DF5D"/>
<path d="M64.0605 69.685L66.9259 68.457L67.2329 69.992C67.2329 69.992 67.2329 70.0943 67.2329 70.1966L65.1862 71.1176C65.1862 71.1176 65.0839 71.1176 64.9816 71.1176L64.0605 69.8896V69.685Z" fill="#E5DF5D"/>
<path d="M67.6426 68.0482L70.2009 66.3086L70.8149 67.7412C70.8149 67.7412 70.8149 67.8436 70.8149 67.9459L68.9729 69.1738C68.9729 69.1738 68.8706 69.1738 68.7682 69.1738L67.6426 68.1505V68.0482Z" fill="#E5DF5D"/>
<path d="M70.918 65.6958L73.1693 63.5469L73.988 64.8772C73.988 64.8772 73.988 64.9795 73.988 65.0818L72.453 66.6168C72.453 66.6168 72.3506 66.6168 72.2483 66.6168L71.0203 65.7982L70.918 65.6958Z" fill="#E5DF5D"/>
<path d="M57 47.7893C57.2047 48.3009 57 48.9149 56.4883 49.1196C55.9767 49.3243 55.3627 49.1196 55.158 48.608C54.9534 48.0963 55.158 47.4823 55.6697 47.2776C56.1813 47.073 56.7953 47.2776 57 47.7893Z" fill="#E5DF5D"/>
<path d="M72.9633 40.7259C77.1589 50.0379 72.9633 60.8849 63.6509 65.0804C54.3386 69.276 43.4913 65.0805 39.2957 55.7684C35.1 46.4564 39.2957 35.6093 48.608 31.4138C57.9203 27.2183 68.7676 31.4138 72.9633 40.7259ZM49.222 32.7441C40.7283 36.5303 36.8397 46.5587 40.7283 55.0521C44.5147 63.5455 54.5433 67.434 63.0369 63.5455C71.5306 59.7593 75.4193 49.7309 71.5306 41.2375C67.7443 32.7441 57.7156 28.8556 49.222 32.7441Z" fill="#E5DF5D"/>
<path d="M55.3623 106.012C51.0643 105.194 13.4058 97.826 13.4058 77.1553V16.0641L15.0431 14.8361C15.6571 14.4268 29.1651 4.39844 56.181 4.39844C83.197 4.39844 96.7049 14.4268 97.3189 14.8361L98.9562 16.0641V77.1553C98.9562 97.826 61.2977 105.194 56.9997 106.012H56.2834C56.2834 106.115 55.567 106.012 55.567 106.012H55.3623ZM56.0787 8.49165C30.1884 8.49165 17.4991 18.1107 17.4991 18.1107V77.1553C17.4991 94.9607 56.0787 101.919 56.0787 101.919C56.0787 101.919 94.6583 94.9607 94.6583 77.1553V18.1107C94.6583 18.1107 81.8666 8.49165 56.0787 8.49165Z" fill="#222222"/>
<path d="M101.514 11.3586C100.9 10.847 86.0622 0 56.1809 0C26.2996 0 11.4613 10.9493 10.8473 11.3586L10.438 11.6656V80.6362C10.438 101.921 54.1342 110.005 56.0786 110.414H56.2832H56.4879C58.3299 110.107 102.128 101.921 102.128 80.6362V11.6656L101.719 11.3586H101.514ZM100.9 80.6362C100.9 101.307 56.1809 109.391 56.1809 109.391C56.1809 109.391 11.4613 101.307 11.4613 80.6362V12.1773C11.4613 12.1773 26.1973 1.0233 56.1809 1.0233C86.1645 1.0233 100.9 12.1773 100.9 12.1773V80.6362Z" fill="#222222"/>
<path d="M29.9839 21.7962L30.2909 22.8195L28.449 23.8428L29.9839 28.6523L28.142 29.6756L25.1743 20.3636C24.2533 20.9776 23.9463 21.8985 25.072 23.8428C25.4813 24.4568 25.6859 24.4568 25.6859 24.5591C24.8673 25.0708 24.1509 24.9684 23.6393 24.1498C22.7183 22.5125 22.923 20.2612 25.993 18.5216C26.5046 18.2146 27.3233 17.9076 28.142 17.4983C28.5513 17.2937 28.8583 16.9867 29.1653 16.6797C29.2676 17.2937 29.6769 18.1123 28.8583 18.8286C28.2443 19.1356 27.6303 19.3403 27.0163 19.5449L28.0396 22.7172L29.9839 21.5915V21.7962Z" fill="#222222"/>
<path d="M35.9192 17.9076L36.7378 22.8194C36.7378 23.0241 36.7379 23.2288 36.8402 23.3311C36.9425 23.6381 37.1472 23.7404 37.4542 23.6381C37.5565 23.6381 37.7612 23.3311 37.8635 22.9218C37.4542 21.7961 37.6588 20.9775 38.1705 20.7728C38.2728 19.7495 38.1705 18.4192 37.9658 17.2936L39.7055 16.168V16.3726C40.6265 18.5216 41.7522 18.9309 42.4685 20.4659V20.7728C42.7755 20.2612 42.9801 19.8518 43.0825 19.5449L43.5941 19.8519C43.2871 20.2612 42.9802 20.9775 42.6732 21.5915C42.6732 22.4101 42.0592 23.2287 40.8312 23.7404C39.6032 24.2521 38.7845 24.2521 38.2728 23.5358C38.0682 24.3544 37.7612 24.9684 37.3518 25.0707C36.4309 25.48 35.7145 25.2753 35.3052 24.6614C35.1005 25.3777 34.7935 26.1963 33.8725 26.5033C32.6445 27.015 31.8258 26.2987 31.5189 25.48C30.5979 23.2288 30.3932 20.1588 33.0538 19.0332C33.3608 18.9309 33.7702 18.9309 34.0772 19.0332V18.6239L35.9192 17.9076ZM34.1795 19.7495C33.8725 19.6472 33.6678 19.7495 33.4632 19.7495C32.4398 20.1588 32.5422 22.6148 33.2585 24.3544C33.5655 25.173 34.0772 25.173 34.3842 24.9684C34.6912 24.866 34.8958 24.4567 34.9982 23.9451C34.9982 23.8427 34.9982 23.6381 34.9982 23.5358L34.3842 19.7495H34.1795ZM38.9892 22.4101C38.7845 22.4101 38.6822 22.4101 38.4775 22.4101V22.6148C38.6822 23.2287 39.5008 23.2288 40.0125 23.0241C40.4218 22.8194 40.9335 22.0008 40.5242 20.9775C40.2172 20.1589 39.2962 19.6472 38.6822 18.0099C38.6822 18.7262 38.8868 19.6472 38.8868 20.4659C39.2962 20.4659 39.5008 20.6705 39.6032 21.0798C39.8078 21.5915 39.6032 22.1031 39.0915 22.3078L38.9892 22.4101Z" fill="#222222"/>
<path d="M44.7204 20.2655C44.7204 20.4701 44.7204 20.5724 44.7204 20.7771C44.7204 21.0841 44.9251 21.2888 45.3344 21.1864C45.3344 21.1864 45.5391 21.1864 45.6414 21.0841C45.6414 22.4144 44.9251 22.619 44.5158 22.7214C43.4925 22.926 42.9808 22.4144 42.7761 21.5957C42.7761 21.3911 42.7761 21.0841 42.7761 20.8794V16.4792C42.6738 16.4792 42.1621 16.5816 42.1621 16.5816V15.9676L42.5714 15.8653V13.8187L44.5158 13C44.5158 13 44.5158 14.0233 44.5158 15.3536L45.3344 15.1489V15.7629L44.5158 15.9676V20.3678L44.7204 20.2655Z" fill="#222222"/>
<path d="M54.8512 19.2426L57.7166 10.4422H59.5586L59.6609 19.1403L62.6286 10.3398H63.6519L59.8656 21.0845H57.8189L57.7166 13.8191L54.9536 21.1869H52.9069L52.8046 11.4655C51.2696 11.9771 50.4509 13.1028 50.4509 14.6377C50.4509 15.354 50.6556 15.4564 50.6556 15.5587C49.6323 15.5587 49.1206 15.2517 49.1206 14.2284C49.1206 12.2841 51.6789 10.4422 54.1349 10.4422C54.3396 10.4422 54.5443 10.4422 54.7489 10.4422L54.9536 19.2426H54.8512Z" fill="#222222"/>
<path d="M67.7452 20.2638C67.7452 20.4684 67.6429 20.5708 67.5406 20.6731C67.5406 20.9801 67.5405 21.1847 68.1545 21.2871C68.6662 21.3894 69.5872 20.7754 70.3035 20.4684H70.8152C69.9965 21.0824 68.0522 22.6174 66.9265 22.4127C65.8009 22.2081 65.2892 21.5941 65.4939 20.5707C65.4939 20.3661 65.5962 20.1614 65.6985 19.8545L66.7219 17.3985C66.7219 17.2962 66.7219 17.1939 66.8242 17.0915C66.9265 16.5799 66.8242 16.1706 66.3125 16.1706C66.0055 16.1706 65.6986 16.1706 65.3916 16.2729L63.0379 21.6964L60.9912 21.2871L64.9822 12.1797H67.1312C67.1312 12.282 65.5962 15.7612 65.5962 15.7612C66.2102 15.4543 66.9266 15.2496 67.5406 15.3519C68.2569 15.5566 68.9732 16.4776 68.7685 17.3985C68.7685 17.5009 68.7685 17.6032 68.7685 17.7055L67.6429 20.2638H67.7452Z" fill="#222222"/>
<path d="M71.3274 22.7192C72.0438 22.9239 73.3741 22.5145 74.1928 21.6959L74.8068 21.9006C73.5788 23.0262 71.8391 24.0495 70.0995 23.4355C68.7691 23.0262 68.3598 21.7982 68.7691 20.5703C69.2808 18.8306 71.0205 16.0677 73.4765 16.8864C74.6021 17.2957 75.1138 17.9097 74.8068 18.8307C74.2951 20.4679 72.1461 20.8772 70.8158 20.5703C70.8158 20.7749 70.6111 20.9796 70.6111 21.1842C70.3041 22.1052 70.8158 22.5145 71.3274 22.7192ZM73.7834 17.705C73.0671 17.5004 71.9414 18.8307 71.2251 19.9563C72.4531 20.3656 73.6811 19.547 74.0905 18.626C74.0905 18.319 74.2951 17.8073 73.8858 17.705H73.7834Z" fill="#222222"/>
<path d="M75.8297 24.3569C76.4437 24.6639 77.8764 24.3569 78.7974 23.5382L79.4114 23.7429C78.0811 24.7662 76.2391 25.5848 74.6018 24.8685C73.3738 24.3569 73.0668 23.1289 73.4761 22.0033C74.1924 20.366 76.1368 17.7054 78.4904 18.6264C79.6161 19.0357 80.0254 19.752 79.6161 20.673C78.8998 22.3103 76.8531 22.5149 75.5228 22.1056C75.4204 22.3102 75.3181 22.5149 75.2158 22.6172C74.8064 23.5382 75.2157 23.9475 75.8297 24.2545V24.3569ZM78.5928 19.5473C77.8764 19.2403 76.6484 20.4683 75.8297 21.5939C77.0577 22.1056 78.3881 21.3893 78.7974 20.4683C78.8998 20.1613 79.0021 19.6497 78.5928 19.5473Z" fill="#222222"/>
<path d="M84.9372 18.7312L80.0252 24.871C79.9228 25.0757 79.8205 25.178 79.7182 25.2803C79.6159 25.5873 79.7182 25.792 80.1275 26.099C80.6392 26.3036 81.6625 25.9966 82.3789 25.792L82.7882 25.9966C81.8672 26.3036 79.6158 27.3269 78.5925 26.8153C77.5692 26.3036 77.2622 25.5873 77.6715 24.6663C77.6715 24.4617 77.8762 24.257 78.0808 24.0524L82.7882 18.1172L84.8348 18.8335L84.9372 18.7312Z" fill="#222222"/>
<path d="M87.7004 23.3335V23.5382C86.3701 25.5848 86.9841 26.7104 86.0631 28.143C85.3468 29.2687 84.1188 29.8826 82.3791 28.8593C80.9465 28.0407 80.5371 27.2221 81.2535 25.9941C81.8675 24.9708 82.5838 24.6638 83.0954 24.9708C84.0164 24.4592 84.8351 23.4358 85.6538 22.6172L87.7004 23.3335ZM82.3791 26.5058C82.2768 26.5058 82.0721 26.3011 81.9698 26.0964C81.5604 26.8128 81.7651 27.4267 82.3791 27.7337C82.7885 27.9384 83.7094 27.7337 84.2211 26.9151C84.6304 26.1988 84.5281 25.1754 85.3468 23.6405C84.8351 24.1521 84.1188 24.8685 83.5048 25.2778C83.7094 25.5848 83.7094 25.7894 83.5048 26.1987C83.1978 26.7104 82.6861 26.8127 82.2768 26.5058H82.3791Z" fill="#222222"/>
<path d="M39.1934 79.4035V81.3478H37.7607V76.1289H39.6027C41.0354 76.1289 41.8541 76.6406 41.8541 77.7662C41.8541 78.8918 41.5471 78.8918 40.9331 79.1988L42.2634 81.3478H40.7284L39.7051 79.4035H39.2957H39.1934ZM39.7051 78.4825C40.2167 78.4825 40.4214 78.2778 40.4214 77.7662C40.4214 77.2545 40.1144 77.1522 39.6027 77.1522H39.1934V78.5848H39.7051V78.4825Z" fill="#222222"/>
<path d="M47.0733 78.6848C47.0733 80.4244 46.1523 81.4477 44.6173 81.4477C43.0823 81.4477 42.2637 80.4244 42.2637 78.6848C42.2637 76.9452 43.1847 75.9219 44.6173 75.9219C46.05 75.9219 47.0733 76.9452 47.0733 78.6848ZM43.6963 78.6848C43.6963 79.9128 44.0033 80.4244 44.6173 80.4244C45.2313 80.4244 45.5383 79.9128 45.5383 78.6848C45.5383 77.4568 45.2313 76.9452 44.6173 76.9452C44.0033 76.9452 43.6963 77.4568 43.6963 78.6848Z" fill="#222222"/>
<path d="M48.506 80.3245L48.3013 81.3478H46.8687L48.4036 76.1289H50.041L51.576 81.3478H50.1433L49.9386 80.3245H48.506ZM49.2223 77.0499L48.7106 79.1988H49.6317L49.12 77.0499H49.2223Z" fill="#222222"/>
<path d="M53.5208 76.1289C54.9535 76.1289 56.2838 76.5382 56.2838 78.6872C56.2838 80.8361 55.0558 81.3478 53.6232 81.3478H51.9858V76.1289H53.5208ZM53.3162 80.3245H53.7255C54.4418 80.3245 54.8512 80.0175 54.8512 78.6872C54.8512 77.3569 54.4418 77.0499 53.7255 77.0499H53.4185V80.3245H53.3162Z" fill="#222222"/>
<path d="M59.9673 79.4035V81.3478H58.5347V76.1289H60.3767C61.8093 76.1289 62.628 76.6406 62.628 77.7662C62.628 78.8918 62.321 78.8918 61.707 79.1988L63.0373 81.3478H61.5023L60.479 79.4035H60.0697H59.9673ZM60.479 78.4825C60.9907 78.4825 61.1953 78.2778 61.1953 77.7662C61.1953 77.2545 60.8883 77.1522 60.3767 77.1522H59.9673V78.5848H60.479V78.4825Z" fill="#222222"/>
<path d="M64.3678 80.3245L64.1631 81.3478H62.7305L64.2655 76.1289H65.9028L67.4378 81.3478H66.0051L65.8005 80.3245H64.3678ZM65.0841 77.0499L64.5725 79.1988H65.4935L64.9818 77.0499H65.0841Z" fill="#222222"/>
<path d="M71.4288 76.5429L70.7124 77.3615C70.4054 77.1569 70.2008 76.9522 69.7914 76.9522C69.1774 76.9522 68.7681 77.4639 68.7681 78.6918C68.7681 79.9198 69.1774 80.4314 69.8938 80.4314C70.6101 80.4314 70.6101 80.2268 70.9171 80.0221L71.5311 80.8408C71.1218 81.2501 70.6101 81.5571 69.7914 81.5571C68.3588 81.5571 67.3354 80.6361 67.3354 78.7942C67.3354 76.9522 68.3588 76.0312 69.7914 76.0312C71.2241 76.0312 71.0194 76.2359 71.4288 76.6452V76.5429Z" fill="#222222"/>
<path d="M73.3738 77.0499V78.1755H74.9088V79.0965H73.3738V80.3245H75.3181V81.3478H72.0435V76.1289H75.4204V77.1522H73.4761L73.3738 77.0499Z" fill="#222222"/>
<path d="M40.2166 88.8284V89.954H36.7373V84.6328H38.17V88.8284H40.2166Z" fill="#222222"/>
<path d="M42.0586 85.6561V86.7818H43.5936V87.7027H42.0586V88.9307H44.003V89.954H40.626V84.6328H44.003V85.6561H42.0586Z" fill="#222222"/>
<path d="M48.8134 85.1413L48.0971 85.8577C47.7901 85.5507 47.4831 85.4483 47.0738 85.4483C46.3574 85.4483 45.8457 85.96 45.8457 87.1879C45.8457 88.4159 46.1527 88.9276 46.8691 88.9276C47.5854 88.9276 47.2784 88.9276 47.4831 88.8252V87.6996H46.8691V86.7786C46.7667 86.7786 48.8134 86.7786 48.8134 86.7786V89.4392C48.3017 89.8485 47.4831 90.0532 46.8691 90.0532C45.1294 90.0532 44.4131 89.0299 44.4131 87.2903C44.4131 85.5507 45.5388 84.5273 46.9714 84.5273C48.4041 84.5273 48.4041 84.8343 48.8134 85.2437V85.1413Z" fill="#222222"/>
<path d="M50.9624 85.6561V86.7818H52.4974V87.7027H50.9624V88.9307H52.9068V89.954H49.5298V84.6328H52.9068V85.6561H50.9624Z" fill="#222222"/>
<path d="M55.9767 89.9509L54.6464 85.96C54.6464 86.4716 54.851 87.1879 54.851 88.1089V89.8485H53.623V84.5273H55.3627L56.7954 88.5182C56.7954 88.0066 56.5907 87.2903 56.5907 86.4716V84.5273H57.8187V89.8485H56.079L55.9767 89.9509Z" fill="#222222"/>
<path d="M60.1722 84.6328C61.6049 84.6328 62.9352 85.0421 62.9352 87.2934C62.9352 89.5447 61.7072 89.954 60.2745 89.954H58.6372V84.6328H60.1722ZM59.9675 88.9307H60.3769C61.0932 88.9307 61.5025 88.6237 61.5025 87.2934C61.5025 85.9631 61.0932 85.6561 60.3769 85.6561H60.0699V88.9307H59.9675Z" fill="#222222"/>
<path d="M64.4703 88.8284L64.2657 89.954H62.833L64.368 84.6328H66.0053L67.5403 89.954H66.0053L65.8007 88.8284H64.368H64.4703ZM65.1867 85.6561L64.675 87.8051H65.596L65.0843 85.6561H65.1867Z" fill="#222222"/>
<path d="M69.2803 88.0097V89.954H67.8477V84.6328H69.6896C71.1223 84.6328 71.941 85.1445 71.941 86.2701C71.941 87.3957 71.634 87.3957 70.9176 87.7027L72.248 89.954H70.713L69.6896 88.0097H69.2803ZM69.6896 86.9864C70.2013 86.9864 70.406 86.7818 70.406 86.2701C70.406 85.7585 70.099 85.6561 69.5873 85.6561H69.178V87.0887H69.6896V86.9864Z" fill="#222222"/>
<path d="M74.9087 89.9493H73.476V88.005L71.7363 84.7305H73.2713L74.1923 86.9817L75.1133 84.7305H76.6483L74.9087 88.005V89.9493Z" fill="#222222"/>
<path d="M105.404 85.7532C105.404 86.0602 105.404 86.4695 105.404 86.7765C105.404 87.0835 105.404 87.3904 105.404 87.6974C105.404 88.2091 105.711 88.7207 105.813 89.13C106.12 89.9487 106.529 90.4604 106.529 90.4604C106.529 90.4604 107.143 90.358 107.962 89.8464C108.371 89.6417 108.781 89.2324 109.19 88.7207C109.395 88.4137 109.599 88.2091 109.804 87.7998C110.009 87.4928 110.111 87.0835 110.213 86.6741C110.623 85.2415 110.213 83.5019 109.497 82.1716C108.883 80.9436 108.064 80.125 108.064 80.125C108.064 80.125 107.553 80.9436 106.836 82.0693C106.222 83.1949 105.404 84.4229 105.301 85.6508L105.404 85.7532ZM108.167 82.9902C108.167 82.9902 108.167 83.1949 108.167 83.3996C108.167 83.7066 108.167 84.1159 108.167 84.5252C108.167 85.4462 107.962 86.6741 107.757 87.6974C107.655 88.2091 107.45 88.7208 107.348 89.0277C107.246 89.4371 107.041 89.744 106.939 89.9487C106.836 90.1534 106.632 90.1534 106.632 89.8464C106.632 89.5394 106.836 89.2324 106.939 88.8231C106.939 88.4137 107.143 88.0044 107.246 87.4928C107.45 86.4695 107.757 85.3439 107.962 84.4229C108.064 84.0136 108.167 83.6042 108.167 83.2972C108.167 82.9903 108.167 82.8879 108.167 82.8879V82.9902Z" fill="#222222"/>
<path d="M101.516 93.019C101.925 94.0423 102.437 94.6563 102.948 95.0656C103.46 95.4749 103.869 95.6796 103.869 95.6796C103.869 95.6796 103.869 95.6796 104.074 95.4749C104.176 95.3726 104.381 95.0656 104.483 94.7586C104.79 94.1446 104.995 93.2236 104.79 92.2003C104.279 90.2561 101.516 88.9258 101.516 88.9258C101.516 88.9258 101.311 89.5398 101.311 90.2561C101.311 91.0747 101.106 91.9957 101.516 92.9167V93.019ZM102.334 90.6654C102.334 90.6654 102.539 91.0747 102.846 91.5864C103.153 92.2004 103.46 92.9167 103.562 93.633C103.767 94.3493 103.869 94.9633 103.869 95.3726C103.869 95.5772 103.665 95.5772 103.665 95.3726C103.562 94.9633 103.46 94.4516 103.153 93.7353C102.948 93.019 102.744 92.3027 102.539 91.6887C102.334 91.0747 102.232 90.6654 102.232 90.6654H102.334Z" fill="#222222"/>
<path d="M112.261 89.8463C112.261 89.8463 111.442 89.7439 110.521 89.8463C109.6 89.8463 108.372 90.0509 107.451 90.5626C106.53 91.1766 105.916 91.7905 105.609 92.4045C105.302 93.0185 105.2 93.4278 105.2 93.4278C105.2 93.4278 105.507 93.7348 106.121 94.0418C106.735 94.2465 107.656 94.5535 108.781 94.1441C109.805 93.8372 110.726 92.8138 111.34 91.8929C111.954 90.9719 112.261 90.0509 112.261 90.0509V89.8463ZM107.246 92.8138C106.53 93.1208 106.018 93.2232 105.507 93.3255C105.302 93.3255 105.302 93.2232 105.507 93.1208C105.916 92.9162 106.428 92.7115 107.144 92.4045C107.86 92.0975 108.781 91.7905 109.395 91.4836C110.009 91.1766 110.521 90.9719 110.521 90.9719C110.521 90.9719 110.112 91.2789 109.498 91.6882C108.884 92.0975 108.065 92.5068 107.349 92.8138H107.246Z" fill="#222222"/>
<path d="M98.855 96.5026C99.0596 97.6282 99.469 98.3445 99.8783 98.8562C100.288 99.3678 100.697 99.5725 100.697 99.5725C100.697 99.5725 101.106 99.3678 101.516 98.8562C101.925 98.3445 102.334 97.5259 102.334 96.4003C102.232 94.456 99.776 92.5117 99.776 92.5117C99.776 92.5117 99.469 93.0234 99.2643 93.842C99.0597 94.5583 98.7527 95.5816 98.9573 96.5026H98.855ZM100.185 94.2513C100.185 94.2513 100.39 94.6606 100.492 95.2746C100.595 95.8886 100.799 96.7072 100.799 97.4236C100.799 98.1399 100.799 98.7539 100.799 99.1632C100.799 99.3678 100.595 99.3678 100.595 99.1632C100.595 98.7539 100.595 98.2422 100.39 97.4236C100.39 96.7072 100.288 95.8886 100.288 95.2746C100.288 94.9676 100.288 94.6607 100.288 94.5583C100.288 94.3537 100.288 94.2513 100.288 94.2513H100.185Z" fill="#222222"/>
<path d="M110.009 95.5782C110.009 95.5782 107.041 94.5549 105.199 95.1688C104.176 95.5782 103.357 96.0898 102.948 96.6015C102.539 97.1131 102.334 97.5224 102.334 97.5224C102.334 97.5224 102.641 97.9318 103.153 98.2387C103.664 98.6481 104.585 99.0574 105.711 98.8527C106.734 98.7504 107.86 98.0341 108.679 97.1131C109.497 96.2945 110.009 95.4758 110.009 95.4758V95.5782ZM104.483 97.4201C103.664 97.5224 103.153 97.6248 102.743 97.5224C102.539 97.5224 102.539 97.3178 102.743 97.3178C103.153 97.3178 103.664 97.1131 104.483 97.0108C105.302 96.9084 106.12 96.7038 106.837 96.6015C107.553 96.4991 107.962 96.3968 107.962 96.3968C107.962 96.3968 107.451 96.6014 106.837 96.9084C106.12 97.1131 105.302 97.4201 104.483 97.5224V97.4201Z" fill="#222222"/>
<path d="M95.478 99.3596C95.478 100.383 95.785 101.304 96.092 101.918C96.399 102.532 96.706 102.839 96.706 102.839C96.706 102.839 97.1154 102.634 97.627 102.225C98.1387 101.816 98.7527 101.099 98.855 99.9736C99.162 98.0294 97.1154 95.6758 97.1154 95.6758C97.1154 95.6758 96.706 96.1874 96.2967 96.9037C95.9897 97.62 95.478 98.541 95.478 99.462V99.3596ZM97.2177 97.4154C97.2177 97.4154 97.2177 97.8247 97.32 98.541C97.32 99.2573 97.32 99.9737 97.32 100.792C97.32 101.509 97.1154 102.123 97.013 102.532C97.013 102.737 96.8083 102.737 96.8083 102.532C96.8083 102.123 96.8084 101.509 97.013 100.792C97.013 100.076 97.2177 99.2573 97.32 98.6434C97.32 98.0294 97.32 97.62 97.32 97.62L97.2177 97.4154Z" fill="#222222"/>
<path d="M106.632 100.591C106.632 100.591 103.971 98.954 102.027 99.261C101.72 99.261 101.515 99.3633 101.311 99.4656C101.106 99.4656 100.799 99.568 100.594 99.6703C100.185 99.875 99.8781 100.08 99.5711 100.182C99.0594 100.591 98.7524 101.001 98.7524 101.001C98.7524 101.001 98.9571 101.41 99.4688 101.922C99.9804 102.433 100.697 102.945 101.822 103.047C102.846 103.047 104.176 102.638 105.097 102.024C106.018 101.41 106.734 100.694 106.734 100.694L106.632 100.591ZM100.901 101.308C100.083 101.308 99.5711 101.205 99.1618 101.103C98.9571 101.103 98.9571 100.898 99.1618 100.898C99.5711 100.898 100.083 100.898 100.901 100.898C101.72 100.898 102.641 100.898 103.255 100.898C103.971 100.898 104.483 100.898 104.483 100.898C104.483 100.898 103.971 101.001 103.255 101.103C102.539 101.205 101.618 101.205 100.799 101.205L100.901 101.308Z" fill="#222222"/>
<path d="M91.6917 101.721C91.2823 103.87 92.408 105.302 92.408 105.302C92.408 105.302 92.8173 105.302 93.4313 104.893C93.943 104.484 94.6593 103.87 94.9663 102.846C95.2733 101.925 94.9664 100.8 94.6594 99.8787C94.3524 98.9577 93.943 98.3438 93.943 98.3438C93.943 98.3438 91.9987 99.981 91.6917 101.925V101.721ZM93.7383 100.083C93.7383 100.083 93.636 101.925 93.2267 103.358C93.022 104.074 92.8174 104.688 92.6127 104.995C92.6127 105.2 92.408 105.098 92.408 104.995C92.408 104.586 92.6127 104.074 92.8173 103.256C93.2267 101.721 93.7383 100.083 93.7383 100.083Z" fill="#222222"/>
<path d="M102.436 104.891C102.436 104.891 101.822 104.379 101.004 103.868C100.185 103.356 99.0595 102.742 98.1385 102.742C97.0128 102.742 96.1942 103.049 95.5802 103.254C94.9662 103.561 94.6592 103.868 94.6592 103.868C94.6592 103.868 94.7615 104.277 95.1708 104.891C95.5802 105.403 96.1942 106.017 97.3198 106.426C98.3431 106.733 99.5712 106.426 100.594 105.914C101.106 105.71 101.515 105.505 101.925 105.3C102.232 105.096 102.436 104.993 102.436 104.993V104.891ZM96.7058 104.482C95.8872 104.277 95.3755 104.072 94.9662 103.97C94.7615 103.97 94.8638 103.765 94.9662 103.765C95.3755 103.765 95.9895 103.97 96.7058 104.072C98.3432 104.379 100.185 104.686 100.185 104.686C100.185 104.686 99.6735 104.686 98.9572 104.686C98.2408 104.686 97.4222 104.686 96.6035 104.379L96.7058 104.482Z" fill="#222222"/>
<path d="M87.2911 103.968C86.7794 106.116 87.9051 107.549 87.9051 107.549C87.9051 107.549 88.3144 107.549 88.9284 107.14C89.5424 106.833 90.1564 106.219 90.6681 105.195C91.4867 103.354 90.2587 100.488 90.2587 100.488C90.2587 100.488 87.8027 102.126 87.2911 103.968ZM89.6447 102.33C89.6447 102.33 89.3377 104.172 88.8261 105.605C88.5191 106.321 88.3144 106.833 88.1097 107.242C88.1097 107.447 87.9051 107.344 87.9051 107.242C87.9051 106.833 88.2121 106.321 88.4167 105.605C88.9284 104.172 89.6447 102.433 89.6447 102.433V102.33Z" fill="#222222"/>
<path d="M97.6271 108.267C97.6271 108.267 95.6827 105.811 93.7384 105.504C91.4871 104.992 90.1567 106.22 90.1567 106.22C90.1567 106.22 90.5661 108.062 92.6128 108.881C93.5338 109.29 94.7617 109.188 95.7851 108.881C96.8084 108.574 97.6271 108.164 97.6271 108.164V108.267ZM92.1011 107.039C91.3848 106.834 90.8731 106.527 90.4638 106.425C90.2591 106.425 90.3614 106.22 90.4638 106.22C90.8731 106.22 91.3847 106.425 92.2034 106.629C92.9197 106.834 93.7384 107.141 94.3524 107.448C94.6594 107.55 94.9664 107.653 95.1711 107.755C95.3758 107.755 95.4781 107.857 95.4781 107.857C95.4781 107.857 95.3758 107.857 95.1711 107.857C94.9664 107.857 94.6594 107.857 94.3524 107.755C93.6361 107.653 92.8174 107.346 92.1011 107.141V107.039Z" fill="#222222"/>
<path d="M82.789 105.913C82.175 108.062 83.1983 109.494 83.1983 109.494C83.1983 109.494 83.6076 109.494 84.2216 109.085C84.8356 108.778 85.552 108.164 85.9613 107.141C86.78 105.401 85.7566 102.434 85.7566 102.434C85.7566 102.434 85.1426 102.843 84.4263 103.457C83.71 104.071 82.9936 104.89 82.6866 105.811L82.789 105.913ZM85.245 104.378C85.245 104.378 84.8356 106.22 84.2216 107.652C83.9146 108.369 83.7099 108.88 83.5053 109.187C83.5053 109.392 83.1983 109.29 83.3006 109.187C83.403 108.778 83.6076 108.266 83.9146 107.55C84.2216 106.834 84.5286 106.015 84.8356 105.504C85.1426 104.89 85.3473 104.48 85.3473 104.48L85.245 104.378Z" fill="#222222"/>
<path d="M92.8176 110.824C92.8176 110.824 91.1803 108.163 89.236 107.754C87.087 107.14 85.6543 108.368 85.6543 108.368C85.6543 108.368 85.9613 110.21 88.008 111.131C88.929 111.54 90.157 111.54 91.078 111.336C92.1013 111.131 92.8176 110.824 92.8176 110.824ZM87.4963 109.187C86.78 108.88 86.2683 108.675 85.859 108.47C85.6543 108.47 85.7566 108.163 85.859 108.266C86.2683 108.266 86.78 108.573 87.4963 108.777C88.2126 109.084 89.0313 109.391 89.6453 109.698C90.2593 110.005 90.6686 110.21 90.6686 110.21C90.6686 110.21 90.157 110.21 89.543 109.903C88.929 109.698 88.008 109.494 87.2916 109.187H87.4963Z" fill="#222222"/>
<path d="M78.2862 107.755C77.5699 109.904 78.5932 111.337 78.5932 111.337C78.5932 111.337 79.0026 111.337 79.6166 111.03C80.2306 110.723 80.9469 110.211 81.4585 109.188C82.3795 107.448 81.4585 104.48 81.4585 104.48C81.4585 104.48 78.9002 105.913 78.1839 107.755H78.2862ZM80.7422 106.322C80.7422 106.322 80.2306 108.164 79.6166 109.495C79.3096 110.211 79.0026 110.723 78.7979 111.03C78.6956 111.234 78.4909 111.03 78.5932 111.03C78.6956 110.62 78.9002 110.109 79.2072 109.392C79.5142 108.676 79.9236 107.96 80.2306 107.346C80.5376 106.732 80.7422 106.322 80.7422 106.322Z" fill="#222222"/>
<path d="M88.1103 113.076C88.1103 113.076 87.701 112.359 87.087 111.643C86.473 110.927 85.6543 110.108 84.631 109.801C82.482 109.085 81.0493 110.21 81.0493 110.21C81.0493 110.21 81.0493 110.62 81.3563 111.234C81.6633 111.848 82.175 112.564 83.1983 113.076C84.1193 113.485 85.3473 113.485 86.2683 113.383C87.2916 113.28 88.008 112.973 88.008 112.973L88.1103 113.076ZM82.8913 111.234C82.175 110.927 81.6633 110.62 81.3563 110.517C81.1517 110.517 81.3563 110.21 81.3563 110.313C81.7657 110.415 82.2773 110.62 82.9936 110.927C84.4263 111.541 86.166 112.462 86.166 112.462C86.166 112.462 84.2217 111.95 82.8913 111.336V111.234Z" fill="#222222"/>
<path d="M73.6809 109.289C73.2716 110.313 73.2716 111.234 73.4762 111.848C73.5786 112.462 73.8856 112.871 73.8856 112.871C73.8856 112.871 75.7275 112.769 76.8532 110.824C77.8765 109.085 77.0579 106.117 77.0579 106.117C77.0579 106.117 76.4439 106.424 75.6252 107.038C74.9089 107.55 73.9879 108.368 73.6809 109.289ZM76.2392 108.061C76.2392 108.061 75.6252 109.801 74.9089 111.234C74.6019 111.95 74.2949 112.462 73.9879 112.769C73.8856 112.973 73.6809 112.769 73.7832 112.769C73.8855 112.359 74.1926 111.848 74.4996 111.131C75.2159 109.699 76.1369 108.164 76.1369 108.164L76.2392 108.061Z" fill="#222222"/>
<path d="M83.1976 115.018C83.1976 115.018 81.765 112.255 79.923 111.641C78.8996 111.231 77.9786 111.334 77.3646 111.538C76.7506 111.641 76.3413 111.948 76.3413 111.948C76.3413 111.948 76.4436 113.79 78.388 114.915C79.2066 115.427 80.4346 115.427 81.458 115.325C82.4813 115.325 83.3 115.018 83.3 115.018H83.1976ZM78.081 112.971C77.3647 112.664 76.853 112.357 76.546 112.152C76.3413 112.05 76.546 111.845 76.546 111.948C76.9553 112.05 77.467 112.357 78.1833 112.664C79.616 113.278 81.2533 114.301 81.2533 114.301C81.2533 114.301 79.4113 113.687 77.9786 113.073L78.081 112.971Z" fill="#222222"/>
<path d="M68.9733 110.721C68.0523 112.768 68.9733 114.303 68.9733 114.303C68.9733 114.303 70.8153 114.303 72.0433 112.461C73.169 110.824 72.4526 107.754 72.4526 107.754C72.4526 107.754 69.6896 108.88 68.9733 110.721ZM71.5316 109.494C71.5316 109.494 70.9176 111.233 70.099 112.563C69.6896 113.177 69.3826 113.689 69.1779 113.996C69.0756 114.201 68.871 113.996 68.9733 113.894C69.178 113.484 69.3826 112.973 69.7919 112.359C70.5083 111.028 71.5316 109.494 71.5316 109.494Z" fill="#222222"/>
<path d="M78.2857 116.859C78.2857 116.859 76.9554 113.994 75.1134 113.278C74.0901 112.869 73.1691 112.869 72.5551 112.971C71.9411 113.073 71.5317 113.278 71.5317 113.278C71.5317 113.278 71.5317 115.12 73.4761 116.348C74.2947 116.859 75.5227 116.962 76.5461 116.962C77.5694 116.962 78.388 116.757 78.388 116.757L78.2857 116.859ZM73.2714 114.608C72.5551 114.199 72.1457 113.892 71.7364 113.687C71.5317 113.585 71.7364 113.38 71.8387 113.483C72.2481 113.687 72.7597 113.892 73.4761 114.199C74.1924 114.608 74.9087 115.018 75.5227 115.324C76.1367 115.631 76.5461 115.938 76.5461 115.938C76.5461 115.938 74.7041 115.325 73.3737 114.506L73.2714 114.608Z" fill="#222222"/>
<path d="M64.2661 111.85C63.7544 112.873 63.7544 113.692 63.7544 114.408C63.7544 115.022 64.0614 115.431 64.0614 115.431C64.0614 115.431 64.5731 115.431 65.1871 115.226C65.8011 115.022 66.6197 114.613 67.2337 113.692C68.3594 112.054 67.8477 108.984 67.8477 108.984C67.8477 108.984 67.1314 109.291 66.3127 109.701C65.4941 110.212 64.5731 110.826 64.1637 111.747L64.2661 111.85ZM66.9267 110.826C66.9267 110.826 66.7221 111.236 66.4151 111.85C66.1081 112.464 65.6987 113.18 65.2894 113.794C64.8801 114.408 64.5731 114.92 64.2661 115.226C64.1637 115.329 63.959 115.227 64.0614 115.124C64.266 114.817 64.5731 114.306 64.8801 113.589C65.2894 112.975 65.801 112.259 66.108 111.747C66.5174 111.236 66.722 110.826 66.722 110.826H66.9267Z" fill="#222222"/>
<path d="M73.2715 118.502C73.2715 118.502 72.0435 115.637 70.3038 114.818C69.2805 114.307 68.3595 114.307 67.7455 114.409C67.1315 114.511 66.7222 114.716 66.7222 114.716C66.7222 114.716 66.7222 116.558 68.4618 117.888C69.2805 118.502 70.5085 118.604 71.5318 118.604C72.5552 118.604 73.3738 118.4 73.3738 118.4L73.2715 118.502ZM68.2572 115.944C67.6432 115.535 67.1315 115.228 66.8245 114.921C66.6198 114.818 66.8245 114.614 66.9268 114.716C67.3362 114.921 67.8478 115.125 68.4618 115.535C69.7922 116.251 71.4295 117.479 71.4295 117.479C71.4295 117.479 69.5875 116.763 68.2572 115.944Z" fill="#222222"/>
<path d="M59.4558 112.768C58.9441 113.689 58.8418 114.61 58.8418 115.327C58.8418 115.941 59.0464 116.452 59.0464 116.452C59.0464 116.452 60.8885 116.657 62.3211 114.917C63.5491 113.382 63.2421 110.312 63.2421 110.312C63.2421 110.312 60.4791 111.233 59.4558 112.871V112.768ZM62.1164 111.847C62.1164 111.847 61.2978 113.587 60.3768 114.815C59.9675 115.429 59.5581 115.838 59.2511 116.145C59.1488 116.248 58.9441 116.145 59.0464 116.043C59.2511 115.736 59.5581 115.224 59.9674 114.61C60.7861 113.382 62.0141 111.95 62.0141 111.95L62.1164 111.847Z" fill="#222222"/>
<path d="M68.1542 119.834C68.1542 119.834 67.1308 116.866 65.3912 116.047C64.3679 115.536 63.4469 115.433 62.8329 115.536C62.2189 115.536 61.7072 115.843 61.7072 115.843C61.7072 115.843 61.6049 117.685 63.3445 119.117C64.8795 120.345 68.1542 119.936 68.1542 119.936V119.834ZM63.3445 117.071C62.7305 116.661 62.2189 116.252 61.9119 116.047C61.8095 115.945 61.9118 115.74 62.0142 115.843C62.3212 116.047 62.8328 116.354 63.5492 116.764C64.8795 117.582 66.4145 118.81 66.4145 118.81C66.4145 118.81 64.6749 117.992 63.3445 117.071Z" fill="#222222"/>
<path d="M106.939 90.0531C106.939 90.0531 106.632 90.9741 105.916 92.6114C105.711 93.0207 105.506 93.43 105.199 93.8393C104.892 94.2486 104.688 94.7603 104.278 95.2719C103.971 95.7836 103.562 96.2952 103.153 96.8069C102.743 97.4209 102.232 97.8302 101.72 98.4442C99.6732 100.593 96.9102 102.844 93.6356 104.584C90.3609 106.324 86.7792 108.063 83.0952 109.496C75.7273 112.566 68.0523 114.715 62.2193 115.738C59.2516 116.25 56.7956 116.659 55.056 116.761C53.3163 116.966 52.293 116.966 52.293 116.966V116.557C52.293 116.557 53.3163 116.557 54.9536 116.352C56.6933 116.147 59.1493 115.84 62.0146 115.329C67.8476 114.203 75.5226 112.156 82.7883 109.087C86.4722 107.654 90.0539 105.914 93.3285 104.175C96.6032 102.435 99.2639 100.184 101.311 98.0349C101.822 97.5232 102.334 97.0115 102.641 96.3976C103.05 95.8859 103.357 95.3743 103.767 94.8626C104.074 94.351 104.381 93.8393 104.585 93.43C104.892 93.0207 105.097 92.6113 105.302 92.202C106.018 90.6671 106.325 89.7461 106.325 89.7461H106.734L106.939 90.0531Z" fill="#222222"/>
<path d="M5.32145 82.1708C4.60512 81.0452 4.09347 80.2266 4.09347 80.2266C4.09347 80.2266 3.27478 80.9429 2.66078 82.2732C2.04678 83.5011 1.53514 85.2407 1.94447 86.7757C2.0468 87.185 2.14913 87.5943 2.3538 87.9013C2.55846 88.2083 2.76313 88.5153 2.9678 88.8223C3.37713 89.3339 3.78645 89.7433 4.19578 89.9479C5.01444 90.4596 5.62847 90.5619 5.62847 90.5619C5.62847 90.5619 6.03778 90.0503 6.34478 89.2316C6.44711 88.8223 6.65177 88.3106 6.75411 87.799C6.75411 87.492 6.75411 87.185 6.75411 86.878C6.75411 86.571 6.75411 86.264 6.75411 85.8547C6.65177 84.6268 5.93544 83.3988 5.21911 82.2732L5.32145 82.1708ZM4.09347 83.3988C4.09347 83.7058 4.09345 84.1151 4.29812 84.5244C4.50279 85.4454 4.70746 86.571 5.01446 87.5943C5.1168 88.106 5.21912 88.5153 5.32145 88.9246C5.42378 89.334 5.52613 89.6409 5.62847 89.9479C5.62847 90.2549 5.42378 90.2549 5.32145 90.0503C5.21912 89.8456 5.01446 89.4363 4.91212 89.1293C4.80979 88.72 4.60513 88.3106 4.5028 87.799C4.1958 86.7757 4.09347 85.5477 4.09347 84.6268C4.09347 84.1151 4.09347 83.8081 4.09347 83.5011C4.09347 83.1941 4.09347 83.0918 4.09347 83.0918C4.09347 83.0918 4.09347 83.2965 4.09347 83.5011V83.3988Z" fill="#222222"/>
<path d="M10.9497 90.3576C10.9497 89.539 10.7451 89.0273 10.7451 89.0273C10.7451 89.0273 7.98209 90.3576 7.47043 92.3019C7.16343 93.3252 7.47042 94.2462 7.77741 94.8601C7.87975 95.1671 8.08444 95.3718 8.18677 95.5765C8.2891 95.6788 8.39142 95.7811 8.39142 95.7811C8.39142 95.7811 8.80075 95.5765 9.31241 95.1672C9.82408 94.7578 10.3358 94.0415 10.7451 93.1206C11.1544 92.1996 11.0521 91.2786 10.9497 90.46V90.3576ZM9.51709 91.6879C9.31242 92.3019 9.10775 93.1205 8.90308 93.7345C8.69842 94.4508 8.49375 95.0648 8.39142 95.3718C8.39142 95.5765 8.18677 95.5765 8.18677 95.3718C8.18677 94.9625 8.28909 94.4508 8.49376 93.6322C8.69842 92.9159 9.00544 92.0973 9.2101 91.5856C9.5171 90.9716 9.72177 90.6646 9.72177 90.6646C9.72177 90.6646 9.61942 91.0739 9.41475 91.6879H9.51709Z" fill="#222222"/>
<path d="M0.920992 91.6833C1.53499 92.7066 2.55832 93.6276 3.47932 93.9346C4.60498 94.3439 5.52599 94.0369 6.13999 93.8323C6.75398 93.5253 7.06098 93.2183 7.06098 93.2183C7.06098 93.2183 6.95865 92.809 6.65165 92.195C6.34465 91.581 5.73063 90.967 4.80964 90.353C3.99097 89.8414 2.76297 89.739 1.73964 89.6367C0.716313 89.6367 0 89.6367 0 89.6367C0 89.6367 0.306993 90.5577 0.920992 91.4787V91.6833ZM2.86531 91.6833C2.25132 91.274 1.84198 90.967 1.84198 90.967C1.84198 90.967 2.25132 91.1717 2.96765 91.4787C3.58165 91.7857 4.4003 92.0927 5.21896 92.3996C5.93529 92.7066 6.44697 92.9113 6.8563 93.116C7.06096 93.116 6.95863 93.3206 6.8563 93.3206C6.44697 93.3206 5.93532 93.116 5.11665 92.809C4.40032 92.502 3.47932 92.0926 2.96765 91.6833H2.86531Z" fill="#222222"/>
<path d="M13.0983 93.8342C12.8936 93.0155 12.5866 92.5039 12.5866 92.5039C12.5866 92.5039 10.1307 94.3458 10.0283 96.3924C10.0283 97.5181 10.4376 98.3367 10.847 98.8484C11.2563 99.36 11.6657 99.5647 11.6657 99.5647C11.6657 99.5647 12.075 99.36 12.4843 98.8484C12.8936 98.3367 13.303 97.6204 13.5076 96.4948C13.7123 95.5738 13.5077 94.6528 13.2007 93.8342H13.0983ZM12.075 94.5505C12.075 94.7552 12.075 95.0621 12.075 95.2668C12.075 95.8808 12.075 96.6994 11.9726 97.4157C11.9726 98.2344 11.8703 98.7461 11.768 99.1554C11.768 99.36 11.5633 99.36 11.5633 99.1554C11.5633 98.7461 11.5633 98.1321 11.5633 97.4157C11.5633 96.6994 11.768 95.8808 11.8703 95.2668C12.075 94.6528 12.1773 94.2435 12.1773 94.2435C12.1773 94.2435 12.1773 94.3459 12.1773 94.5505H12.075Z" fill="#222222"/>
<path d="M3.47927 97.1085C4.29794 97.9272 5.4236 98.6435 6.44693 98.8481C7.57259 98.9505 8.49359 98.5412 9.00526 98.2342C9.51692 97.8249 9.82391 97.5179 9.82391 97.5179C9.82391 97.5179 9.61927 97.1085 9.20994 96.5969C8.8006 96.0852 8.08426 95.5736 6.95859 95.1643C5.1166 94.448 2.14893 95.5736 2.14893 95.5736C2.14893 95.5736 2.66061 96.3922 3.47927 97.2109V97.1085ZM5.4236 96.8015C4.8096 96.5969 4.29793 96.2899 4.29793 96.2899C4.29793 96.2899 4.8096 96.3922 5.4236 96.4945C6.13993 96.5969 6.95858 96.8015 7.77725 96.9039C8.59591 97.0062 9.10759 97.2109 9.51692 97.2109C9.72159 97.2109 9.72159 97.4155 9.51692 97.4155C9.10759 97.4155 8.49358 97.4155 7.77725 97.3132C6.95858 97.2108 6.13993 96.9039 5.4236 96.6992V96.8015Z" fill="#222222"/>
<path d="M15.8617 96.8022C15.4523 96.0859 15.043 95.5742 15.043 95.5742C15.043 95.5742 12.9964 97.9278 13.3034 99.8721C13.4057 100.998 14.0197 101.714 14.5313 102.123C15.043 102.533 15.4523 102.737 15.4523 102.737C15.4523 102.737 15.7593 102.43 16.0663 101.816C16.3733 101.202 16.6803 100.384 16.6803 99.2581C16.6803 98.3371 16.1687 97.4162 15.8617 96.6999V96.8022ZM15.1453 98.4395C15.1453 99.0534 15.35 99.8721 15.4523 100.588C15.4523 101.305 15.5547 101.919 15.657 102.328C15.657 102.533 15.4523 102.533 15.4523 102.328C15.35 101.919 15.2477 101.407 15.1453 100.588C15.043 99.8721 15.043 99.0534 15.1453 98.3371C15.1453 97.7231 15.2477 97.2115 15.2477 97.2115C15.2477 97.2115 15.2477 97.6208 15.2477 98.2348L15.1453 98.4395Z" fill="#222222"/>
<path d="M7.16341 101.918C8.08441 102.635 9.41472 103.044 10.4381 102.942C11.5637 102.839 12.3824 102.328 12.7917 101.816C13.3034 101.304 13.508 100.895 13.508 100.895C13.508 100.895 13.3034 100.486 12.6894 100.076C12.3824 99.8718 12.0754 99.6672 11.6661 99.5648C11.4614 99.5648 11.2567 99.4625 10.9497 99.3602C10.7451 99.3602 10.4381 99.2579 10.2334 99.1555C8.28908 98.8485 5.62842 100.486 5.62842 100.486C5.62842 100.486 6.34472 101.1 7.26572 101.816L7.16341 101.918ZM8.90306 101.202C8.18673 101.1 7.67508 100.997 7.67508 100.997C7.67508 100.997 8.18673 100.997 8.90306 100.997C9.61939 100.997 10.5404 100.997 11.2567 100.997C12.0754 100.997 12.5871 100.997 12.9964 100.997C13.201 100.997 13.201 101.202 12.9964 101.202C12.5871 101.202 12.0754 101.304 11.2567 101.407C10.4381 101.407 9.51705 101.407 8.80072 101.304L8.90306 101.202Z" fill="#222222"/>
<path d="M18.3175 98.232C18.3175 98.232 17.9081 98.9483 17.6011 99.767C17.2941 100.688 16.9872 101.814 17.2942 102.735C17.6012 103.758 18.3175 104.474 18.8292 104.781C19.3408 105.19 19.8525 105.19 19.8525 105.19C19.8525 105.19 21.0805 103.758 20.5688 101.609C20.2618 99.6646 18.2152 98.1297 18.3175 98.0273V98.232ZM19.4432 103.246C19.6478 103.963 19.7502 104.576 19.8525 104.986C19.8525 105.19 19.7501 105.19 19.6478 104.986C19.4431 104.576 19.2385 104.065 19.0338 103.349C18.6245 101.814 18.5221 100.074 18.5221 100.074C18.5221 100.074 19.0338 101.711 19.4432 103.246Z" fill="#222222"/>
<path d="M10.2333 105.192C10.5403 105.396 11.052 105.601 11.5637 105.806C12.587 106.215 13.815 106.624 14.8383 106.317C15.964 106.01 16.578 105.396 16.9873 104.782C17.3966 104.271 17.499 103.759 17.499 103.759C17.499 103.759 17.192 103.452 16.578 103.145C15.964 102.94 15.1453 102.531 14.0197 102.633C12.9963 102.633 11.973 103.247 11.1543 103.759C10.3357 104.271 9.72168 104.782 9.72168 104.782C9.72168 104.782 9.92635 104.885 10.2333 105.089V105.192ZM13.201 104.782C12.4847 104.782 11.973 104.782 11.973 104.782C11.973 104.782 13.9173 104.475 15.4523 104.168C16.271 103.964 16.7827 103.861 17.192 103.861C17.3966 103.861 17.3966 103.964 17.192 104.066C16.7827 104.168 16.271 104.373 15.4523 104.578C14.6336 104.782 13.815 104.782 13.0987 104.885L13.201 104.782Z" fill="#222222"/>
<path d="M22.0014 100.387C22.0014 100.387 20.8757 103.252 21.592 105.094C22.0013 106.117 22.7177 106.731 23.3317 107.038C23.9457 107.345 24.355 107.448 24.355 107.448C24.355 107.448 25.4807 106.015 24.969 103.866C24.4574 102.024 22.0014 100.387 22.0014 100.387ZM23.8433 105.503C24.048 106.22 24.2527 106.731 24.355 107.141C24.355 107.345 24.2527 107.345 24.1503 107.141C23.9457 106.731 23.741 106.22 23.434 105.503C22.9224 104.071 22.6153 102.229 22.6153 102.229C22.6153 102.229 23.3317 103.968 23.8433 105.401V105.503Z" fill="#222222"/>
<path d="M16.4753 108.881C17.4986 109.085 18.7266 109.188 19.6476 108.881C21.6943 107.96 22.1036 106.22 22.1036 106.22C22.1036 106.22 20.7733 104.992 18.5219 105.504C16.5776 105.811 14.6333 108.267 14.6333 108.267C14.6333 108.267 15.452 108.676 16.4753 108.983V108.881ZM17.8056 107.653C17.4986 107.653 17.1916 107.755 16.9869 107.755C16.7823 107.755 16.68 107.755 16.68 107.755C16.68 107.755 16.7823 107.755 16.9869 107.653C17.1916 107.653 17.4986 107.448 17.8056 107.346C18.4196 107.141 19.2383 106.834 19.9546 106.527C20.671 106.322 21.2849 106.118 21.6943 106.118C21.8989 106.118 21.8989 106.22 21.6943 106.322C21.2849 106.527 20.7733 106.732 20.0569 106.936C19.3406 107.141 18.522 107.448 17.8056 107.55V107.653Z" fill="#222222"/>
<path d="M27.6298 103.558C26.9135 102.944 26.2994 102.535 26.2994 102.535C26.2994 102.535 25.2761 105.503 26.0948 107.242C26.6065 108.266 27.3228 108.88 27.8344 109.187C28.4484 109.494 28.8578 109.596 28.8578 109.596C28.8578 109.596 29.9834 108.163 29.2671 106.014C28.9601 105.093 28.2438 104.275 27.5274 103.661L27.6298 103.558ZM27.4251 105.4C27.7321 106.014 28.0391 106.833 28.3461 107.447C28.6531 108.163 28.7554 108.675 28.9601 109.084C28.9601 109.289 28.8578 109.391 28.7554 109.084C28.5508 108.777 28.3461 108.266 28.0391 107.549C27.4251 106.117 27.0158 104.275 27.0158 104.275C27.0158 104.275 27.2204 104.684 27.5274 105.298L27.4251 105.4Z" fill="#222222"/>
<path d="M21.0805 111.332C22.1038 111.537 23.3318 111.537 24.1505 111.127C26.1971 110.206 26.5041 108.365 26.5041 108.365C26.5041 108.365 25.0715 107.239 22.9225 107.751C20.9782 108.262 19.3408 110.82 19.3408 110.82C19.3408 110.82 20.0571 111.127 21.0805 111.332ZM22.4108 109.899C21.7968 110.104 21.2851 110.206 21.2851 110.206C21.2851 110.206 21.6945 110.002 22.3085 109.695C22.9225 109.388 23.7411 109.081 24.4575 108.774C25.1738 108.467 25.7878 108.365 26.0948 108.262C26.2995 108.262 26.2995 108.365 26.0948 108.467C25.6855 108.672 25.1738 108.876 24.4575 109.183C23.7411 109.49 22.9225 109.695 22.2061 109.899H22.4108Z" fill="#222222"/>
<path d="M30.7003 104.477C30.7003 104.477 29.7794 107.444 30.7003 109.184C31.212 110.207 31.9283 110.719 32.5423 111.026C33.1563 111.333 33.5657 111.333 33.5657 111.333C33.5657 111.333 34.589 109.798 33.8726 107.751C33.2587 105.909 30.598 104.477 30.598 104.477H30.7003ZM32.0307 107.342C32.3377 107.956 32.747 108.672 33.054 109.388C33.361 110.105 33.5657 110.616 33.668 111.026C33.668 111.23 33.668 111.333 33.4633 111.026C33.2587 110.719 32.9517 110.207 32.6447 109.491C32.0307 108.16 31.519 106.319 31.519 106.319C31.519 106.319 31.7237 106.728 32.0307 107.342Z" fill="#222222"/>
<path d="M25.8903 113.383C26.9137 113.485 28.1417 113.485 28.9603 113.076C29.9836 112.564 30.4953 111.848 30.8023 111.234C31.1093 110.62 31.1093 110.21 31.1093 110.21C31.1093 110.21 29.6767 109.085 27.5277 109.801C26.6067 110.108 25.6857 110.927 25.0717 111.643C24.4577 112.359 24.0483 113.076 24.0483 113.076C24.0483 113.076 24.7647 113.383 25.788 113.485L25.8903 113.383ZM26.095 112.359C26.095 112.359 27.8346 111.438 29.2673 110.824C29.9836 110.517 30.4953 110.313 30.9046 110.21C31.1093 110.21 31.2116 110.313 30.9046 110.415C30.5976 110.62 30.086 110.824 29.3696 111.131C27.937 111.745 26.095 112.257 26.095 112.257V112.359Z" fill="#222222"/>
<path d="M36.6353 107.136C35.9189 106.624 35.2026 106.215 35.2026 106.215C35.2026 106.215 34.3839 109.182 35.4073 110.922C36.5329 112.764 38.375 112.969 38.375 112.969C38.375 112.969 38.5796 112.559 38.7843 111.945C38.8866 111.331 38.9889 110.41 38.5796 109.387C38.2726 108.466 37.3516 107.75 36.6353 107.136ZM37.6586 111.024C37.9656 111.741 38.2726 112.252 38.375 112.662C38.375 112.866 38.3749 112.969 38.1703 112.662C37.9656 112.355 37.6586 111.843 37.2493 111.127C36.5329 109.796 35.9189 107.954 35.9189 107.954C35.9189 107.954 36.9423 109.489 37.5563 110.922L37.6586 111.024Z" fill="#222222"/>
<path d="M30.8021 115.327C31.8255 115.327 33.0535 115.327 33.8721 114.918C35.8165 113.792 35.9188 111.95 35.9188 111.95C35.9188 111.95 35.5095 111.746 34.8955 111.541C34.2815 111.336 33.3605 111.336 32.3371 111.643C30.4951 112.257 29.0625 115.02 29.0625 115.02C29.0625 115.02 29.8812 115.225 30.9045 115.327H30.8021ZM30.9045 114.304C30.9045 114.304 32.5418 113.281 33.9745 112.667C34.6908 112.36 35.2025 112.155 35.6118 111.95C35.8165 111.95 35.9188 111.95 35.6118 112.155C35.3048 112.36 34.7931 112.667 34.0768 112.974C32.6442 113.69 30.8021 114.202 30.8021 114.202L30.9045 114.304Z" fill="#222222"/>
<path d="M39.8082 107.75C39.8082 107.75 39.1942 110.82 40.2175 112.457C41.4455 114.299 43.2875 114.299 43.2875 114.299C43.2875 114.299 44.1062 112.662 43.2875 110.718C42.4688 108.978 39.8082 107.75 39.8082 107.75ZM42.4688 112.457C42.8782 113.174 43.0828 113.685 43.2875 113.992C43.2875 114.197 43.2875 114.299 43.0828 114.094C42.8781 113.787 42.4688 113.276 42.1618 112.662C41.4455 111.332 40.7292 109.592 40.7292 109.592C40.7292 109.592 41.7525 111.127 42.4688 112.457Z" fill="#222222"/>
<path d="M35.7143 117.063C36.7376 117.063 37.9656 117.063 38.7843 116.449C40.7286 115.221 40.7286 113.379 40.7286 113.379C40.7286 113.379 40.3193 113.175 39.7053 113.072C39.0913 112.97 38.1703 112.97 37.1469 113.379C35.3049 114.096 33.9746 116.961 33.9746 116.961C33.9746 116.961 34.7933 117.166 35.8166 117.166L35.7143 117.063ZM35.8166 115.938C35.8166 115.938 36.226 115.733 36.84 115.324C37.454 115.017 38.1703 114.505 38.8866 114.198C39.6029 113.789 40.1146 113.584 40.5239 113.482C40.7286 113.482 40.8309 113.482 40.6263 113.686C40.3193 113.891 39.8076 114.198 39.0913 114.607C37.7609 115.426 35.9189 116.04 35.9189 116.04L35.8166 115.938Z" fill="#222222"/>
<path d="M45.8454 109.798C45.0267 109.287 44.3104 109.082 44.3104 109.082C44.3104 109.082 43.7987 112.152 44.9244 113.789C45.5384 114.71 46.357 115.12 46.971 115.324C47.585 115.529 48.0967 115.529 48.0967 115.529C48.0967 115.529 48.3013 115.12 48.4037 114.506C48.4037 113.892 48.4037 112.971 47.892 111.947C47.4827 111.026 46.5617 110.412 45.743 109.901L45.8454 109.798ZM45.9477 111.743C46.357 112.254 46.7663 112.971 47.1757 113.585C47.585 114.199 47.892 114.71 47.9944 115.12C47.9944 115.324 47.9943 115.427 47.7897 115.222C47.585 114.915 47.1757 114.403 46.7663 113.789C46.357 113.175 45.9477 112.357 45.6407 111.845C45.3337 111.231 45.129 110.822 45.129 110.822C45.129 110.822 45.436 111.231 45.743 111.743H45.9477Z" fill="#222222"/>
<path d="M40.8315 118.6C41.8548 118.6 43.0828 118.395 43.9015 117.883C45.7435 116.553 45.6411 114.711 45.6411 114.711C45.6411 114.711 45.2318 114.506 44.6178 114.404C44.0038 114.302 43.0828 114.404 42.0595 114.813C40.2175 115.632 39.0918 118.497 39.0918 118.497C39.0918 118.497 39.9105 118.702 40.9338 118.702L40.8315 118.6ZM40.8315 117.474C40.8315 117.474 42.3665 116.348 43.7991 115.53C44.5155 115.12 45.0271 114.916 45.3341 114.711C45.5388 114.711 45.6411 114.711 45.4365 114.916C45.1295 115.12 44.6178 115.53 44.0038 115.939C42.6735 116.758 40.8315 117.474 40.8315 117.474Z" fill="#222222"/>
<path d="M49.0179 110.208C49.0179 110.208 48.6086 113.278 49.9389 114.813C51.3716 116.552 53.2136 116.348 53.2136 116.348C53.2136 116.348 53.4182 115.938 53.4182 115.222C53.4182 114.608 53.4182 113.687 52.8042 112.664C51.8832 111.026 49.0179 110.105 49.0179 110.105V110.208ZM52.0879 114.608C52.4972 115.222 52.8042 115.734 53.0089 116.041C53.0089 116.245 53.0089 116.348 52.8042 116.143C52.4972 115.836 52.1902 115.427 51.6786 114.813C50.7576 113.585 49.9389 111.845 49.9389 111.845C49.9389 111.845 51.1669 113.278 51.9856 114.506L52.0879 114.608Z" fill="#222222"/>
<path d="M48.9156 119.007C50.6553 117.575 50.553 115.733 50.553 115.733C50.553 115.733 50.1436 115.528 49.4273 115.426C48.8133 115.426 47.8923 115.426 46.869 115.937C45.1293 116.858 44.106 119.724 44.106 119.724C44.106 119.724 47.3806 120.133 48.9156 118.905V119.007ZM45.8456 118.803C45.8456 118.803 47.3806 117.575 48.7109 116.756C49.3249 116.347 49.8366 116.04 50.2459 115.835C50.4506 115.835 50.5529 115.835 50.3483 116.04C50.0413 116.347 49.632 116.654 48.9156 117.063C47.5853 117.984 45.8456 118.803 45.8456 118.803Z" fill="#222222"/>
<path d="M5.32178 90.0531C5.32178 90.0531 5.62878 90.9741 6.34511 92.6114C6.54977 93.0207 6.75445 93.43 7.06145 93.8393C7.36845 94.2486 7.57311 94.7603 7.98244 95.2719C8.28944 95.7836 8.69878 96.2952 9.10811 96.8069C9.51745 97.4209 10.0291 97.8302 10.5408 98.4442C12.5874 100.593 15.3504 102.844 18.6251 104.584C21.8997 106.324 25.4814 108.063 29.1654 109.496C36.5334 112.566 44.2084 114.715 50.0414 115.738C53.009 116.25 55.465 116.659 57.2047 116.761C58.9443 116.966 59.9676 116.966 59.9676 116.966V116.557C59.9676 116.557 58.9443 116.557 57.307 116.352C55.5674 116.147 53.1113 115.84 50.246 115.329C44.413 114.203 36.738 112.156 29.4724 109.087C25.7884 107.654 22.2068 105.914 18.9321 104.175C15.6574 102.435 12.9968 100.184 10.9501 98.0349C10.4384 97.5232 9.92678 97.0115 9.61978 96.3976C9.21045 95.8859 8.90344 95.3743 8.49411 94.8626C8.18711 94.351 7.88012 93.8393 7.67546 93.43C7.36846 93.0207 7.16378 92.6113 6.95911 92.202C6.24278 90.6671 5.93578 89.7461 5.93578 89.7461H5.52646L5.32178 90.0531Z" fill="#222222"/>
</svg>
