<svg width="120" height="100" viewBox="0 0 120 100" fill="none" xmlns="http://www.w3.org/2000/svg">
<path d="M38.1416 35.1964C38.1416 34.9386 38.1416 31.1875 38.1416 31.1875H35.9126C35.9126 31.1875 35.9126 34.8804 35.9126 34.997C35.9126 35.6789 35.2805 36.1363 34.2159 36.1363C33.1014 36.1363 32.4943 35.6955 32.4943 34.9885C32.4943 34.8721 32.4943 31.1875 32.4943 31.1875H30.2402C30.2402 31.1875 30.2402 34.6891 30.2402 34.9885C30.2402 36.968 31.8621 37.8081 34.1244 37.8081C36.5448 37.8081 38.1416 36.9597 38.1416 35.1964Z" fill="#222222"/>
<path d="M45.648 37.7166V35.9783H41.6725V31.1875H39.4185V37.7166H45.648Z" fill="#222222"/>
<path d="M52.3469 32.8261V31.1875H44.5537V32.8261H47.3066V37.7166H49.5856V32.8261H52.3469Z" fill="#222222"/>
<path d="M55.3429 37.7166V31.1875H53.0557V37.7166H55.3429Z" fill="#222222"/>
<path d="M65.837 37.7166V31.1875H63.0175L61.2376 35.1051L59.541 31.1875H56.6299V37.7166H58.7508V34.1902L60.2811 37.7166H62.1775L63.7244 34.1902V37.7166H65.837Z" fill="#222222"/>
<path d="M69.3695 36.5106H72.8961L73.4701 37.7166H75.8737L72.5801 31.1875H69.8936L66.4087 37.7166H68.7624L69.3695 36.5106ZM72.1891 35.0467H70.1015L70.9249 33.4747L71.1744 32.876L71.4074 33.4664L72.1891 35.0467Z" fill="#222222"/>
<path d="M82.9428 32.8261V31.1875H75.1499V32.8261H77.9028V37.7166H80.1819V32.8261H82.9428Z" fill="#222222"/>
<path d="M90.5218 37.7166V36.0947H85.8409V35.2463H90.3307V33.6578H85.8409V32.8177H90.4643V31.1875H83.645V37.7166H90.5218Z" fill="#222222"/>
<path d="M47.2379 41.1875H45.0837C45.0837 41.1875 43.6781 45.2962 43.6781 45.396C43.6781 45.2962 42.3639 41.1875 42.3639 41.1875H40.0268C40.0268 41.1875 38.721 45.2962 38.721 45.396C38.721 45.2962 37.3071 41.1875 37.3071 41.1875H34.8867L37.3321 47.7166H39.769C39.769 47.7166 41.0831 43.8158 41.0914 43.7077C41.0997 43.8158 42.4056 47.7166 42.4056 47.7166H44.8508L47.2379 41.1875Z" fill="#222222"/>
<path d="M50.1856 47.7166V41.1875H47.8984V47.7166H50.1856Z" fill="#222222"/>
<path d="M59.082 47.7166V41.1875H56.9528V44.739L53.8172 41.1875H51.4717V47.7166H53.6176V44.0819L56.853 47.7166H59.082Z" fill="#222222"/>
<path d="M67.9925 47.7166V41.1875H65.8633V44.739L62.7277 41.1875H60.3823V47.7166H62.5281V44.0819L65.7635 47.7166H67.9925Z" fill="#222222"/>
<path d="M76.1708 47.7166V46.0947H71.4883V45.2463H75.9795V43.6578H71.4883V42.8177H76.1126V41.1875H69.2925V47.7166H76.1708Z" fill="#222222"/>
<path d="M84.9623 43.1753C84.9623 42.5849 84.8202 42.1606 84.5207 41.8529C84.1299 41.437 83.4566 41.1875 82.4247 41.1875H77.2271V47.7166H79.4478V45.4128H81.4689L83.0912 47.7166H85.5696L83.5987 45.055C84.0386 44.9885 84.3972 44.7224 84.629 44.4064C84.8371 44.1152 84.9623 43.6826 84.9623 43.1753ZM82.8002 43.3832C82.8002 43.4915 82.7833 43.6245 82.7241 43.7243C82.6412 43.8906 82.4247 43.9572 82.0677 43.9572H79.4561V42.7678H82.0254C82.3756 42.7678 82.6091 42.8259 82.7241 43.0423C82.7833 43.1254 82.8002 43.2585 82.8002 43.3832Z" fill="#222222"/>
<path d="M39.0792 54.1358C39.0792 54.029 39.0792 50.9453 39.0792 50.9453H38.3005C38.3005 50.9453 38.3005 54.0163 38.3005 54.0855C38.3005 54.8265 37.6034 55.2474 36.5985 55.2474C35.4116 55.2474 34.8274 54.7952 34.8274 54.0793C34.8274 54.0101 34.8274 50.9453 34.8274 50.9453H34.0425C34.0425 50.9453 34.0425 53.9348 34.0425 54.0541C34.0425 55.3604 35.0599 55.9381 36.5672 55.9381C38.1246 55.9381 39.0792 55.3227 39.0792 54.1358Z" fill="#222222"/>
<path d="M44.6665 55.8754V55.1532H41.2688V50.9453H40.4839V55.8754H44.6665Z" fill="#222222"/>
<path d="M49.1275 51.6613V50.9453H43.8896V51.6613H46.1129V55.8754H46.9043V51.6613H49.1275Z" fill="#222222"/>
<path d="M54.7091 52.3395C54.7091 51.9878 54.6336 51.7303 54.5018 51.523C54.2694 51.1776 53.8235 50.9453 53.0825 50.9453H49.8921V55.8754H50.6645V53.7966H52.9128L54.2882 55.8754H55.1926L53.7042 53.6646C54.0809 53.6208 54.3762 53.4071 54.5331 53.1309C54.6463 52.9424 54.7091 52.6662 54.7091 52.3395ZM53.9302 52.4022C53.9302 52.5405 53.8989 52.7101 53.8424 52.8231C53.7419 53.0052 53.5095 53.0994 53.1327 53.1057H50.6708C50.6708 53.0931 50.6708 51.6487 50.6708 51.6487H52.9883C53.4592 51.6487 53.7105 51.7617 53.8424 51.9752C53.8989 52.0757 53.9302 52.2452 53.9302 52.4022Z" fill="#222222"/>
<path d="M56.9438 54.657H60.0149L60.6429 55.8754H61.4845L58.9849 50.9453H58.0617L55.4805 55.8754H56.3031L56.9438 54.657ZM59.6883 53.9598H57.283L58.2814 52.0695L58.5014 51.611L58.7211 52.0695L59.6883 53.9598Z" fill="#222222"/>
<path d="M69.4496 55.4044C69.6443 55.1782 69.7323 54.858 69.7323 54.5125C69.7323 54.186 69.6381 53.8593 69.4434 53.6584C69.2486 53.4701 68.9347 53.3131 68.5892 53.2816C68.7902 53.2501 68.9472 53.1246 69.0539 52.9927C69.2236 52.7979 69.3239 52.4839 69.3239 52.17C69.3239 51.837 69.2236 51.5356 69.0099 51.3283C68.7777 51.096 68.382 50.9453 67.8293 50.9453H64.5132V55.8754H68.0743C68.7399 55.8754 69.2047 55.7059 69.4496 55.4044ZM68.5138 52.327C68.5138 52.5467 68.4447 52.7414 68.3255 52.8544C68.206 52.9864 68.0051 53.0429 67.7916 53.0429H65.2794V51.6235H67.6471C67.936 51.6235 68.1558 51.68 68.3065 51.8182C68.4385 51.9438 68.5138 52.126 68.5138 52.327ZM68.765 54.927C68.608 55.1029 68.338 55.1909 67.9423 55.1909H65.2794V53.7275H67.9612C68.3255 53.7275 68.5767 53.8028 68.7274 53.9473C68.8655 54.0793 68.9221 54.2488 68.9221 54.4435C68.9221 54.6445 68.8782 54.814 68.765 54.927Z" fill="#222222"/>
<path d="M75.4337 55.8754V55.1532H71.6028V53.7463H75.2829V53.0304H71.6028V51.6613H75.3897V50.9453H70.8364V55.8754H75.4337Z" fill="#222222"/>
<path d="M81.5693 54.4172C81.5693 53.6133 81.0364 53.1988 79.7236 53.0481C79.5032 53.0168 79.0258 52.9665 78.7683 52.9351C77.55 52.7906 77.1795 52.6274 77.1795 52.2066C77.1795 51.7984 77.5877 51.566 78.8186 51.566C79.7727 51.566 80.2633 51.7544 80.5086 52.0934C80.578 52.1877 80.6152 52.3008 80.6338 52.3886H81.4746C81.4509 52.2442 81.3934 52.0432 81.3054 51.8799C80.9671 51.296 80.2701 50.875 78.8186 50.875C77.0852 50.8688 76.3693 51.4969 76.3693 52.2756C76.3693 53.0543 76.9283 53.45 78.3791 53.6197C78.6303 53.651 79.0761 53.7013 79.296 53.7265C80.4206 53.8645 80.7725 54.0342 80.7725 54.5052C80.7725 54.9386 80.3699 55.2526 79.0823 55.2526C78.0274 55.2526 77.462 55.0641 77.236 54.6999C77.167 54.5994 77.123 54.4424 77.1167 54.3357H76.2876C76.3065 54.5617 76.3693 54.8067 76.4823 55.0014C76.809 55.598 77.5752 55.9435 79.0573 55.9435C80.8283 55.9435 81.5693 55.3719 81.5693 54.4172Z" fill="#222222"/>
<path d="M87.2014 51.6613V50.9453H81.9639V51.6613H84.1868V55.8754H84.9785V51.6613H87.2014Z" fill="#222222"/>
<path d="M31.8191 60.1604C31.8191 59.658 31.7186 59.3188 31.5489 59.0613C31.3104 58.6906 30.8455 58.4961 30.0354 58.4961H26.9204V63.4262H27.6991V61.8183C27.6991 61.8183 29.8973 61.8183 30.0041 61.8183C30.764 61.8121 31.2852 61.6363 31.5616 61.2343C31.7374 60.9894 31.8191 60.6377 31.8191 60.1604ZM31.0277 60.1604C31.0277 60.4115 31.0025 60.5999 30.921 60.7256C30.7765 60.9579 30.4813 61.1024 29.8721 61.1024C29.8156 61.1024 27.6991 61.1024 27.6991 61.1024V59.1995H29.8973C30.4688 59.1995 30.764 59.3313 30.921 59.5888C30.9963 59.7018 31.0277 59.9092 31.0277 60.1604Z" fill="#222222"/>
<path d="M37.504 63.4262V62.704H33.6729V61.2971H37.3532V60.5812H33.6729V59.212H37.46V58.4961H32.9067V63.4262H37.504Z" fill="#222222"/>
<path d="M43.4942 59.8903C43.4942 59.5385 43.419 59.2811 43.287 59.0738C43.0546 58.7284 42.6088 58.4961 41.8677 58.4961H38.6772V63.4262H39.4497V61.3474H41.6981L43.0735 63.4262H43.9779L42.4894 61.2154C42.8663 61.1716 43.1615 60.9579 43.3185 60.6817C43.4315 60.4932 43.4942 60.2169 43.4942 59.8903ZM42.7155 59.953C42.7155 60.0912 42.6841 60.2609 42.6276 60.3739C42.5271 60.556 42.2946 60.6502 41.9179 60.6564H39.4559C39.4559 60.6439 39.4559 59.1995 39.4559 59.1995H41.7734C42.2444 59.1995 42.4956 59.3125 42.6276 59.526C42.6841 59.6265 42.7155 59.796 42.7155 59.953Z" fill="#222222"/>
<path d="M49.3173 59.212V58.4961H44.9336V63.4262H45.7123V61.3286H49.1541V60.5937H45.7123V59.212H49.3173Z" fill="#222222"/>
<path d="M52.8923 58.4102C51.8434 58.4102 51.1212 58.6676 50.6061 59.2078C50.1728 59.6285 49.9844 60.2127 49.9844 60.9474C49.9844 61.7513 50.2293 62.3543 50.6815 62.7625C51.1652 63.2462 51.9062 63.4972 52.8923 63.4972C53.9097 63.4972 54.7009 63.2462 55.172 62.7373C55.5802 62.3228 55.7937 61.7326 55.7937 60.9412C55.7937 60.175 55.6115 59.5908 55.1783 59.1763C54.6821 58.6614 53.941 58.4102 52.8923 58.4102ZM52.8923 62.794C52.2014 62.794 51.7114 62.6432 51.341 62.3418C50.9642 62.034 50.782 61.5629 50.782 60.9599C50.782 60.3947 50.939 59.9238 51.2405 59.6411C51.5859 59.3146 52.1134 59.1198 52.886 59.1198C53.6835 59.1198 54.1797 59.3083 54.5501 59.6348C54.8643 59.9112 55.0023 60.401 55.0023 60.9537C55.0023 61.5126 54.858 61.99 54.5376 62.2788C54.1671 62.6243 53.6459 62.794 52.8923 62.794Z" fill="#222222"/>
<path d="M61.6861 59.8903C61.6861 59.5385 61.6107 59.2811 61.4789 59.0738C61.2465 58.7284 60.8005 58.4961 60.0595 58.4961H56.8691V63.4262H57.6416V61.3474H59.8899L61.2654 63.4262H62.1696L60.6813 61.2154C61.058 61.1716 61.3532 60.9579 61.5102 60.6817C61.6234 60.4932 61.6861 60.2169 61.6861 59.8903ZM60.9073 59.953C60.9073 60.0912 60.876 60.2609 60.8195 60.3739C60.719 60.556 60.4865 60.6502 60.1098 60.6564H57.6478C57.6478 60.6439 57.6478 59.1995 57.6478 59.1995H59.9653C60.4363 59.1995 60.6875 59.3125 60.8195 59.526C60.876 59.6265 60.9073 59.796 60.9073 59.953Z" fill="#222222"/>
<path d="M69.1976 63.4262V58.4961H68.1802L66.1517 62.5532L64.1607 58.4961H63.1245V63.4262H63.8719V59.6328L65.7308 63.4262H66.5472L68.4502 59.6328V63.4262H69.1976Z" fill="#222222"/>
<path d="M71.4023 62.2078H74.4734L75.1014 63.4262H75.943L73.4434 58.4961H72.5202L69.939 63.4262H70.7616L71.4023 62.2078ZM74.1468 61.5106H71.7415L72.7399 59.6203L72.9599 59.1618L73.1796 59.6203L74.1468 61.5106Z" fill="#222222"/>
<path d="M81.601 63.4262V58.4961H80.8533V62.327L77.5882 58.4961H76.7026V63.4262H77.4626V59.57L80.7535 63.4262H81.601Z" fill="#222222"/>
<path d="M88.3765 61.5881H87.5594C87.534 61.8141 87.446 62.0403 87.2887 62.2098C86.9503 62.6055 86.4107 62.775 85.5818 62.775C84.8848 62.775 84.137 62.5803 83.7784 62.0716C83.5906 61.8331 83.4705 61.4813 83.4705 60.9537C83.4705 60.4827 83.5534 60.131 83.7344 59.8923C84.0355 59.4088 84.6699 59.1576 85.5631 59.1576C86.4293 59.1576 86.9757 59.3961 87.265 59.729C87.4274 59.9048 87.5222 60.1122 87.5526 60.357H88.3697C88.3443 60.0807 88.2564 59.7541 88.0686 59.4778C87.6659 58.8811 86.925 58.4102 85.5682 58.4102C84.2757 58.4102 83.5026 58.8246 83.0746 59.4463C82.7989 59.8043 82.6602 60.3068 82.6602 60.9474C82.6602 61.6634 82.831 62.191 83.1254 62.5615C83.5534 63.1457 84.3756 63.4972 85.619 63.4972C86.8945 63.4972 87.6541 63.1142 88.0314 62.505C88.2445 62.2098 88.3511 61.8581 88.3765 61.5881Z" fill="#222222"/>
<path d="M93.9975 63.4262V62.704H90.1658V61.2971H93.8469V60.5812H90.1658V59.212H93.9535V58.4961H89.3994V63.4262H93.9975Z" fill="#222222"/>
<path d="M36.5608 68.3242L37.5 71.2151H40.5395L38.0806 73.0017L39.0199 75.8924L36.5608 74.1059L34.1017 75.8924L35.0411 73.0017L32.582 71.2151H35.6215L36.5608 68.3242Z" fill="#222222"/>
<path d="M47.4047 68.3242L48.363 71.2149H51.4646L48.9555 73.0015L49.9138 75.8924L47.4047 74.1057L44.8955 75.8924L45.8539 73.0015L43.3447 71.2149H46.4463L47.4047 68.3242Z" fill="#222222"/>
<path d="M58.162 68.3242L59.1205 71.2149H62.222L59.7128 73.0015L60.6713 75.8924L58.162 74.1057L55.6528 75.8924L56.6112 73.0015L54.1021 71.2149H57.2036L58.162 68.3242Z" fill="#222222"/>
<path d="M68.9188 68.3242L69.8772 71.2149H72.9788L70.4696 73.0015L71.428 75.8924L68.9188 74.1057L66.4097 75.8924L67.368 73.0015L64.8589 71.2149H67.9605L68.9188 68.3242Z" fill="#222222"/>
<path d="M79.7621 68.3242L80.701 71.2149H83.741L81.2813 73.0015L82.2202 75.8924L79.7621 74.1057L77.3029 75.8924L78.2423 73.0015L75.7832 71.2149H78.8227L79.7621 68.3242Z" fill="#222222"/>
<path d="M41.829 19.5547L42.5392 21.7404H44.8374L42.9782 23.0913L43.6884 25.2768L41.829 23.9261L39.9698 25.2768L40.68 23.0913L38.8208 21.7404H41.119L41.829 19.5547Z" fill="#222222"/>
<path d="M50.0278 19.5508L50.7525 21.7365H53.0974L51.2003 23.0874L51.9249 25.2729L50.0278 23.9221L48.1305 25.2729L48.8553 23.0874L46.958 21.7365H49.3031L50.0278 19.5508Z" fill="#222222"/>
<path d="M58.1611 19.5508L58.8857 21.7365H61.2307L59.3336 23.0874L60.0582 25.2729L58.1611 23.9221L56.2638 25.2729L56.9886 23.0874L55.0913 21.7365H57.4364L58.1611 19.5508Z" fill="#222222"/>
<path d="M66.2959 19.5508L67.0204 21.7365H69.3655L67.4684 23.0874L68.193 25.2729L66.2959 23.9221L64.3986 25.2729L65.1233 23.0874L63.2261 21.7365H65.5711L66.2959 19.5508Z" fill="#222222"/>
<path d="M74.4931 19.5508L75.2033 21.7365H77.5015L75.6423 23.0874L76.3524 25.2729L74.4931 23.9221L72.6339 25.2729L73.3441 23.0874L71.4849 21.7365H73.7829L74.4931 19.5508Z" fill="#222222"/>
<path fill-rule="evenodd" clip-rule="evenodd" d="M9.09576 58.8951C5.96168 39.2864 15.1085 19.8858 33.4198 11.5547L33.5888 11.9262C15.4617 20.1734 6.39053 39.3841 9.49872 58.8307C12.9375 80.345 30.2935 93.2479 51.5474 93.87L51.5353 94.278C30.1158 93.6511 12.5699 80.6314 9.09576 58.8951Z" fill="#222222"/>
<path d="M29.4494 16.5552C26.0655 16.6324 22.105 18.5407 19.7681 21.3124C21.6422 23.0527 24.6575 22.4093 26.8274 22.0534C29.9245 21.5455 33.2179 20.5616 36.1403 19.1688C34.9387 16.6109 31.7018 16.504 29.4494 16.5552Z" fill="#222222"/>
<path d="M26.7882 12.3816C24.7838 15.5039 22.3951 18.607 19.7956 21.3397C17.6207 19.2981 18.9335 15.9006 19.8212 13.7878C21.4291 9.95938 25.2844 6.65795 29.3149 4.96875C30.4211 7.48555 28.0184 10.4652 26.7882 12.3816Z" fill="#222222"/>
<path d="M19.6564 25.3167C16.4878 26.4431 13.765 29.6137 12.3979 32.7969C14.6764 33.8563 17.2665 32.3264 19.1614 31.3079C21.7633 29.9091 24.4178 27.9792 26.5064 25.7458C24.6193 23.7546 21.7538 24.5713 19.6564 25.3167Z" fill="#222222"/>
<path d="M15.8159 22.1933C15.1222 25.7544 13.9594 29.4455 12.4321 32.8097C9.76627 31.5524 9.86778 27.9513 9.98197 25.6597C10.1769 21.7482 12.3651 17.2878 15.4117 14.4531C17.2768 16.4528 16.2577 19.9249 15.8159 22.1933Z" fill="#222222"/>
<path d="M13.56 36.6192C10.9197 38.702 9.31939 42.5621 8.94873 46.009C11.4464 46.2957 13.4428 44.0227 14.9283 42.4633C16.9507 40.34 18.8652 37.6768 20.0811 34.8907C17.7002 33.5918 15.2798 35.2624 13.56 36.6192Z" fill="#222222"/>
<path d="M8.98561 34.862C9.45642 38.4582 9.45743 42.3487 8.98646 46.015C6.08178 45.6582 5.11835 42.1705 4.54925 39.9826C3.5667 36.206 4.22546 31.3277 6.13947 27.6562C8.53139 28.9804 8.68482 32.5635 8.98561 34.862Z" fill="#222222"/>
<path d="M11.4879 48.9556C9.39864 52.0162 8.66392 56.8124 9.6035 60.6675C12.3644 60.0139 13.733 56.888 14.8319 54.6805C16.2924 51.7465 17.5268 48.3236 17.9687 44.9653C14.9742 44.3421 12.8641 46.9394 11.4879 48.9556Z" fill="#222222"/>
<path d="M6.00318 48.6472C7.63095 52.4159 8.90126 56.5639 9.6446 60.6592C6.47821 61.3395 4.1993 58.0145 2.87536 55.8099C0.518294 51.8854 -0.168373 46.4449 0.695079 41.75C3.59316 42.3311 5.01132 46.3515 6.00318 48.6472Z" fill="#222222"/>
<path d="M12.9488 62.2675C11.827 65.9802 12.6067 71.0275 14.878 74.5179C17.374 72.8928 17.7194 69.3161 18.0732 66.7516C18.5396 63.3674 18.7592 59.6185 18.1798 56.1094C14.9873 56.5169 13.6981 59.7872 12.9488 62.2675Z" fill="#222222"/>
<path d="M7.4016 63.8608C10.2024 67.0746 12.786 70.7389 14.9167 74.4978C12.0269 76.3019 8.63587 73.8372 6.57926 72.093C2.93073 68.999 0.56165 63.7402 0 58.7824C3.03629 58.3743 5.71208 61.9219 7.4016 63.8608Z" fill="#222222"/>
<path d="M18.8353 74.9037C19.076 79.2252 21.8895 83.76 25.6356 86.341C27.4448 83.8642 26.3108 80.0691 25.6937 77.42C24.8629 73.8533 23.713 70.1393 22.0042 66.8438C19.0244 68.4184 18.6768 72.0577 18.8353 74.9037Z" fill="#222222"/>
<path d="M13.7975 78.5597C17.856 80.815 21.903 83.4762 25.6657 86.308C23.4123 89.2754 18.9083 88.0922 16.1163 87.1384C11.1961 85.4576 6.80965 81.0269 4.51855 76.1045C7.4234 74.6081 11.4 77.2275 13.7975 78.5597Z" fill="#222222"/>
<path d="M30.3944 85.4673C32.8303 89.9128 38.3814 92.813 43.6088 93.5112C44.1714 90.2793 40.6745 87.0793 38.7689 84.986C36.0559 82.0056 33.2289 78.9128 30.0593 76.3359C27.6846 79.0931 28.9401 82.8131 30.3944 85.4673Z" fill="#222222"/>
<path d="M26.9163 91.0978C32.4535 91.6735 38.0845 92.5023 43.6185 93.458C43.0901 97.5358 36.6192 98.1938 33.6815 98.4346C27.6581 98.9282 20.9576 96.507 16.292 92.4309C18.6093 89.7042 23.9668 90.7913 26.9163 91.0978Z" fill="#222222"/>
<path d="M37.5809 8.12967C33.8634 9.19022 29.512 11.2022 27.3623 14.9162C31.2642 14.4909 35.0992 13.1025 38.8496 12.0447C43.0504 10.8596 47.4738 9.97332 51.541 8.33758C47.0867 6.5555 41.836 6.91567 37.5809 8.12967Z" fill="#222222"/>
<path fill-rule="evenodd" clip-rule="evenodd" d="M109.501 58.8307C112.609 39.3841 103.538 20.1738 85.4114 11.9262L85.5805 11.5547C103.892 19.886 113.039 39.2864 109.904 58.8951C106.431 80.6314 88.8845 93.6511 67.465 94.278L67.4531 93.87C88.7068 93.2479 106.062 80.345 109.501 58.8307Z" fill="#222222"/>
<path d="M89.5511 16.5552C92.9345 16.6324 96.8948 18.5407 99.2328 21.3124C97.3584 23.0527 94.342 22.4093 92.1733 22.0534C89.0757 21.5455 85.7819 20.5616 82.8604 19.1688C84.0615 16.6109 87.2977 16.504 89.5511 16.5552Z" fill="#222222"/>
<path d="M92.2119 12.3816C94.2166 15.5039 96.6053 18.607 99.2037 21.3397C101.379 19.2981 100.067 15.9006 99.1784 13.7878C97.5712 9.95938 93.7158 6.65795 89.6845 4.96875C88.5781 7.48555 90.982 10.4652 92.2119 12.3816Z" fill="#222222"/>
<path d="M99.3439 25.3167C102.512 26.4431 105.234 29.6137 106.601 32.7969C104.323 33.8563 101.733 32.3264 99.8379 31.3079C97.236 29.9091 94.5817 27.9792 92.4941 25.7458C94.3804 23.7546 97.2462 24.5713 99.3439 25.3167Z" fill="#222222"/>
<path d="M103.184 22.1933C103.878 25.7544 105.04 29.4455 106.568 32.8097C109.234 31.5524 109.133 27.9513 109.018 25.6597C108.823 21.7482 106.636 17.2878 103.589 14.4531C101.723 16.4528 102.743 19.9249 103.184 22.1933Z" fill="#222222"/>
<path d="M105.439 36.6192C108.08 38.702 109.68 42.5621 110.051 46.009C107.554 46.2957 105.558 44.0227 104.072 42.4633C102.049 40.34 100.134 37.6768 98.9194 34.8907C101.3 33.5918 103.721 35.2624 105.439 36.6192Z" fill="#222222"/>
<path d="M110.016 34.862C109.544 38.4578 109.544 42.3487 110.015 46.015C112.919 45.6582 113.884 42.1705 114.452 39.9826C115.435 36.206 114.775 31.3277 112.862 27.6562C110.47 28.9804 110.316 32.5635 110.016 34.862Z" fill="#222222"/>
<path d="M107.513 48.9556C109.602 52.0162 110.336 56.8124 109.397 60.6675C106.636 60.0139 105.268 56.8882 104.168 54.6805C102.708 51.7465 101.473 48.3236 101.032 44.9653C104.026 44.3421 106.137 46.9394 107.513 48.9556Z" fill="#222222"/>
<path d="M112.997 48.6472C111.37 52.4159 110.099 56.5639 109.356 60.6592C112.522 61.3395 114.8 58.0145 116.125 55.8099C118.482 51.8854 119.168 46.4449 118.306 41.75C115.408 42.3311 113.988 46.3515 112.997 48.6472Z" fill="#222222"/>
<path d="M106.05 62.2675C107.172 65.9802 106.394 71.0275 104.122 74.5179C101.627 72.8928 101.28 69.3161 100.926 66.7516C100.461 63.3674 100.241 59.6185 100.82 56.1094C104.012 56.5169 105.301 59.7872 106.05 62.2675Z" fill="#222222"/>
<path d="M111.597 63.8608C108.797 67.0748 106.214 70.7389 104.083 74.4978C106.972 76.3019 110.364 73.8372 112.421 72.093C116.068 68.999 118.438 63.7402 119 58.7824C115.963 58.3743 113.287 61.9219 111.597 63.8608Z" fill="#222222"/>
<path d="M100.163 74.9037C99.9228 79.2252 97.1094 83.76 93.364 86.341C91.5539 83.8642 92.689 80.0693 93.3048 77.42C94.1354 73.8533 95.2858 70.1393 96.9944 66.8438C99.9752 68.4184 100.322 72.0577 100.163 74.9037Z" fill="#222222"/>
<path d="M105.203 78.5597C101.144 80.815 97.0978 83.4762 93.3354 86.308C95.5888 89.2754 100.092 88.0922 102.883 87.1384C107.805 85.4576 112.191 81.0269 114.482 76.1045C111.577 74.6081 107.6 77.2275 105.203 78.5597Z" fill="#222222"/>
<path d="M88.6058 85.4673C86.1697 89.9128 80.6192 92.813 75.3911 93.5112C74.8284 90.2793 78.3252 87.0793 80.2318 84.986C82.9436 82.0056 85.7704 78.9128 88.9407 76.3359C91.3159 79.0931 90.0589 82.8131 88.6058 85.4673Z" fill="#222222"/>
<path d="M92.0833 91.0978C86.5463 91.6735 80.9163 92.5023 75.3813 93.458C75.9098 97.5358 82.3813 98.1938 85.3181 98.4346C91.3424 98.9282 98.0432 96.507 102.707 92.4309C100.391 89.7042 95.0337 90.7913 92.0833 91.0978Z" fill="#222222"/>
<path d="M81.4187 8.12967C85.1354 9.19022 89.4882 11.2022 91.6367 14.9162C87.7356 14.4909 83.9005 13.1025 80.1499 12.0447C75.949 10.8596 71.5257 9.97332 67.4585 8.33758C71.913 6.5555 77.1635 6.91567 81.4187 8.12967Z" fill="#222222"/>
<path d="M61.9177 6.20888L60.0103 2L58.1387 6.13055L53.7861 3.43189L56.583 9.3095H63.5387L66.2346 3.43189L61.9177 6.20888Z" fill="#222222"/>
<path d="M63.494 10.2266H56.5273V11.2546H63.494V10.2266Z" fill="#222222"/>
<path d="M60.508 89.75L61.6306 93.2049H65.2633L62.3244 95.34L63.4469 98.7949L60.508 96.6597L57.5692 98.7949L58.6918 95.34L55.7529 93.2049H59.3856L60.508 89.75Z" fill="#222222"/>
</svg>
