<svg width="119" height="60" viewBox="0 0 119 60" fill="none" xmlns="http://www.w3.org/2000/svg">
<path d="M9.27859 12.8987C8.5446 11.0357 8.86325 8.89359 9.53935 7.09198C10.2507 5.19621 11.4893 3.30563 13.3406 2.30859C13.4325 4.30636 12.8214 6.28013 12.1537 8.05994C11.5533 9.66079 10.8166 11.3663 9.60001 12.6902C9.41307 13.6934 9.26981 14.6937 9.16906 15.6895C9.57228 14.6376 10.2261 13.6787 11.0419 12.9077C12.0922 11.9149 13.6545 11.1489 15.1211 11.6019C14.6916 13.221 13.7124 14.773 12.5528 15.8618C11.6401 16.7187 10.4352 17.8169 9.01598 17.86C8.95752 19.3254 8.99056 20.7774 9.1113 22.2097C9.31152 21.1615 9.74049 20.1745 10.3603 19.4395C11.2118 18.4296 12.4744 17.1956 14.0867 17.4021C13.9987 19.0407 13.3442 20.7197 12.4328 21.9813C11.7085 22.9839 10.7523 24.2617 9.39516 24.5918C9.61248 25.9991 9.91518 27.3832 10.2992 28.7374C10.3029 27.7005 10.5322 26.6827 10.9872 25.8663C11.6284 24.7151 12.6271 23.2795 14.2413 23.1672C14.4779 24.7749 14.1573 26.5323 13.5106 27.9301C12.9937 29.0474 12.3045 30.4721 11.0483 31.0616C11.5758 32.5187 12.2001 33.9351 12.9158 35.3021C12.6645 34.1238 12.6746 32.8822 12.972 31.765C13.3818 30.2249 14.399 28.6071 16.0322 28.1376C16.6095 29.8379 16.5299 31.7355 16.1945 33.4637C15.9185 34.8866 15.3762 36.5579 14.1606 37.4822C14.9553 38.7631 15.8345 39.9924 16.7934 41.1621C16.2782 40.0149 16.0222 38.7603 16.1595 37.6117C16.3596 35.9384 16.8304 34.1483 18.5419 33.2561C19.5128 34.9292 19.7377 36.8062 19.8202 38.6601C19.8869 40.1588 19.6707 42.0074 18.6285 43.2266C19.7749 44.4171 21.012 45.5312 22.3332 46.5586C21.4802 45.4658 20.8829 44.1834 20.7564 42.9152C20.5778 41.1234 20.6651 39.1509 22.2573 37.836C23.619 39.2564 24.4315 41.3482 24.8298 43.165C25.1819 44.7714 25.5496 46.6727 24.7111 48.2536C26.3926 49.3497 28.1877 50.3155 30.0855 51.1334C28.7501 50.1829 27.6569 48.879 27.1361 47.5327C26.4536 45.7679 26.0315 43.665 27.3609 41.8975C29.1421 43.0369 30.4512 44.9809 31.4826 46.7539C32.3676 48.2753 33.2836 50.3751 32.8291 52.1869C33.8799 52.543 34.9578 52.8557 36.0615 53.1225L35.9959 53.3931C34.8881 53.1252 33.806 52.8115 32.7509 52.4544C32.0117 54.636 29.5903 55.3567 27.6319 55.6749C24.8417 56.1283 21.5193 55.2498 19.1372 53.4803C20.3944 51.7058 22.9596 51.5258 24.8939 51.39L24.9191 51.3882C27.0381 51.2395 29.33 51.4382 31.4609 51.9911C28.9992 51.0552 26.6958 49.8786 24.5718 48.4952L24.5405 48.5446C23.3766 50.4294 21.0398 50.5029 19.2056 50.3837C16.7166 50.2219 13.8431 48.7105 12.18 46.6212C13.7443 45.2505 16.0549 45.6341 17.8452 45.9314L17.8538 45.9327C19.852 46.2645 22.0355 46.9882 23.8683 48.1024C23.6937 47.9651 23.5229 47.8199 23.3568 47.6676C21.5748 46.3987 19.931 44.9793 18.4394 43.4318C18.422 43.4491 18.4045 43.4663 18.3868 43.4834C16.9364 44.9406 14.824 44.559 13.1754 44.0847C10.9693 43.4501 8.6814 41.5356 7.58498 39.3376C9.28402 38.3868 11.3153 39.1703 12.8954 39.79C14.6295 40.4702 16.4643 41.5583 17.8751 42.9453C17.7296 42.7621 17.5909 42.5707 17.4598 42.3726C16.1484 40.8945 14.9688 39.3117 13.9318 37.642L13.8798 37.6746C12.239 38.7321 10.38 37.9662 8.90657 37.2131C6.90887 36.1921 5.30353 33.9481 4.60986 31.7412C6.38204 31.1744 8.13296 32.287 9.49406 33.1682C10.9827 34.1319 12.4906 35.5064 13.5257 37.0826C13.4497 36.9273 13.3789 36.7686 13.3136 36.6068C12.3191 34.8739 11.4742 33.0548 10.7902 31.1677L10.755 31.1797L10.7521 31.1807C9.26022 31.7471 7.59884 30.8665 6.51571 29.9007C5.0103 28.5586 3.94924 26.4952 3.70049 24.4793C5.25593 24.2781 6.72136 25.4799 7.72327 26.505C8.87653 27.6848 9.9116 29.0792 10.548 30.628C10.5015 30.4598 10.4617 30.2889 10.4282 30.1163C9.8491 28.3429 9.41041 26.5141 9.12123 24.6444L9.0987 24.6472L9.09108 24.6484C7.51381 24.9114 6.05554 23.7138 5.1843 22.5516C3.96195 20.9206 3.33183 18.6633 3.48976 16.6174C5.06091 16.7272 6.25726 18.2199 7.03307 19.4274C7.931 20.8253 8.67562 22.4073 9.00177 24.0624C8.99183 23.9307 8.98594 23.7983 8.98386 23.6655C8.74436 21.7626 8.65898 19.8206 8.73708 17.8547L8.73258 17.8545C7.12896 17.7968 5.94382 16.3098 5.33195 14.9909C4.45643 13.1034 4.31548 10.7176 4.89985 8.7069C6.42825 9.13532 7.28031 10.8863 7.78323 12.2341C8.3631 13.7881 8.76781 15.483 8.77105 17.1681C8.85447 15.7544 9.02245 14.3295 9.27859 12.8987Z" fill="#222222"/>
<path d="M40.8626 9.41016V16.1599C40.8626 19.1287 38.1704 20.557 34.0901 20.557C30.2762 20.557 27.542 19.1427 27.542 15.8098V9.41016H31.3419V15.8098C31.3419 17.0002 32.3654 17.7423 34.2443 17.7423C36.0392 17.7423 37.1049 16.9721 37.1049 15.8238V9.41016H40.8626Z" fill="#222222"/>
<path d="M53.5179 17.4762V20.403H43.0156V9.41016H46.8155V17.4762H53.5179Z" fill="#222222"/>
<path d="M64.8108 12.1689V9.41016H51.6724V12.1689H56.3136V20.403H60.1556V12.1689H64.8108Z" fill="#222222"/>
<path fill-rule="evenodd" clip-rule="evenodd" d="M78.2893 10.5305C78.7942 11.0486 79.0333 11.7628 79.0333 12.757C79.0333 13.6113 78.8231 14.3395 78.4718 14.8295C78.079 15.3617 77.4759 15.8098 76.7331 15.9219L80.057 20.403H75.8781L73.1434 16.524H69.7366V20.403H65.9927V9.41016H74.7563C76.4951 9.41016 77.6308 9.83027 78.2893 10.5305ZM75.2612 13.6813C75.3594 13.5132 75.3871 13.2892 75.3871 13.1072C75.3871 12.8971 75.3594 12.673 75.2612 12.533C75.0647 12.1689 74.6719 12.0709 74.0827 12.0709H69.7505V14.0734H74.1532C74.7563 14.0734 75.1214 13.9614 75.2612 13.6813Z" fill="#222222"/>
<path fill-rule="evenodd" clip-rule="evenodd" d="M85.1151 18.3725H91.0605L92.0275 20.403H96.0804L90.5279 9.41016H85.9989L80.124 20.403H84.0915L85.1151 18.3725ZM89.8682 15.9078H86.349L87.7377 13.2612L88.1583 12.2529L88.5511 13.2472L89.8682 15.9078Z" fill="#222222"/>
<path fill-rule="evenodd" clip-rule="evenodd" d="M77.8885 22.4727C75.5362 22.4727 74.2988 23.5861 74.2988 25.2223C74.2988 27.069 75.5974 28.0058 77.8885 28.0058C80.4106 28.0058 81.4712 26.9196 81.4712 25.2223C81.4712 23.4978 80.2742 22.4727 77.8885 22.4727ZM77.8885 26.6413C76.5494 26.6413 76.1612 26.0913 76.1612 25.2427C76.1612 24.4077 76.5829 23.8577 77.8815 23.8577C79.3026 23.8577 79.6215 24.4755 79.6215 25.2427C79.6215 26.0574 79.2344 26.6413 77.8885 26.6413Z" fill="#222222"/>
<path d="M70.8123 27.9245V24.7675H67.2638V25.9149H69.1604C69.1469 26.0032 69.0789 26.1729 68.9905 26.2747C68.7934 26.5056 68.2699 26.7092 67.5901 26.7092C66.8831 26.7092 66.4277 26.5259 66.183 26.2408C66.0199 26.0303 65.9247 25.7316 65.9247 25.2835C65.9247 24.8151 66.0199 24.496 66.2033 24.2856C66.4685 23.9868 66.9171 23.8578 67.5766 23.8578C68.168 23.8578 68.5758 23.9935 68.7662 24.1633C68.8886 24.2652 68.9837 24.4078 69.0041 24.5027H70.7647C70.758 24.333 70.7036 24.0615 70.6084 23.8647C70.187 23.0092 69.208 22.5 67.5426 22.5C66.0946 22.5 65.1225 22.9412 64.5855 23.6067C64.232 24.0615 64.0688 24.6317 64.0688 25.2699C64.0688 25.9761 64.2591 26.5802 64.5719 26.9808C65.1021 27.6666 66.047 28.0059 67.1823 28.0059C68.1816 28.0059 68.8681 27.7683 69.3032 27.4086L69.3508 27.9245H70.8123Z" fill="#222222"/>
<path d="M52.2944 24.7017C53.6744 24.851 54.2658 25.3399 54.2658 26.27C54.2658 27.397 53.1645 28.0079 50.9959 28.0079C48.977 28.0079 48.1069 27.4377 47.7737 26.6909C47.6989 26.5144 47.665 26.2971 47.6445 26.1613H49.6024C49.616 26.2428 49.6636 26.365 49.7315 26.4464C49.8947 26.6434 50.3501 26.7588 51.1251 26.7588C52.1245 26.7588 52.3624 26.6162 52.3624 26.3515C52.3624 26.0662 52.1177 26.0052 51.2135 25.9101C50.8533 25.8762 50.2822 25.8219 50.0443 25.8015C48.3176 25.6453 47.6786 25.109 47.6786 24.1925C47.6786 23.242 48.807 22.5156 50.8668 22.5156C52.6954 22.5156 53.5452 23.0587 53.8987 23.7377C54.0074 23.9413 54.0754 24.1721 54.0958 24.335H52.138C52.1312 24.2604 52.104 24.1857 52.0293 24.0906C51.8797 23.8938 51.499 23.7648 50.8192 23.7648C49.8607 23.7648 49.6092 23.8802 49.6092 24.1245C49.6092 24.3962 49.9288 24.4573 50.9959 24.5727C51.4106 24.6066 52.0701 24.6745 52.2944 24.7017Z" fill="#222222"/>
<path fill-rule="evenodd" clip-rule="evenodd" d="M32.7778 23.0486C33.1381 23.3337 33.342 23.8158 33.342 24.515C33.342 25.0854 33.1993 25.513 32.9273 25.8117C32.5603 26.2326 31.9552 26.4228 31.1667 26.4296C30.9219 26.4364 28.8282 26.4296 28.8282 26.4296V27.9231H26.9995V22.5938H31.1394C31.8737 22.5938 32.4311 22.7431 32.7778 23.0486ZM31.425 24.9291C31.4793 24.8342 31.5066 24.7119 31.5066 24.5421C31.5066 24.3657 31.4725 24.2163 31.4114 24.1348C31.2959 23.9651 31.0783 23.8836 30.7248 23.8836H28.8145V25.1871H30.7112C31.0918 25.1871 31.3162 25.0989 31.425 24.9291Z" fill="#222222"/>
<path fill-rule="evenodd" clip-rule="evenodd" d="M40.0316 23.1369C40.2764 23.3881 40.392 23.7343 40.392 24.2163C40.392 24.6304 40.2899 24.9835 40.12 25.2211C39.9297 25.4791 39.6374 25.6963 39.2771 25.7507L40.8882 27.9231H38.8624L37.5368 26.0426H35.8849V27.9231H34.0698V22.5938H38.3186C39.1615 22.5938 39.7122 22.7974 40.0316 23.1369ZM38.5633 24.6644C38.6109 24.583 38.6244 24.4743 38.6244 24.386C38.6244 24.2843 38.6109 24.1756 38.5633 24.1077C38.4681 23.9312 38.2778 23.8836 37.9923 23.8836H35.8917V24.8545H38.0263C38.3186 24.8545 38.4954 24.8001 38.5633 24.6644Z" fill="#222222"/>
<path d="M47.0936 27.9231V26.5993H43.2664V25.9068H46.9372V24.6101H43.2664V23.9244H47.046V22.5938H41.4717V27.9231H47.0936Z" fill="#222222"/>
<path d="M60.8809 23.9312V22.5938H54.5112V23.9312H56.7613V27.9231H58.6239V23.9312H60.8809Z" fill="#222222"/>
<path d="M63.3299 22.5938V27.9231H61.4604V22.5938H63.3299Z" fill="#222222"/>
<path d="M73.5607 22.5938V27.9231H71.6909V22.5938H73.5607Z" fill="#222222"/>
<path d="M88.6839 22.5938V25.8661C88.6839 27.3054 87.3784 27.9979 85.4005 27.9979C83.5519 27.9979 82.2256 27.3122 82.2256 25.6963V22.5938H84.0684V25.6963C84.0684 26.2734 84.564 26.6333 85.4756 26.6333C86.3455 26.6333 86.862 26.2599 86.862 25.7031V22.5938H88.6839Z" fill="#222222"/>
<path d="M96.0226 26.27C96.0226 25.3399 95.4311 24.851 94.0516 24.7017C93.8263 24.6745 93.1678 24.6066 92.753 24.5727C91.6855 24.4573 91.3655 24.3962 91.3655 24.1245C91.3655 23.8802 91.6173 23.7648 92.5762 23.7648C93.2556 23.7648 93.6368 23.8938 93.7859 24.0906C93.861 24.1857 93.8876 24.2604 93.8945 24.335H95.8528C95.832 24.1721 95.7638 23.9413 95.6552 23.7377C95.3017 23.0587 94.4525 22.5156 92.6236 22.5156C90.5636 22.5156 89.4349 23.242 89.4349 24.1925C89.4349 25.109 90.0749 25.6453 91.801 25.8015L91.9119 25.8114L92.0968 25.8282L92.9702 25.9101C93.8748 26.0052 94.1186 26.0662 94.1186 26.3515C94.1186 26.6162 93.8818 26.7588 92.8824 26.7588C92.1072 26.7588 91.652 26.6434 91.4879 26.4464C91.4209 26.365 91.3724 26.2428 91.3597 26.1613H89.4014C89.4222 26.2971 89.4557 26.5144 89.5308 26.6909C89.8635 27.4377 90.7335 28.0079 92.753 28.0079C94.9216 28.0079 96.0226 27.397 96.0226 26.27Z" fill="#222222"/>
<path fill-rule="evenodd" clip-rule="evenodd" d="M48.4856 29.9648C46.9569 29.9648 46.1528 30.6885 46.1528 31.7519C46.1528 32.952 46.9967 33.5609 48.4856 33.5609C50.1248 33.5609 50.8139 32.855 50.8139 31.7519C50.8139 30.6312 50.0364 29.9648 48.4856 29.9648ZM48.4856 32.6741C47.6153 32.6741 47.3634 32.3166 47.3634 31.7651C47.3634 31.2224 47.6373 30.865 48.4812 30.865C49.4045 30.865 49.6123 31.2665 49.6123 31.7651C49.6123 32.2946 49.3604 32.6741 48.4856 32.6741Z" fill="#222222"/>
<path d="M39.9844 32.4322C39.9844 31.8277 39.6001 31.51 38.7032 31.4129C38.5574 31.3953 38.1289 31.3512 37.8593 31.3292C37.1656 31.254 36.958 31.2143 36.958 31.0379C36.958 30.879 37.1215 30.804 37.7445 30.804C38.1863 30.804 38.4336 30.8878 38.5309 31.0158C38.5794 31.0776 38.5971 31.1261 38.6016 31.1747H39.874C39.8607 31.0687 39.8166 30.9187 39.7459 30.7864C39.5161 30.3452 38.9638 29.9922 37.7753 29.9922C36.4367 29.9922 35.7033 30.4642 35.7033 31.082C35.7033 31.6777 36.1186 32.0263 37.2407 32.1277C37.3954 32.141 37.7665 32.1763 38.0007 32.1983C38.5883 32.2601 38.7473 32.2999 38.7473 32.4852C38.7473 32.6572 38.5927 32.7499 37.9433 32.7499C37.4396 32.7499 37.1436 32.6749 37.0375 32.5469C36.9934 32.494 36.9624 32.4146 36.9536 32.3616H35.6812C35.6944 32.4499 35.7165 32.591 35.7651 32.7058C35.9817 33.1911 36.5472 33.5617 37.8593 33.5617C39.2687 33.5617 39.9844 33.1647 39.9844 32.4322Z" fill="#222222"/>
<path fill-rule="evenodd" clip-rule="evenodd" d="M31.1629 32.5272C31.1629 32.7655 31.0965 32.9994 30.964 33.1537C30.7608 33.4009 30.3808 33.5067 29.8905 33.5067H26.811V30.043H29.8065C30.2836 30.043 30.5885 30.1578 30.7564 30.3298C30.9066 30.4798 30.9729 30.6784 30.9729 30.9034C30.9729 31.1285 30.9199 31.3138 30.805 31.4505C30.7122 31.5654 30.5532 31.6535 30.3853 31.6757C30.6327 31.7065 30.8669 31.83 30.9994 32.0021C31.1098 32.13 31.1629 32.3242 31.1629 32.5272ZM29.674 31.3138C29.7181 31.2652 29.7447 31.1946 29.7447 31.1109C29.7447 31.027 29.7181 30.9564 29.6607 30.9079C29.5989 30.8504 29.4839 30.8284 29.316 30.8284H27.9686V31.3932H29.347C29.4972 31.3932 29.6122 31.3712 29.674 31.3138ZM29.4751 32.7214C29.6827 32.7214 29.8065 32.6949 29.8772 32.6287C29.9213 32.5845 29.939 32.5184 29.939 32.4345C29.939 32.3463 29.9169 32.2802 29.8639 32.2272C29.7977 32.1699 29.6827 32.1433 29.4884 32.1433H27.9686V32.7214H29.4751Z" fill="#222222"/>
<path d="M35.3232 32.6464V33.5067H31.6694V30.043H35.2922V30.9079H32.8357V31.3535H35.2215V32.1963H32.8357V32.6464H35.3232Z" fill="#222222"/>
<path d="M44.2837 30.043V30.9123H42.8169V33.5067H41.6065V30.9123H40.144V30.043H44.2837Z" fill="#222222"/>
<path d="M54.8568 30.043V30.921H52.502V31.4109H54.7463V32.2802H52.502V33.5067H51.3135V30.043H54.8568Z" fill="#222222"/>
<path d="M60.8433 30.9123V30.043H56.7036V30.9123H58.166V33.5067H59.3766V30.9123H60.8433Z" fill="#222222"/>
<path d="M65.3595 30.043V33.5067H64.1754V32.2492H62.3993V33.5067H61.2153V30.043H62.3993V31.3049H64.1754V30.043H65.3595Z" fill="#222222"/>
<path d="M69.7148 33.5067V32.6464H67.2274V32.1963H69.6131V31.3535H67.2274V30.9079H69.6838V30.043H66.061V33.5067H69.7148Z" fill="#222222"/>
<path d="M77.0391 30.043H78.1829L76.9155 33.5067H75.6169C75.6169 33.5067 74.9226 31.4374 74.9179 31.3799C74.9145 31.4374 74.2155 33.5067 74.2155 33.5067H72.9215L71.6226 30.043H72.9076C72.9076 30.043 73.6598 32.2227 73.6598 32.2757C73.6598 32.2227 74.353 30.043 74.353 30.043H75.595C75.595 30.043 76.2928 32.2227 76.2928 32.2757C76.2928 32.2227 77.0391 30.043 77.0391 30.043Z" fill="#222222"/>
<path fill-rule="evenodd" clip-rule="evenodd" d="M80.4523 29.9648C78.9238 29.9648 78.1196 30.6885 78.1196 31.7519C78.1196 32.952 78.963 33.5609 80.4523 33.5609C82.0917 33.5609 82.7803 32.855 82.7803 31.7519C82.7803 30.6312 82.0027 29.9648 80.4523 29.9648ZM80.4523 32.6741C79.5823 32.6741 79.3304 32.3166 79.3304 31.7651C79.3304 31.2224 79.6042 30.865 80.4476 30.865C81.3719 30.865 81.5787 31.2665 81.5787 31.7651C81.5787 32.2946 81.3269 32.6741 80.4523 32.6741Z" fill="#222222"/>
<path fill-rule="evenodd" clip-rule="evenodd" d="M87.1553 30.396C87.3136 30.5593 87.3887 30.7843 87.3887 31.0976C87.3887 31.3668 87.3228 31.5962 87.2119 31.7507C87.0883 31.9183 86.8988 32.0595 86.6643 32.0947L87.711 33.5067H86.3951L85.5332 32.2845H84.4599V33.5067H83.2803V30.043H86.0415C86.5892 30.043 86.9473 30.1754 87.1553 30.396ZM86.201 31.3888C86.231 31.3359 86.2403 31.2652 86.2403 31.2079C86.2403 31.1417 86.231 31.0712 86.201 31.027C86.1386 30.9123 86.015 30.8814 85.829 30.8814H84.4645V31.5124H85.8509C86.0415 31.5124 86.1559 31.4771 86.201 31.3888Z" fill="#222222"/>
<path d="M91.4002 33.5067V32.5845H89.2882V30.043H88.0913V33.5067H91.4002Z" fill="#222222"/>
<path fill-rule="evenodd" clip-rule="evenodd" d="M96.0848 31.7109C96.0848 32.2492 96.0317 32.5405 95.8734 32.814C95.6342 33.2508 95.1617 33.5067 94.3264 33.5067H91.8701V30.043H94.2998C95.1305 30.043 95.6215 30.2769 95.8641 30.6784C96.0363 30.9476 96.0848 31.2343 96.0848 31.7109ZM94.1011 32.6552C94.4766 32.6552 94.6891 32.5669 94.8174 32.3728C94.8971 32.2536 94.9191 31.9757 94.9191 31.733C94.9144 31.5124 94.8879 31.2785 94.8174 31.1726C94.6799 30.9652 94.4731 30.8902 94.1103 30.8902H93.0543V32.6552H94.1011Z" fill="#222222"/>
<path d="M48.6915 50.3516H46.8608C46.8608 50.3516 45.6661 53.8391 45.6661 53.9238C45.6661 53.8391 44.5493 50.3516 44.5493 50.3516H42.5629C42.5629 50.3516 41.4531 53.8391 41.4531 53.9238C41.4531 53.8391 40.2514 50.3516 40.2514 50.3516H38.1943L40.2726 55.8934H42.3437C42.3437 55.8934 43.4606 52.5824 43.4677 52.4907C43.4748 52.5824 44.5845 55.8934 44.5845 55.8934H46.6627L48.6915 50.3516Z" fill="#222222"/>
<path d="M51.1969 55.8934V50.3516H49.2529V55.8934H51.1969Z" fill="#222222"/>
<path d="M58.758 50.3516V55.8934H56.8635L54.1137 52.8083V55.8934H52.29V50.3516H54.2833L56.9483 53.3661V50.3516H58.758Z" fill="#222222"/>
<path d="M66.3307 55.8934V50.3516H64.5211V53.3661L61.8562 50.3516H59.8628V55.8934H61.6865V52.8083L64.4363 55.8934H66.3307Z" fill="#222222"/>
<path d="M73.282 54.5167V55.8934H67.4355V50.3516H73.2324V51.7353H69.3018V52.4483H73.1191V53.7967H69.3018V54.5167H73.282Z" fill="#222222"/>
<path fill-rule="evenodd" clip-rule="evenodd" d="M80.7536 52.0388C80.7536 51.5376 80.6334 51.1776 80.3792 50.9164C80.0465 50.5634 79.4746 50.3516 78.5977 50.3516H74.1797V55.8934H76.0675V53.9378H77.7855L79.1638 55.8934H81.27L79.5948 53.6344C79.9691 53.5778 80.2729 53.3519 80.4717 53.0836C80.6473 52.8366 80.7536 52.4694 80.7536 52.0388ZM78.9154 52.2154C78.9154 52.3071 78.9016 52.4201 78.8519 52.5048C78.7814 52.646 78.5977 52.7024 78.2938 52.7024H76.0744V51.6929H78.258C78.555 51.6929 78.7537 51.7423 78.8519 51.9259C78.9016 51.9965 78.9154 52.1094 78.9154 52.2154Z" fill="#222222"/>
<path d="M43.0473 40.579L42.2807 38.2227L41.5141 40.579H39.0332L41.0403 42.0353L40.2737 44.3917L42.2807 42.9354L44.2877 44.3917L43.5211 42.0353L45.5282 40.579H43.0473Z" fill="#222222"/>
<path d="M51.1311 38.2188L51.9134 40.5751H54.4449L52.3969 42.0315L53.1792 44.3878L51.1311 42.9315L49.0832 44.3878L49.8655 42.0315L47.8174 40.5751H50.3488L51.1311 38.2188Z" fill="#222222"/>
<path d="M60.6937 40.5751L59.9115 38.2188L59.1292 40.5751H56.5977L58.6457 42.0315L57.8634 44.3878L59.9115 42.9315L61.9595 44.3878L61.1772 42.0315L63.2253 40.5751H60.6937Z" fill="#222222"/>
<path d="M68.6917 38.2188L69.474 40.5751H72.0054L69.9575 42.0315L70.7397 44.3878L68.6917 42.9315L66.6437 44.3878L67.426 42.0315L65.3779 40.5751H67.9095L68.6917 38.2188Z" fill="#222222"/>
<path d="M78.3087 40.5751L77.5416 38.2188L76.7745 40.5751H74.2939L76.3008 42.0315L75.5348 44.3878L77.5416 42.9315L79.5484 44.3878L78.7824 42.0315L80.7893 40.5751H78.3087Z" fill="#222222"/>
<path d="M110.495 12.9497C111.228 11.0868 110.909 8.94449 110.233 7.14287C109.522 5.24722 108.283 3.35641 106.432 2.35938C106.34 4.35726 106.951 6.33091 107.619 8.11072C108.22 9.71145 108.956 11.4168 110.172 12.7406C110.359 13.7436 110.503 14.7437 110.603 15.7393C110.2 14.6878 109.547 13.7294 108.731 12.9586C107.681 11.9657 106.118 11.1998 104.652 11.6528C105.082 13.2718 106.06 14.8239 107.22 15.9127C108.133 16.7696 109.338 17.8676 110.757 17.9109C110.816 19.3764 110.782 20.8285 110.661 22.2609C110.461 21.2128 110.032 20.2258 109.412 19.4908C108.56 18.4807 107.298 17.2469 105.686 17.4533C105.774 19.092 106.429 20.771 107.34 22.0326C108.064 23.0351 109.02 24.313 110.378 24.6431C110.161 26.0503 109.858 27.4341 109.473 28.7882C109.47 27.7514 109.241 26.7336 108.786 25.9172C108.145 24.7661 107.145 23.3304 105.531 23.2181C105.294 24.8258 105.616 26.5832 106.263 27.981C106.779 29.0983 107.469 30.523 108.725 31.1125C108.197 32.5698 107.573 33.9865 106.856 35.3537C107.108 34.1752 107.098 32.9333 106.801 31.8158C106.391 30.2756 105.374 28.6577 103.74 28.1883C103.163 29.8889 103.242 31.7863 103.579 33.5145C103.855 34.9375 104.397 36.6088 105.612 37.5331C104.817 38.8147 103.938 40.0446 102.978 41.2148C103.494 40.0672 103.75 38.8119 103.612 37.6628C103.412 35.9893 102.942 34.1993 101.231 33.3074C100.259 34.9805 100.034 36.8574 99.952 38.7113C99.885 40.2101 100.101 42.0588 101.144 43.2782C99.9971 44.4683 98.7609 45.5821 97.4403 46.6093C98.293 45.5164 98.8903 44.2342 99.0162 42.9661C99.1953 41.1743 99.1086 39.2019 97.5154 37.8869C96.1544 39.3073 95.3411 41.3991 94.9436 43.2159C94.5913 44.8222 94.2239 46.7236 95.0615 48.3045C93.3805 49.4009 91.5851 50.3668 89.6868 51.1848C91.0224 50.2343 92.1154 48.9301 92.6364 47.5836C93.3192 45.8189 93.7409 43.7159 92.4123 41.9484C90.6308 43.0878 89.3218 45.0317 88.29 46.8048C87.405 48.3263 86.4889 50.4262 86.9441 52.2381C85.8927 52.5941 84.8148 52.9068 83.7114 53.1736L83.7773 53.4442C84.8841 53.1764 85.9666 52.8626 87.0215 52.5055C87.7609 54.687 90.1825 55.4079 92.1408 55.726C94.9309 56.1794 98.2537 55.3011 100.636 53.5314C99.3778 51.7569 96.813 51.5769 94.8789 51.4411L94.8535 51.4394C92.7346 51.2906 90.4424 51.4893 88.312 52.0424C90.7729 51.1065 93.0766 49.9296 95.2013 48.5461L95.2302 48.5923C96.3936 50.4802 98.732 50.554 100.567 50.4347C103.056 50.2729 105.93 48.7615 107.592 46.6723C106.028 45.3017 103.718 45.6851 101.928 45.9823L101.918 45.9839C99.9208 46.3155 97.7384 47.0388 95.906 48.1528C96.0805 48.0156 96.2503 47.8705 96.4167 47.7183C98.1982 46.4497 99.8411 45.0306 101.333 43.4833C101.353 43.5039 101.374 43.5242 101.395 43.5444C102.846 44.9903 104.952 44.6088 106.598 44.1356C108.804 43.501 111.092 41.5865 112.188 39.3885C110.489 38.4377 108.458 39.2211 106.878 39.8409C105.142 40.5217 103.306 41.611 101.894 42.9999C102.04 42.8164 102.18 42.6247 102.311 42.4262C103.623 40.9473 104.803 39.3637 105.841 37.6929L105.886 37.7207L105.897 37.728C107.537 38.7817 109.395 38.0166 110.867 37.264C112.864 36.243 114.47 33.999 115.163 31.7921C113.391 31.2253 111.641 32.3379 110.28 33.2191C108.789 34.1834 107.28 35.5588 106.245 37.1362C106.321 36.9805 106.393 36.8213 106.459 36.6592C107.454 34.9258 108.298 33.1061 108.982 31.2186L109.018 31.2306L109.024 31.2329C110.515 31.7968 112.176 30.9167 113.258 29.9516C114.762 28.6095 115.824 26.5461 116.072 24.5302C114.517 24.329 113.051 25.5308 112.05 26.5558C110.897 27.7364 109.86 29.1317 109.224 30.6818C109.271 30.5126 109.311 30.3408 109.345 30.1672C109.924 28.394 110.363 26.5652 110.652 24.6958L110.696 24.7015C112.267 24.9556 113.72 23.7615 114.589 22.6025C115.811 20.9715 116.441 18.7142 116.283 16.6682C114.713 16.7781 113.516 18.2707 112.74 19.4783C111.842 20.8769 111.096 22.4598 110.771 24.116C110.781 23.9835 110.787 23.8503 110.789 23.7167C111.028 21.8137 111.114 19.8716 111.035 17.9057C112.64 17.8495 113.829 16.3615 114.441 15.042C115.316 13.1546 115.457 10.7687 114.873 8.75814C113.345 9.18657 112.492 10.9373 111.99 12.2851C111.41 13.8391 111.005 15.5342 111.002 17.2193C110.919 15.8056 110.75 14.3806 110.495 12.9497Z" fill="#222222"/>
</svg>
