<svg width="166" height="40" viewBox="0 0 166 40" fill="none" xmlns="http://www.w3.org/2000/svg">
<g clip-path="url(#clip0_351_21709)">
<path d="M50.0708 28.6087H61.7416V25.0965H54.2188V11.8672H50.0708V28.6087Z" fill="#222222"/>
<path d="M68.6561 26.2637C66.9922 26.2637 66.1251 24.812 66.1251 22.6344C66.1251 20.4569 66.9922 18.9817 68.6561 18.9817C70.32 18.9817 71.2106 20.4569 71.2106 22.6344C71.2106 24.812 70.32 26.2637 68.6561 26.2637ZM68.6796 28.9798C72.5464 28.9798 75.0774 26.2403 75.0774 22.6344C75.0774 19.0286 72.5464 16.2891 68.6796 16.2891C64.8362 16.2891 62.2583 19.0286 62.2583 22.6344C62.2583 26.2403 64.8362 28.9798 68.6796 28.9798Z" fill="#222222"/>
<path d="M81.7704 32.7495C83.5515 32.7495 85.1217 32.3515 86.1763 31.4149C87.1371 30.5486 87.7699 29.2373 87.7699 27.4344V16.6168H84.114V17.9046H84.0671C83.364 16.8978 82.286 16.2656 80.6924 16.2656C77.7161 16.2656 75.6538 18.7476 75.6538 22.2598C75.6538 25.9359 78.1614 27.9495 80.8564 27.9495C82.3094 27.9495 83.2234 27.3642 83.9265 26.5681H84.0202V27.7622C84.0202 29.2139 83.3406 30.0568 81.7236 30.0568C80.458 30.0568 79.8253 29.5183 79.6144 28.8861H75.9116C76.2866 31.3915 78.466 32.7495 81.7704 32.7495ZM81.747 25.1164C80.3174 25.1164 79.38 23.9456 79.38 22.1427C79.38 20.3164 80.3174 19.1456 81.747 19.1456C83.3406 19.1456 84.1843 20.5037 84.1843 22.1193C84.1843 23.8051 83.4109 25.1164 81.747 25.1164Z" fill="#222222"/>
<path d="M95.2875 26.2637C93.6236 26.2637 92.7565 24.812 92.7565 22.6344C92.7565 20.4569 93.6236 18.9817 95.2875 18.9817C96.9514 18.9817 97.8415 20.4569 97.8415 22.6344C97.8415 24.812 96.9514 26.2637 95.2875 26.2637ZM95.3109 28.9798C99.1773 28.9798 101.708 26.2403 101.708 22.6344C101.708 19.0286 99.1773 16.2891 95.3109 16.2891C91.4675 16.2891 88.8896 19.0286 88.8896 22.6344C88.8896 26.2403 91.4675 28.9798 95.3109 28.9798Z" fill="#222222"/>
<path d="M102.824 28.6087H106.644V16.6204H102.824V28.6087ZM102.824 14.9579H106.644V11.8672H102.824V14.9579Z" fill="#222222"/>
<path d="M108.301 32.5622H112.121V27.3642H112.168C112.918 28.371 114.019 28.9798 115.566 28.9798C118.707 28.9798 120.792 26.4978 120.792 22.611C120.792 19.0051 118.847 16.2656 115.66 16.2656C114.019 16.2656 112.848 16.9915 112.027 18.0686H111.957V16.6168H108.301V32.5622ZM114.582 26.0295C112.941 26.0295 112.004 24.6949 112.004 22.7515C112.004 20.8081 112.848 19.3329 114.512 19.3329C116.152 19.3329 116.925 20.691 116.925 22.7515C116.925 24.7886 116.035 26.0295 114.582 26.0295Z" fill="#222222"/>
<path d="M127.012 28.9798C130.152 28.9798 132.472 27.6217 132.472 24.9993C132.472 21.932 129.988 21.3934 127.879 21.0422C126.355 20.7612 124.996 20.6442 124.996 19.8012C124.996 19.052 125.723 18.7007 126.66 18.7007C127.715 18.7007 128.441 19.0286 128.582 20.1056H132.097C131.91 17.7407 130.082 16.2656 126.684 16.2656C123.848 16.2656 121.504 17.5768 121.504 20.1056C121.504 22.9154 123.731 23.4773 125.816 23.8286C127.41 24.1095 128.863 24.2266 128.863 25.3037C128.863 26.0764 128.137 26.4978 126.988 26.4978C125.723 26.4978 124.926 25.9125 124.785 24.7183H121.176C121.293 27.3642 123.496 28.9798 127.012 28.9798Z" fill="#222222"/>
<path d="M137.661 28.9567C139.325 28.9567 140.379 28.3011 141.246 27.1304H141.317V28.6055H144.973V16.6172H141.153V23.3138C141.153 24.7421 140.356 25.7255 139.043 25.7255C137.825 25.7255 137.239 24.9996 137.239 23.6884V16.6172H133.442V24.4845C133.442 27.1538 134.895 28.9567 137.661 28.9567Z" fill="#222222"/>
<path d="M146.635 28.6051H150.455V21.8851C150.455 20.4568 151.158 19.45 152.353 19.45C153.501 19.45 154.04 20.1993 154.04 21.4871V28.6051H157.86V21.8851C157.86 20.4568 158.54 19.45 159.759 19.45C160.907 19.45 161.446 20.1993 161.446 21.4871V28.6051H165.266V20.8081C165.266 18.1154 163.907 16.2656 161.188 16.2656C159.641 16.2656 158.352 16.9212 157.415 18.3729H157.368C156.759 17.0851 155.564 16.2656 153.993 16.2656C152.259 16.2656 151.111 17.0851 150.361 18.3261H150.291V16.6168H146.635V28.6051Z" fill="#222222"/>
<path fill-rule="evenodd" clip-rule="evenodd" d="M19.6285 39.3368C30.4144 39.3368 39.1579 30.6009 39.1579 19.8247C39.1579 9.0484 30.4144 0.3125 19.6285 0.3125C8.84272 0.3125 0.0991211 9.0484 0.0991211 19.8247C0.0991211 30.6009 8.84272 39.3368 19.6285 39.3368ZM22.6429 15.3882C24.3075 13.7248 24.3075 11.0282 22.6429 9.36485C20.9781 7.70155 18.279 7.70155 16.6142 9.36485C14.9495 11.0282 14.9495 13.7248 16.6142 15.3882L19.6285 18.3998L22.6429 15.3882ZM24.069 22.8364C25.7338 24.4997 28.4328 24.4997 30.0976 22.8364C31.7623 21.173 31.7623 18.4764 30.0976 16.813C28.4328 15.1498 25.7338 15.1498 24.069 16.813L21.0547 19.8248L24.069 22.8364ZM22.6429 30.2846C24.3075 28.6212 24.3075 25.9246 22.6429 24.2612L19.6285 21.2496L16.6142 24.2612C14.9495 25.9246 14.9495 28.6212 16.6142 30.2846C18.279 31.9479 20.9781 31.9479 22.6429 30.2846ZM9.15943 22.8364C7.4947 21.173 7.4947 18.4764 9.15943 16.813C10.8242 15.1498 13.5233 15.1498 15.1881 16.813L18.2024 19.8248L15.1881 22.8364C13.5233 24.4997 10.8242 24.4997 9.15943 22.8364Z" fill="#E5DF5D"/>
</g>
<defs>
<clipPath id="clip0_351_21709">
<rect width="166" height="40" fill="white"/>
</clipPath>
</defs>
</svg>
