<svg width="166" height="40" viewBox="0 0 166 40" fill="none" xmlns="http://www.w3.org/2000/svg">
<g clip-path="url(#clip0_351_21671)">
<path d="M50.6396 27.4524H62.3104V23.9402H54.7877V10.7109H50.6396V27.4524Z" fill="#222222"/>
<path d="M69.225 25.1074C67.5611 25.1074 66.694 23.6557 66.694 21.4782C66.694 19.3006 67.5611 17.8255 69.225 17.8255C70.8889 17.8255 71.7794 19.3006 71.7794 21.4782C71.7794 23.6557 70.8889 25.1074 69.225 25.1074ZM69.2484 27.8235C73.1152 27.8235 75.6463 25.084 75.6463 21.4782C75.6463 17.8723 73.1152 15.1328 69.2484 15.1328C65.405 15.1328 62.8271 17.8723 62.8271 21.4782C62.8271 25.084 65.405 27.8235 69.2484 27.8235Z" fill="#222222"/>
<path d="M82.3398 31.5933C84.1208 31.5933 85.691 31.1952 86.7456 30.2586C87.7064 29.3923 88.3392 28.0811 88.3392 26.2782V15.4606H84.6833V16.7484H84.6364C83.9334 15.7416 82.8553 15.1094 81.2617 15.1094C78.2855 15.1094 76.2231 17.5913 76.2231 21.1035C76.2231 24.7796 78.7307 26.7933 81.4258 26.7933C82.8788 26.7933 83.7927 26.2079 84.4958 25.4118H84.5895V26.606C84.5895 28.0577 83.9099 28.9006 82.2929 28.9006C81.0274 28.9006 80.3946 28.3621 80.1837 27.7299H76.4809C76.8559 30.2352 79.0354 31.5933 82.3398 31.5933ZM82.3163 23.9601C80.8868 23.9601 79.9494 22.7894 79.9494 20.9864C79.9494 19.1601 80.8868 17.9894 82.3163 17.9894C83.9099 17.9894 84.7536 19.3474 84.7536 20.963C84.7536 22.6489 83.9802 23.9601 82.3163 23.9601Z" fill="#222222"/>
<path d="M95.8563 25.1074C94.1924 25.1074 93.3253 23.6557 93.3253 21.4782C93.3253 19.3006 94.1924 17.8255 95.8563 17.8255C97.5202 17.8255 98.4108 19.3006 98.4108 21.4782C98.4108 23.6557 97.5202 25.1074 95.8563 25.1074ZM95.8798 27.8235C99.7466 27.8235 102.278 25.084 102.278 21.4782C102.278 17.8723 99.7466 15.1328 95.8798 15.1328C92.0364 15.1328 89.4585 17.8723 89.4585 21.4782C89.4585 25.084 92.0364 27.8235 95.8798 27.8235Z" fill="#222222"/>
<path d="M103.393 27.4524H107.213V15.4641H103.393V27.4524ZM103.393 13.8017H107.213V10.7109H103.393V13.8017Z" fill="#222222"/>
<path d="M108.871 31.406H112.691V26.2079H112.737C113.487 27.2147 114.589 27.8235 116.136 27.8235C119.276 27.8235 121.362 25.3416 121.362 21.4547C121.362 17.8489 119.416 15.1094 116.229 15.1094C114.589 15.1094 113.417 15.8352 112.597 16.9123H112.527V15.4606H108.871V31.406ZM115.151 24.8733C113.511 24.8733 112.573 23.5386 112.573 21.5952C112.573 19.6518 113.417 18.1767 115.081 18.1767C116.721 18.1767 117.495 19.5347 117.495 21.5952C117.495 23.6323 116.604 24.8733 115.151 24.8733Z" fill="#222222"/>
<path d="M127.581 27.8235C130.721 27.8235 133.041 26.4655 133.041 23.843C133.041 20.7757 130.557 20.2372 128.448 19.886C126.925 19.605 125.566 19.4879 125.566 18.645C125.566 17.8957 126.292 17.5445 127.229 17.5445C128.284 17.5445 129.011 17.8723 129.151 18.9494H132.666C132.479 16.5845 130.651 15.1094 127.253 15.1094C124.417 15.1094 122.074 16.4206 122.074 18.9494C122.074 21.7591 124.3 22.3211 126.386 22.6723C127.979 22.9533 129.432 23.0704 129.432 24.1474C129.432 24.9201 128.706 25.3416 127.558 25.3416C126.292 25.3416 125.495 24.7562 125.355 23.5621H121.746C121.863 26.2079 124.066 27.8235 127.581 27.8235Z" fill="#222222"/>
<path d="M138.23 27.8004C139.894 27.8004 140.949 27.1448 141.816 25.9741H141.886V27.4492H145.542V15.4609H141.722V22.1575C141.722 23.5858 140.925 24.5692 139.613 24.5692C138.394 24.5692 137.808 23.8434 137.808 22.5322V15.4609H134.012V23.3283C134.012 25.9975 135.465 27.8004 138.23 27.8004Z" fill="#222222"/>
<path d="M147.203 27.4489H151.023V20.7289C151.023 19.3006 151.726 18.2938 152.921 18.2938C154.07 18.2938 154.609 19.043 154.609 20.3308V27.4489H158.429V20.7289C158.429 19.3006 159.108 18.2938 160.327 18.2938C161.475 18.2938 162.014 19.043 162.014 20.3308V27.4489H165.834V19.6518C165.834 16.9591 164.475 15.1094 161.756 15.1094C160.21 15.1094 158.921 15.765 157.983 17.2167H157.936C157.327 15.9289 156.132 15.1094 154.562 15.1094C152.828 15.1094 151.679 15.9289 150.929 17.1699H150.859V15.4606H147.203V27.4489Z" fill="#222222"/>
<path fill-rule="evenodd" clip-rule="evenodd" d="M20.1974 39.1572C30.9832 39.1572 39.7268 30.4213 39.7268 19.645C39.7268 8.86872 30.9832 0.132812 20.1974 0.132812C9.41157 0.132812 0.667969 8.86872 0.667969 19.645C0.667969 30.4213 9.41157 39.1572 20.1974 39.1572ZM26.2899 9.22241C26.5864 8.16993 25.5642 7.54757 24.6306 8.21213L11.5977 17.4885C10.5852 18.2092 10.7445 19.645 11.837 19.645H15.2689V19.6184H21.9575L16.5075 21.5397L14.1049 30.0676C13.8084 31.1201 14.8305 31.7424 15.7642 31.0779L28.7971 21.8016C29.8096 21.0809 29.6502 19.645 28.5578 19.645H23.3534L26.2899 9.22241Z" fill="#E5DF5D"/>
</g>
<defs>
<clipPath id="clip0_351_21671">
<rect width="166" height="40" fill="white"/>
</clipPath>
</defs>
</svg>
