<svg width="163" height="40" viewBox="0 0 163 40" fill="none" xmlns="http://www.w3.org/2000/svg">
<g clip-path="url(#clip0_351_21698)">
<path d="M47.4658 28.093H59.1315V24.5808H51.6121V11.3516H47.4658V28.093Z" fill="#222222"/>
<path d="M66.043 25.7481C64.3798 25.7481 63.5131 24.2964 63.5131 22.1188C63.5131 19.9412 64.3798 18.4661 66.043 18.4661C67.7062 18.4661 68.5964 19.9412 68.5964 22.1188C68.5964 24.2964 67.7062 25.7481 66.043 25.7481ZM66.0664 28.4642C69.9316 28.4642 72.4615 25.7247 72.4615 22.1188C72.4615 18.5129 69.9316 15.7734 66.0664 15.7734C62.2247 15.7734 59.6479 18.5129 59.6479 22.1188C59.6479 25.7247 62.2247 28.4642 66.0664 28.4642Z" fill="#222222"/>
<path d="M79.1521 32.2339C80.9324 32.2339 82.5018 31.8359 83.556 30.8993C84.5164 30.0329 85.1489 28.7217 85.1489 26.9188V16.1012H81.4946V17.389H81.4477C80.745 16.3822 79.6674 15.75 78.0745 15.75C75.0995 15.75 73.0381 18.232 73.0381 21.7441C73.0381 25.4202 75.5446 27.4339 78.2385 27.4339C79.6908 27.4339 80.6044 26.8485 81.3072 26.0524H81.4009V27.2466C81.4009 28.6983 80.7215 29.5412 79.1052 29.5412C77.8402 29.5412 77.2078 29.0027 76.9969 28.3705H73.2958C73.6706 30.8759 75.8491 32.2339 79.1521 32.2339ZM79.1286 24.6007C77.6997 24.6007 76.7627 23.43 76.7627 21.6271C76.7627 19.8007 77.6997 18.63 79.1286 18.63C80.7215 18.63 81.5648 19.988 81.5648 21.6037C81.5648 23.2895 80.7918 24.6007 79.1286 24.6007Z" fill="#222222"/>
<path d="M92.6626 25.7481C90.9995 25.7481 90.1327 24.2964 90.1327 22.1188C90.1327 19.9412 90.9995 18.4661 92.6626 18.4661C94.3258 18.4661 95.216 19.9412 95.216 22.1188C95.216 24.2964 94.3258 25.7481 92.6626 25.7481ZM92.6861 28.4642C96.5512 28.4642 99.0814 25.7247 99.0814 22.1188C99.0814 18.5129 96.5512 15.7734 92.6861 15.7734C88.8443 15.7734 86.2676 18.5129 86.2676 22.1188C86.2676 25.7247 88.8443 28.4642 92.6861 28.4642Z" fill="#222222"/>
<path d="M100.196 28.093H104.015V16.1047H100.196V28.093ZM100.196 14.4423H104.015V11.3516H100.196V14.4423Z" fill="#222222"/>
<path d="M105.671 32.0466H109.489V26.8485H109.536C110.286 27.8554 111.387 28.4641 112.933 28.4641C116.072 28.4641 118.157 25.9822 118.157 22.0954C118.157 18.4895 116.212 15.75 113.026 15.75C111.387 15.75 110.215 16.4759 109.395 17.5529H109.325V16.1012H105.671V32.0466ZM111.949 25.5139C110.309 25.5139 109.372 24.1793 109.372 22.2359C109.372 20.2924 110.215 18.8173 111.879 18.8173C113.518 18.8173 114.291 20.1754 114.291 22.2359C114.291 24.2729 113.401 25.5139 111.949 25.5139Z" fill="#222222"/>
<path d="M124.374 28.4641C127.513 28.4641 129.832 27.1061 129.832 24.4837C129.832 21.4163 127.349 20.8778 125.241 20.5266C123.718 20.2456 122.359 20.1285 122.359 19.2856C122.359 18.5363 123.085 18.1851 124.023 18.1851C125.077 18.1851 125.803 18.5129 125.943 19.59H129.457C129.27 17.2251 127.443 15.75 124.046 15.75C121.211 15.75 118.869 17.0612 118.869 19.59C118.869 22.3998 121.094 22.9617 123.179 23.3129C124.772 23.5939 126.224 23.711 126.224 24.788C126.224 25.5607 125.498 25.9822 124.35 25.9822C123.085 25.9822 122.289 25.3968 122.148 24.2027H118.541C118.658 26.8485 120.86 28.4641 124.374 28.4641Z" fill="#222222"/>
<path d="M135.018 28.4411C136.681 28.4411 137.735 27.7855 138.602 26.6147H138.672V28.0899H142.326V16.1016H138.508V22.7981C138.508 24.2264 137.712 25.2099 136.4 25.2099C135.182 25.2099 134.596 24.484 134.596 23.1728V16.1016H130.801V23.9689C130.801 26.6381 132.254 28.4411 135.018 28.4411Z" fill="#222222"/>
<path d="M143.988 28.0895H147.806V21.3695C147.806 19.9412 148.509 18.9344 149.704 18.9344C150.851 18.9344 151.39 19.6837 151.39 20.9715V28.0895H155.208V21.3695C155.208 19.9412 155.888 18.9344 157.106 18.9344C158.254 18.9344 158.792 19.6837 158.792 20.9715V28.0895H162.611V20.2924C162.611 17.5998 161.252 15.75 158.535 15.75C156.989 15.75 155.7 16.4056 154.763 17.8573H154.717C154.107 16.5695 152.913 15.75 151.343 15.75C149.61 15.75 148.462 16.5695 147.712 17.8105H147.642V16.1012H143.988V28.0895Z" fill="#222222"/>
<path fill-rule="evenodd" clip-rule="evenodd" d="M8.44699 3.79917C7.0506 4.77514 5.78789 5.92904 4.69174 7.22798C9.17111 6.81231 14.862 7.49106 21.4691 10.7931C28.5245 14.3192 34.2059 14.4384 38.1599 13.6761C37.8011 12.5903 37.3494 11.5468 36.8144 10.5548C32.2882 11.032 26.4856 10.4004 19.7231 7.02075C15.4289 4.8746 11.6436 3.99053 8.44699 3.79917ZM34.1704 6.79311C30.596 2.80125 25.4016 0.289062 19.62 0.289062C17.9222 0.289062 16.2748 0.505752 14.7044 0.912945C16.8314 1.49305 19.0909 2.34173 21.4691 3.5303C26.4202 6.0047 30.6947 6.80141 34.1704 6.79311ZM39.0052 17.4872C34.2285 18.43 27.6322 18.2364 19.7231 14.2836C12.329 10.5882 6.44385 10.6347 2.47472 11.5164C2.26985 11.5618 2.0698 11.6096 1.87458 11.6594C1.35492 12.789 0.940117 13.9769 0.642489 15.2105C0.960372 15.1256 1.28886 15.0449 1.62777 14.9696C6.44301 13.9001 13.2465 13.9465 21.4691 18.056C28.8633 21.7514 34.7484 21.7048 38.7176 20.8232C38.8535 20.793 38.9876 20.7618 39.1193 20.7296C39.1338 20.422 39.141 20.1125 39.141 19.8012C39.141 19.0183 39.0949 18.2461 39.0052 17.4872ZM38.482 24.8474C33.7516 25.674 27.3474 25.3567 19.7231 21.5464C12.329 17.851 6.44385 17.8975 2.47472 18.7792C1.59369 18.9748 0.801133 19.2131 0.101981 19.4647C0.100075 19.5766 0.0991211 19.6888 0.0991211 19.8012C0.0991211 30.5775 8.83894 39.3134 19.62 39.3134C28.6554 39.3134 36.2571 33.1777 38.482 24.8474Z" fill="#E5DF5D"/>
</g>
<defs>
<clipPath id="clip0_351_21698">
<rect width="163" height="40" fill="white"/>
</clipPath>
</defs>
</svg>
