<svg width="140" height="140" viewBox="0 0 140 140" fill="none" xmlns="http://www.w3.org/2000/svg">
<circle cx="70" cy="70" r="70" fill="#E5DF5D"/>
<circle cx="70" cy="70" r="35" fill="#222222"/>
<path d="M74.245 75.0253C76.8019 77.2044 79.351 79.3921 81.9132 81.566C82.7556 82.3487 83.6387 83.0869 84.5118 83.8363C87.9816 80.1984 90.0047 75.2092 89.9986 70.1741C90.0412 66.6162 89.0942 63.0551 87.3057 59.9818C85.8266 57.4264 83.7747 55.2062 81.3454 53.5314C77.7359 51.02 73.2801 49.7774 68.8956 50.0328C65.516 50.2082 62.1872 51.2702 59.3294 53.0856C56.7123 54.7374 54.4859 57.0069 52.8854 59.6596C51.0493 62.6818 50.0412 66.202 50.003 69.7404C49.9538 72.5668 50.5105 75.4023 51.635 77.9954C52.5317 80.0757 53.7898 81.9944 55.3206 83.6609C59.6633 80.1388 63.978 76.5818 68.3182 73.0564C64.7114 77.4028 61.0837 81.7312 57.4712 86.0725C60.3843 88.2697 63.9058 89.649 67.538 89.9889C67.6339 89.1585 67.702 88.3248 67.7946 87.4939C68.8461 87.5321 69.8985 87.5202 70.9508 87.4981C71.0402 88.3309 71.1173 89.1655 71.2025 90C75.1729 89.6756 79.0244 88.1001 82.1048 85.5727C78.409 81.2937 74.6953 77.0307 70.9901 72.7602C70.8098 72.5466 70.6059 72.3515 70.4666 72.108C70.69 72.2399 70.8892 72.4095 71.0946 72.5688C72.1428 73.3897 73.2002 74.1996 74.2448 75.0255L74.245 75.0253ZM86.2099 75.171C85.9049 76.0906 85.5757 77.0154 85.0641 77.843C84.6086 78.6596 84.095 79.4415 83.5366 80.1898C80.7723 78.3786 78.0216 76.5469 75.2506 74.7468C75.283 74.6692 75.3228 74.5961 75.3704 74.5279C76.3793 73.2404 77.719 72.2338 79.1928 71.5389C80.4841 70.936 81.8797 70.6132 83.2559 70.2658C84.4927 69.9685 85.7328 69.6859 86.9763 69.4168C87.0648 71.3594 86.7902 73.316 86.2096 75.1707L86.2099 75.171ZM76.7864 68.7161C76.9089 68.1362 77.3747 67.6533 77.94 67.4873C78.7492 67.2241 79.6884 67.7497 79.9418 68.5518C80.1976 69.2553 79.8585 70.1017 79.2158 70.4686C78.8043 70.7274 78.2696 70.775 77.8183 70.5963C77.0848 70.3306 76.6019 69.4825 76.7864 68.7161ZM57.8326 58.2393C59.882 56.1148 62.4917 54.5341 65.3282 53.7192C67.7457 53.0193 70.3202 52.8694 72.8033 53.2884C76.5281 53.8963 80.0173 55.8158 82.5504 58.6147C84.2615 60.4814 85.5398 62.7397 86.2735 65.1649C84.373 65.5235 82.4655 65.8546 80.5436 66.0685C78.6812 66.2915 76.7543 66.1555 74.9801 65.5235C73.7953 65.0696 72.7164 64.3636 71.4959 64.0026C70.633 63.73 69.711 63.7488 68.821 63.8358C66.9765 64.0982 65.4225 65.2145 63.6887 65.8122C62.6245 66.1469 61.4983 66.1757 60.3923 66.2073C58.1286 66.1859 55.8718 65.956 53.6354 65.6171C54.375 62.8522 55.8438 60.2916 57.8329 58.2393H57.8326ZM61.425 70.3946C60.5502 70.5035 59.6884 69.7737 59.6331 68.8959C59.549 68.0905 60.1591 67.3053 60.9454 67.1501C61.8321 66.9551 62.7918 67.6483 62.8869 68.5527C63.0271 69.4323 62.2978 70.3104 61.425 70.3946ZM56.3903 80.1458C55.9993 79.6986 55.6926 79.186 55.3881 78.6784C53.7815 75.9714 52.9706 72.8087 53.0394 69.6612C54.5899 69.8851 56.1564 70.0411 57.6764 70.4403C59.3679 70.8687 61.0154 71.5849 62.3609 72.7164C63.0996 73.3653 63.8264 74.0422 64.4365 74.8163C61.7599 76.6004 59.0645 78.3578 56.3903 80.1455V80.1458ZM70.8789 86.7198C69.8766 86.7608 68.8763 86.735 67.874 86.7325C67.9658 85.6799 68.0814 84.6293 68.1799 83.5775C68.9739 83.6047 69.7702 83.6269 70.5625 83.5714C70.6798 84.6196 70.7666 85.6714 70.8786 86.7198H70.8789ZM70.4928 82.8137C69.7475 82.8128 69.0027 82.8128 68.2582 82.8137C68.3533 81.7611 68.4656 80.7113 68.5693 79.6595C69.0973 79.6894 69.6327 79.7133 70.1587 79.6501C70.3117 80.6991 70.3711 81.7602 70.4928 82.8137ZM69.7984 75.7645C69.9029 76.8085 69.9964 77.8541 70.1078 78.8981C69.62 78.894 69.1329 78.8956 68.6451 78.8973C68.7488 77.8541 68.8472 76.8101 68.9529 75.767C69.235 75.7678 69.5165 75.767 69.7986 75.7645H69.7984ZM69.0317 74.9793C69.1175 74.0946 69.1974 73.2088 69.2961 72.3258C69.3343 72.3036 69.4109 72.2601 69.4491 72.2391C69.5478 73.152 69.631 74.0666 69.7168 74.9812C69.4881 74.9787 69.2593 74.9787 69.0317 74.9795V74.9793ZM69.4654 71.729C69.1924 71.8592 68.8456 71.701 68.5983 71.9027C67.8062 72.4809 67.0172 73.0658 66.1997 73.6092C65.3744 72.6247 65.0121 71.2751 65.217 70.0078C65.4101 68.6369 66.1853 67.3288 67.3795 66.606C68.2244 66.1283 69.2071 65.8371 70.1836 65.9521C71.6721 66.1189 73.0447 67.0207 73.8293 68.293C74.8103 69.8685 74.6419 72.0595 73.4698 73.4892C72.618 72.9076 71.7791 72.3072 70.9232 71.7351C70.4386 71.6763 69.9483 71.816 69.4654 71.729Z" fill="#E5DF5D"/>
<path d="M75.4909 22.3287C74.4274 22.202 73.5381 21.8456 72.8232 21.2595C72.1083 20.6734 71.5937 19.9086 71.2793 18.9652C70.9702 18.0224 70.887 16.9546 71.0297 15.7618C71.1729 14.5638 71.5038 13.5613 72.0222 12.7544C72.5412 11.9422 73.2153 11.351 74.0446 10.9808C74.8739 10.6106 75.8229 10.4891 76.8917 10.6164C77.7499 10.7187 78.4926 10.983 79.1198 11.4095C79.7529 11.8313 80.2393 12.3635 80.579 13.0062C80.9239 13.6495 81.0886 14.3486 81.0731 15.1035L78.6564 14.8157C78.6298 14.4128 78.5373 14.0474 78.379 13.7194C78.2212 13.3862 77.9948 13.1141 77.6996 12.903C77.4051 12.6868 77.0367 12.5523 76.5944 12.4996C76.0626 12.4362 75.5892 12.5104 75.174 12.7221C74.7589 12.9338 74.4144 13.3138 74.1405 13.8621C73.8667 14.4103 73.6735 15.1548 73.561 16.0953C73.3914 17.514 73.4949 18.5682 73.8717 19.258C74.2543 19.9431 74.8458 20.3333 75.6461 20.4286C76.0884 20.4813 76.4794 20.4266 76.8192 20.2646C77.1596 20.0973 77.447 19.8597 77.6814 19.5519C77.9164 19.2388 78.0947 18.887 78.2161 18.4964L80.6328 18.7843C80.4997 19.3174 80.3061 19.8193 80.0522 20.29C79.799 20.7554 79.4704 21.1586 79.0665 21.4996C78.6626 21.8405 78.1658 22.0877 77.576 22.2413C76.9862 22.3949 76.2912 22.424 75.4909 22.3287Z" fill="#222222"/>
<path d="M85.3975 24.6576C84.6369 24.3915 84.0309 23.9972 83.5795 23.4748C83.1331 22.9541 82.8591 22.3424 82.7576 21.6396C82.6612 20.9385 82.7559 20.181 83.0418 19.367C83.3278 18.553 83.7304 17.8948 84.2497 17.3923C84.7739 16.8917 85.3759 16.5696 86.0556 16.4261C86.7404 16.2843 87.4655 16.3474 88.2311 16.6152C88.9967 16.8831 89.601 17.2824 90.0439 17.813C90.4885 18.3387 90.7565 18.9596 90.8477 19.6756C90.9389 20.3916 90.8389 21.1641 90.5477 21.9931C90.274 22.7721 89.8818 23.4088 89.3711 23.903C88.8671 24.3939 88.2752 24.7112 87.5955 24.8547C86.9208 24.9999 86.1881 24.9342 85.3975 24.6576ZM85.976 23.0348C86.3613 23.1696 86.711 23.1657 87.0251 23.0233C87.3393 22.8809 87.6129 22.6458 87.846 22.318C88.0809 21.9852 88.2747 21.6016 88.4273 21.1671C88.5712 20.7576 88.6596 20.354 88.6926 19.9562C88.7256 19.5584 88.6639 19.206 88.5077 18.899C88.3515 18.592 88.0707 18.3675 87.6654 18.2257C87.2801 18.0909 86.9296 18.0889 86.614 18.2196C86.3051 18.347 86.0316 18.5738 85.7935 18.8998C85.5571 19.2208 85.3617 19.6011 85.2073 20.0405C85.0652 20.445 84.9784 20.8521 84.9469 21.2616C84.9172 21.6662 84.9787 22.0269 85.1314 22.3439C85.2842 22.6609 85.5657 22.8912 85.976 23.0348Z" fill="#222222"/>
<path d="M91.1002 26.7422L95.281 19.6743L97.2467 20.8324L96.6564 21.8304C96.8684 21.7218 97.1084 21.6389 97.3762 21.5816C97.6514 21.5224 97.9546 21.5198 98.286 21.5737C98.6174 21.6276 98.9681 21.7636 99.3379 21.9815C99.7717 22.237 100.126 22.5594 100.401 22.9486C100.68 23.3405 100.828 23.7873 100.845 24.2891C100.865 24.7863 100.703 25.3265 100.358 25.9098L97.6002 30.5716L95.6002 29.3933L98.2122 24.9776C98.4386 24.5948 98.4943 24.2405 98.3792 23.9146C98.2641 23.5887 98.0421 23.3289 97.7134 23.1352C97.4942 23.0061 97.259 22.9197 97.0076 22.8761C96.7609 22.8352 96.5278 22.8546 96.3083 22.9342C96.0888 23.0138 95.9116 23.1675 95.7769 23.3954L93.1002 27.9205L91.1002 26.7422Z" fill="#222222"/>
<path d="M101.728 34.1272C101.171 33.6615 100.8 33.2301 100.614 32.8332C100.433 32.4397 100.39 32.0659 100.487 31.7119C100.588 31.3612 100.78 31.0175 101.063 30.681L103.939 27.2563L102.915 26.3996L103.953 25.1647L105.031 26.0673L107.077 24.5468L108.345 25.6075L106.755 27.4993L108.157 28.6722L107.115 29.9131L105.713 28.7402L102.91 32.1021C102.78 32.2562 102.701 32.3871 102.673 32.4947C102.653 32.6017 102.673 32.7014 102.734 32.7937C102.802 32.8854 102.901 32.9856 103.031 33.0944L103.878 33.8032L102.959 34.8982C102.843 34.8633 102.686 34.7906 102.488 34.6803C102.29 34.57 102.036 34.3856 101.728 34.1272Z" fill="#222222"/>
<path d="M105.65 38.1224C105.312 37.729 105.078 37.308 104.951 36.8592C104.827 36.4145 104.826 35.9792 104.949 35.5532C105.075 35.1237 105.342 34.7348 105.748 34.3866C106.432 33.8004 107.17 33.6105 107.963 33.8168C108.76 34.0198 109.637 34.666 110.596 35.7555L111.282 36.5279L111.656 36.2073C111.942 35.9625 112.088 35.6902 112.096 35.3906C112.111 35.0916 111.965 34.7671 111.657 34.4173C111.435 34.1679 111.166 33.9768 110.849 33.8439C110.535 33.7151 110.195 33.7307 109.83 33.8906L108.57 32.4275C109.042 32.0654 109.524 31.8786 110.017 31.8672C110.518 31.8563 111.014 31.9933 111.503 32.278C111.997 32.5593 112.469 32.9609 112.918 33.4827C113.464 34.1169 113.822 34.6957 113.993 35.219C114.168 35.7388 114.181 36.2126 114.031 36.6404C113.89 37.0687 113.616 37.457 113.21 37.8053L108.823 41.5655L107.559 40.0963L108.508 39.0311C107.875 39.2046 107.333 39.2048 106.884 39.032C106.438 38.8631 106.027 38.5599 105.65 38.1224ZM107.322 37.7254C107.456 37.882 107.616 38.0104 107.8 38.1106C107.992 38.2115 108.188 38.2807 108.388 38.3184C108.592 38.3526 108.786 38.3504 108.969 38.3117C109.156 38.2771 109.318 38.2049 109.454 38.0951L110.377 37.3038L109.821 36.6819C109.564 36.3923 109.293 36.1504 109.007 35.9561C108.725 35.7584 108.442 35.645 108.159 35.6161C107.879 35.5911 107.612 35.6872 107.359 35.9045C107.069 36.1527 106.926 36.4459 106.931 36.784C106.943 37.1226 107.073 37.4364 107.322 37.7254Z" fill="#222222"/>
<path d="M111.798 46.654C111.416 45.9938 111.223 45.3201 111.218 44.6329C111.212 43.9457 111.397 43.2959 111.772 42.6834C112.153 42.0728 112.725 41.5482 113.488 41.1094C114.223 40.6865 114.953 40.456 115.677 40.4178C116.402 40.3796 117.069 40.5273 117.678 40.8611C118.294 41.1967 118.801 41.7084 119.198 42.3961C119.542 42.9921 119.717 43.5756 119.723 44.1466C119.731 44.7222 119.6 45.2527 119.329 45.7381C119.062 46.2282 118.683 46.6382 118.195 46.9683L117.229 45.2972C117.399 45.1568 117.547 44.9832 117.672 44.7767C117.802 44.5674 117.874 44.3368 117.888 44.0847C117.906 43.8299 117.835 43.565 117.676 43.29C117.406 42.8223 117.005 42.5462 116.473 42.4616C115.947 42.379 115.317 42.5491 114.582 42.972C113.889 43.371 113.42 43.8303 113.175 44.3498C112.935 44.8666 112.962 45.3795 113.256 45.8883C113.412 46.1588 113.608 46.3451 113.845 46.4473C114.084 46.554 114.325 46.605 114.567 46.6001C114.813 46.5926 115.025 46.5563 115.202 46.4913L116.143 48.1211C115.633 48.3718 115.105 48.4861 114.56 48.4639C114.019 48.439 113.506 48.2763 113.02 47.9755C112.541 47.6767 112.134 47.2362 111.798 46.654Z" fill="#222222"/>
<path d="M115.52 54.6212C115.262 53.9434 115.15 53.3861 115.182 52.9493C115.216 52.5175 115.362 52.1707 115.62 51.9089C115.88 51.6521 116.215 51.4457 116.627 51.2899L120.813 49.7043L120.339 48.4575L121.849 47.8858L122.348 49.1993L124.877 48.8698L125.464 50.4134L123.152 51.2893L123.801 52.9962L122.284 53.5707L121.635 51.8639L117.543 53.4305C117.354 53.5019 117.222 53.5777 117.144 53.6579C117.074 53.7411 117.043 53.8379 117.051 53.9481C117.065 54.0614 117.103 54.1972 117.163 54.3555L117.555 55.387L116.217 55.894C116.133 55.807 116.031 55.6671 115.913 55.4743C115.794 55.2816 115.663 54.9972 115.52 54.6212Z" fill="#222222"/>
<path d="M117.994 66.7613C117.9 65.6486 118.01 64.7419 118.323 64.0412C118.642 63.3399 119.132 62.8102 119.794 62.4519C120.456 62.0989 121.262 61.8824 122.213 61.8025L129.228 61.2131L129.426 63.5623L122.237 64.1663C121.381 64.2383 120.772 64.4965 120.411 64.9411C120.054 65.3853 119.904 65.9369 119.96 66.5961C119.997 67.0338 120.114 67.4142 120.311 67.7375C120.514 68.0603 120.803 68.3016 121.179 68.4612C121.56 68.6257 122.038 68.6837 122.614 68.6353L129.803 68.0313L130 70.3647L122.906 70.9607C121.981 71.0384 121.166 70.9556 120.459 70.7123C119.757 70.4686 119.193 70.0247 118.766 69.3809C118.345 68.7418 118.088 67.8686 117.994 66.7613Z" fill="#222222"/>
<path d="M117.748 77.0326C117.82 76.4655 117.98 75.931 118.23 75.429C118.485 74.9329 118.836 74.5261 119.282 74.2086C119.732 73.897 120.285 73.7341 120.938 73.72L120.689 75.7047C120.39 75.742 120.146 75.8394 119.955 75.9968C119.763 76.1595 119.616 76.3518 119.513 76.5736C119.416 76.796 119.354 77.0123 119.328 77.2223C119.272 77.6634 119.296 78.0263 119.399 78.3112C119.507 78.6021 119.706 78.7656 119.995 78.8018C120.216 78.8295 120.402 78.7702 120.554 78.6238C120.706 78.4828 120.839 78.2328 120.953 77.8738L121.433 76.4779C121.676 75.7777 122.007 75.2298 122.426 74.8341C122.849 74.4444 123.397 74.2891 124.071 74.3682C124.561 74.4242 124.985 74.6052 125.342 74.9112C125.698 75.2225 125.957 75.6469 126.12 76.1846C126.281 76.7275 126.315 77.3691 126.222 78.1094C126.096 79.1123 125.775 79.8853 125.257 80.4286C124.74 80.9771 124.078 81.2062 123.271 81.1159L123.513 79.1942C123.836 79.176 124.098 79.0487 124.298 78.8125C124.504 78.5822 124.631 78.2728 124.679 77.8843C124.729 77.4905 124.699 77.156 124.589 76.881C124.479 76.6059 124.28 76.4503 123.99 76.414C123.775 76.387 123.591 76.4706 123.438 76.6649C123.29 76.8597 123.144 77.1721 122.999 77.602L122.533 78.8876C122.365 79.3306 122.166 79.6816 121.936 79.9408C121.71 80.2059 121.474 80.403 121.228 80.5322C120.982 80.6614 120.74 80.7404 120.501 80.7692C120.267 80.8038 120.058 80.8097 119.874 80.7866C119.332 80.7188 118.887 80.5164 118.539 80.1796C118.197 79.8433 117.958 79.4054 117.823 78.8659C117.687 78.3263 117.663 77.7152 117.748 77.0326Z" fill="#222222"/>
<path d="M120.119 89.5225L121.38 88.6747L122.614 90.9167L124.069 88.9777L125.151 89.9256L123.455 91.6266L125.816 92.3558L125.266 93.7688L123.038 92.6742L123.141 95.1246L121.726 95.0349L121.935 92.6803L119.559 93.4783L119.196 92.0003L121.706 91.5607L120.119 89.5225Z" fill="#222222"/>
<path d="M108.045 100.443C108.691 99.5907 109.448 99.0045 110.316 98.6844C111.184 98.3642 112.105 98.3068 113.08 98.5121C114.051 98.7216 115.017 99.1887 115.977 99.9136C116.941 100.642 117.641 101.433 118.078 102.287C118.518 103.144 118.69 104.023 118.591 104.924C118.493 105.825 118.119 106.704 117.47 107.561C116.948 108.249 116.345 108.755 115.659 109.08C114.975 109.413 114.269 109.563 113.541 109.532C112.811 109.504 112.123 109.293 111.478 108.899L112.946 106.962C113.308 107.142 113.671 107.247 114.035 107.276C114.403 107.309 114.752 107.251 115.084 107.103C115.42 106.958 115.722 106.709 115.991 106.354C116.314 105.928 116.489 105.483 116.515 105.018C116.541 104.554 116.386 104.065 116.05 103.553C115.714 103.04 115.168 102.498 114.411 101.926C113.269 101.064 112.305 100.621 111.518 100.598C110.733 100.582 110.096 100.894 109.61 101.536C109.341 101.89 109.191 102.255 109.16 102.629C109.133 103.007 109.193 103.374 109.341 103.732C109.494 104.092 109.708 104.423 109.985 104.725L108.516 106.662C108.122 106.278 107.785 105.858 107.506 105.402C107.232 104.949 107.049 104.462 106.958 103.942C106.866 103.422 106.903 102.869 107.068 102.284C107.233 101.698 107.558 101.085 108.045 100.443Z" fill="#222222"/>
<path d="M101.03 107.816C101.643 107.294 102.289 106.969 102.969 106.843C103.644 106.719 104.312 106.791 104.972 107.057C105.627 107.326 106.236 107.788 106.797 108.444C107.358 109.1 107.726 109.779 107.9 110.479C108.07 111.183 108.046 111.864 107.829 112.523C107.607 113.185 107.188 113.779 106.571 114.305C105.954 114.83 105.305 115.151 104.622 115.266C103.943 115.385 103.271 115.304 102.605 115.023C101.939 114.742 101.32 114.267 100.748 113.599C100.211 112.971 99.8571 112.313 99.6858 111.623C99.514 110.942 99.5368 110.272 99.7543 109.613C99.9678 108.958 100.393 108.359 101.03 107.816ZM102.145 109.131C101.834 109.396 101.662 109.699 101.627 110.042C101.593 110.385 101.659 110.739 101.825 111.105C101.996 111.475 102.23 111.835 102.53 112.185C102.812 112.515 103.117 112.794 103.445 113.023C103.773 113.251 104.11 113.375 104.454 113.395C104.799 113.414 105.134 113.285 105.461 113.007C105.771 112.742 105.949 112.441 105.995 112.103C106.04 111.772 105.981 111.422 105.818 111.053C105.659 110.688 105.428 110.328 105.125 109.974C104.846 109.648 104.537 109.368 104.198 109.135C103.863 108.906 103.519 108.778 103.168 108.75C102.817 108.722 102.476 108.85 102.145 109.131Z" fill="#222222"/>
<path d="M96.3616 111.689L100.391 118.844L98.4007 119.961L97.8318 118.95C97.8196 119.188 97.7711 119.437 97.6864 119.697C97.5996 119.964 97.4497 120.227 97.2367 120.486C97.0238 120.745 96.7301 120.979 96.3556 121.189C95.9165 121.436 95.4593 121.58 94.9842 121.622C94.5044 121.666 94.0427 121.57 93.5991 121.333C93.1582 121.101 92.7714 120.69 92.4389 120.099L89.7814 115.38L91.806 114.244L94.3233 118.715C94.5415 119.102 94.8207 119.328 95.161 119.392C95.5012 119.456 95.8377 119.395 96.1705 119.208C96.3924 119.084 96.5853 118.924 96.7491 118.729C96.9084 118.536 97.0085 118.325 97.0496 118.096C97.0908 117.867 97.0464 117.636 96.9165 117.406L94.3369 112.825L96.3616 111.689Z" fill="#222222"/>
<path d="M84.6235 117.156C85.3068 116.91 85.867 116.807 86.3041 116.846C86.7361 116.887 87.0812 117.039 87.3392 117.3C87.5923 117.563 87.7935 117.902 87.9429 118.315L89.463 122.518L90.7199 122.066L91.268 123.581L89.9437 124.058L90.2325 126.587L88.6764 127.148L87.8367 124.826L86.1159 125.445L85.5652 123.922L87.2859 123.302L85.7833 119.194C85.7149 119.005 85.6411 118.871 85.562 118.793C85.4797 118.721 85.3833 118.688 85.2728 118.694C85.159 118.707 85.0224 118.742 84.8628 118.8L83.8228 119.174L83.3368 117.83C83.4254 117.748 83.5672 117.649 83.7623 117.534C83.9574 117.418 84.2444 117.292 84.6235 117.156Z" fill="#222222"/>
<path d="M79.1741 118.528C79.6853 118.434 80.1672 118.446 80.6197 118.563C81.067 118.68 81.444 118.899 81.7506 119.22C82.0581 119.546 82.2599 119.972 82.3561 120.498C82.5179 121.383 82.3095 122.115 81.7308 122.693C81.153 123.277 80.151 123.707 78.7245 123.983L77.7102 124.184L77.7987 124.668C77.8663 125.038 78.0278 125.302 78.283 125.46C78.534 125.624 78.8886 125.661 79.3466 125.572C79.6743 125.507 79.9756 125.372 80.2506 125.166C80.5203 124.961 80.6783 124.66 80.7245 124.264L82.6258 123.918C82.7012 124.507 82.6192 125.017 82.38 125.448C82.1365 125.885 81.768 126.242 81.2745 126.52C80.7819 126.804 80.1965 127.007 79.5184 127.131C78.6942 127.281 78.0127 127.297 77.4739 127.18C76.936 127.068 76.5196 126.84 76.2249 126.496C75.9259 126.158 75.7283 125.726 75.6322 125.2L74.594 119.523L76.5032 119.175L76.9452 120.531C77.115 119.898 77.3881 119.431 77.7645 119.131C78.1357 118.832 78.6055 118.631 79.1741 118.528ZM78.6737 120.168C78.4702 120.205 78.2787 120.277 78.099 120.386C77.915 120.5 77.7563 120.634 77.6226 120.787C77.4899 120.946 77.394 121.114 77.3348 121.291C77.2704 121.47 77.2513 121.645 77.2775 121.818L77.496 123.013L78.3147 122.848C78.6946 122.773 79.0407 122.662 79.3532 122.513C79.6666 122.37 79.9074 122.184 80.0756 121.954C80.2386 121.725 80.2901 121.447 80.2301 121.119C80.1616 120.744 79.98 120.473 79.6854 120.306C79.3865 120.146 79.0492 120.099 78.6737 120.168Z" fill="#222222"/>
<path d="M68.6593 119.516C69.4228 119.52 70.1032 119.694 70.7003 120.036C71.2974 120.378 71.7663 120.865 72.1072 121.497C72.4426 122.134 72.6077 122.892 72.6023 123.77C72.5972 124.617 72.4283 125.362 72.0956 126.006C71.7629 126.649 71.2985 127.149 70.7025 127.506C70.1011 127.867 69.4027 128.045 68.6073 128.041C67.918 128.036 67.325 127.893 66.8283 127.609C66.3263 127.326 65.9336 126.945 65.6501 126.467C65.3614 125.989 65.1976 125.456 65.1588 124.868L67.0915 124.88C67.1273 125.097 67.2029 125.312 67.3182 125.524C67.4336 125.742 67.5969 125.92 67.8081 126.059C68.0193 126.203 68.284 126.276 68.6022 126.278C69.143 126.282 69.5844 126.075 69.9263 125.659C70.2629 125.249 70.4337 124.62 70.4389 123.773C70.4437 122.974 70.2832 122.338 69.9574 121.865C69.6315 121.398 69.1742 121.162 68.5857 121.158C68.2728 121.156 68.0125 121.232 67.8048 121.384C67.5918 121.536 67.4263 121.718 67.3083 121.929C67.1904 122.145 67.1149 122.345 67.082 122.53L65.197 122.519C65.2375 121.953 65.405 121.441 65.6995 120.982C65.9939 120.529 66.3938 120.169 66.8991 119.902C67.3992 119.64 67.9859 119.512 68.6593 119.516Z" fill="#222222"/>
<path d="M59.865 118.708C60.5815 118.827 61.1207 119.011 61.4825 119.259C61.839 119.506 62.0657 119.806 62.1625 120.16C62.2541 120.514 62.2637 120.907 62.1914 121.34L61.4556 125.748L62.7736 125.967L62.5083 127.557L61.1197 127.326L60.1313 129.672L58.4994 129.401L58.9059 126.966L57.1014 126.666L57.368 125.069L59.1725 125.369L59.8769 121.052C59.91 120.854 59.9113 120.701 59.8808 120.594C59.8442 120.491 59.7762 120.416 59.6768 120.367C59.5713 120.322 59.4349 120.286 59.2675 120.259L58.177 120.077L58.4122 118.668C58.5299 118.639 58.7021 118.622 58.9287 118.617C59.1554 118.612 59.4674 118.642 59.865 118.708Z" fill="#222222"/>
<path d="M48.0966 114.721C49.1067 115.201 49.8358 115.753 50.2841 116.376C50.7301 117.005 50.9413 117.694 50.9176 118.445C50.8892 119.194 50.6697 119.998 50.2592 120.858L47.2314 127.199L45.0989 126.185L48.2019 119.686C48.5714 118.912 48.6549 118.257 48.4526 117.721C48.248 117.19 47.8465 116.783 47.2482 116.498C46.8509 116.309 46.4625 116.218 46.0832 116.225C45.7016 116.237 45.347 116.365 45.0196 116.608C44.6851 116.853 44.3936 117.236 44.145 117.757L41.042 124.256L38.9238 123.249L41.9857 116.836C42.3848 116 42.868 115.338 43.435 114.852C43.9998 114.37 44.6684 114.108 45.4408 114.065C46.2061 114.024 47.0914 114.243 48.0966 114.721Z" fill="#222222"/>
<path d="M39.4165 109.374C39.871 109.721 40.2523 110.129 40.5604 110.598C40.8609 111.068 41.036 111.575 41.0855 112.12C41.1276 112.665 40.9898 113.223 40.6721 113.794L39.0811 112.577C39.1996 112.301 39.2389 112.041 39.1989 111.797C39.1548 111.55 39.0628 111.326 38.9227 111.126C38.7794 110.93 38.6236 110.767 38.4553 110.639C38.1017 110.368 37.7757 110.206 37.4772 110.151C37.1712 110.097 36.9296 110.185 36.7522 110.416C36.6167 110.593 36.5739 110.783 36.6238 110.988C36.6694 111.19 36.8186 111.43 37.0713 111.71L38.0365 112.828C38.5196 113.391 38.8267 113.953 38.9577 114.513C39.0813 115.074 38.9388 115.625 38.5302 116.166C38.2345 116.56 37.8642 116.833 37.4193 116.986C36.9702 117.136 36.4722 117.145 35.9252 117.014C35.3741 116.879 34.8018 116.585 34.2083 116.131C33.4044 115.516 32.898 114.849 32.6891 114.129C32.4759 113.406 32.6119 112.72 33.0969 112.071L34.6374 113.249C34.4902 113.536 34.4681 113.826 34.5711 114.118C34.6667 114.411 34.8703 114.677 35.1817 114.915C35.4974 115.157 35.8019 115.299 36.0952 115.344C36.3885 115.388 36.6239 115.295 36.8012 115.064C36.9335 114.891 36.9541 114.691 36.8631 114.461C36.769 114.236 36.5725 113.952 36.2738 113.61L35.3969 112.56C35.0985 112.192 34.8953 111.843 34.7873 111.514C34.6719 111.185 34.6204 110.883 34.6328 110.606C34.6452 110.328 34.6993 110.08 34.7949 109.859C34.883 109.64 34.9835 109.457 35.0964 109.31C35.4286 108.877 35.8282 108.596 36.2951 108.467C36.7588 108.341 37.2581 108.356 37.7932 108.512C38.3282 108.668 38.8693 108.955 39.4165 109.374Z" fill="#222222"/>
<path d="M27.4052 105.118L27.506 106.632L24.9435 106.57L25.8916 108.8L24.527 109.257L23.9057 106.939L22.0871 108.609L21.1399 107.424L23.2077 106.052L21.0332 104.91L21.8225 103.733L23.757 105.098L24.2601 102.646L25.7227 103.076L24.8421 105.462L27.4052 105.118Z" fill="#222222"/>
<path d="M24.0025 89.2063C24.4161 90.1924 24.5434 91.1402 24.3846 92.0498C24.2258 92.9595 23.8125 93.7832 23.1448 94.5211C22.475 95.2541 21.585 95.8524 20.4746 96.3163C19.3594 96.7821 18.3223 96.9887 17.3633 96.9362C16.3994 96.8856 15.5517 96.5915 14.8203 96.0537C14.0889 95.5159 13.5154 94.7516 13.0998 93.7606C12.7661 92.965 12.6306 92.1897 12.6935 91.4349C12.7493 90.6773 12.9738 89.9927 13.3668 89.381C13.7578 88.7645 14.2862 88.277 14.9521 87.9186L15.8918 90.1591C15.5537 90.3807 15.2806 90.6411 15.0727 90.9402C14.8598 91.2413 14.7341 91.5721 14.6955 91.9324C14.6521 92.2947 14.7163 92.6809 14.8883 93.091C15.0951 93.584 15.3931 93.9586 15.7822 94.2149C16.1713 94.4711 16.6724 94.583 17.2854 94.5507C17.8984 94.5184 18.6426 94.3193 19.5182 93.9536C20.8388 93.4019 21.707 92.7926 22.1228 92.1255C22.5317 91.4557 22.5805 90.7497 22.2693 90.0078C22.0973 89.5977 21.857 89.2851 21.5482 89.0699C21.2346 88.8567 20.8859 88.7241 20.502 88.6722C20.1132 88.6224 19.7186 88.6409 19.3182 88.7279L18.3785 86.4873C18.9089 86.3403 19.4419 86.2611 19.9774 86.2496C20.508 86.2402 21.0215 86.3269 21.5178 86.5097C22.0141 86.6925 22.4745 87.0021 22.899 87.4386C23.3235 87.8751 23.6913 88.4643 24.0025 89.2063Z" fill="#222222"/>
<path d="M21.1537 79.449C21.2961 80.2407 21.2506 80.9612 21.0172 81.6105C20.7829 82.2547 20.3842 82.7938 19.8212 83.228C19.2572 83.6569 18.5499 83.9476 17.6992 84.1C16.8485 84.2523 16.0762 84.2267 15.3823 84.023C14.6875 83.8141 14.1102 83.4498 13.6504 82.93C13.1897 82.405 12.8877 81.744 12.7443 80.9471C12.601 80.1502 12.6518 79.4287 12.8965 78.7827C13.1361 78.1377 13.5457 77.5993 14.1253 77.1675C14.7049 76.7357 15.4279 76.4423 16.2942 76.2871C17.1084 76.1413 17.8567 76.1685 18.5392 76.3689C19.2156 76.565 19.7836 76.9229 20.2434 77.4427C20.7023 77.9573 21.0057 78.626 21.1537 79.449ZM19.4535 79.7454C19.3814 79.3444 19.2059 79.0425 18.927 78.8398C18.6481 78.637 18.3083 78.5151 17.9077 78.4739C17.5018 78.4337 17.0718 78.4543 16.6178 78.5356C16.1898 78.6123 15.7942 78.7342 15.431 78.9014C15.0678 79.0686 14.7908 79.2956 14.6 79.5825C14.4091 79.8693 14.3516 80.2237 14.4275 80.6456C14.4996 81.0467 14.6704 81.3521 14.9398 81.5619C15.203 81.7675 15.5354 81.8934 15.937 81.9398C16.3334 81.9871 16.7612 81.9696 17.2205 81.8873C17.6432 81.8116 18.041 81.6866 18.4137 81.5123C18.7812 81.339 19.0655 81.1079 19.2668 80.8192C19.4681 80.5305 19.5303 80.1726 19.4535 79.7454Z" fill="#222222"/>
<path d="M20.1627 73.4275L11.9397 73.2876L11.9787 71.0098L13.1397 71.0296C12.9404 70.8992 12.7497 70.7318 12.5676 70.5276C12.3803 70.318 12.2283 70.0561 12.1117 69.7419C11.9951 69.4276 11.9404 69.0562 11.9478 68.6276C11.9564 68.125 12.0624 67.6584 12.266 67.2279C12.4697 66.7921 12.7859 66.4428 13.2146 66.1802C13.6381 65.9175 14.1891 65.7919 14.8677 65.8035L20.2914 65.8958L20.2518 68.2132L15.1144 68.1258C14.6691 68.1182 14.3328 68.2448 14.1056 68.5056C13.8784 68.7663 13.7616 69.0872 13.7551 69.4682C13.7507 69.7221 13.7916 69.9689 13.8777 70.2086C13.9638 70.4429 14.0957 70.6357 14.2735 70.7869C14.4512 70.9381 14.6726 71.016 14.9377 71.0205L20.2023 71.1101L20.1627 73.4275Z" fill="#222222"/>
<path d="M21.3491 60.549C21.2181 61.2621 21.0255 61.7971 20.7713 62.1541C20.518 62.5059 20.2132 62.7272 19.8569 62.8181C19.5016 62.9037 19.1074 62.907 18.6745 62.8278L14.2699 62.0222L14.0291 63.3338L12.4409 63.0434L12.6947 61.6614L10.3599 60.6372L10.6581 59.0132L13.0912 59.4582L13.421 57.6625L15.017 57.9544L14.6872 59.7501L19.0008 60.523C19.199 60.5592 19.3519 60.563 19.4596 60.5343C19.563 60.4994 19.64 60.4328 19.6904 60.3344C19.7365 60.2298 19.7749 60.0943 19.8055 59.9277L20.0048 58.8425L21.413 59.1C21.4399 59.2179 21.4541 59.39 21.4557 59.6162C21.4573 59.8425 21.4217 60.1534 21.3491 60.549Z" fill="#222222"/>
<path d="M22.9039 55.1585C22.7271 55.6462 22.4743 56.0557 22.1456 56.3872C21.8186 56.7137 21.4391 56.9284 21.0071 57.0313C20.5701 57.1324 20.0998 57.0921 19.5961 56.9103C18.7485 56.6042 18.2198 56.056 18.0101 55.2657C17.7954 54.4735 17.9277 53.3929 18.4069 52.0241L18.7437 51.0483L18.28 50.8809C17.926 50.7531 17.6163 50.7595 17.3511 50.9001C17.0827 51.0339 16.8716 51.3206 16.7178 51.7603C16.6092 52.0756 16.5749 52.4037 16.6148 52.7445C16.6566 53.0804 16.8372 53.3678 17.1565 53.6069L16.499 55.4208C15.9514 55.1893 15.5513 54.8619 15.2987 54.4387C15.0429 54.0088 14.9189 53.511 14.9265 52.9454C14.9292 52.378 15.0478 51.7708 15.2823 51.1239C15.5673 50.3377 15.8961 49.7417 16.2687 49.336C16.6363 48.9285 17.0434 48.6843 17.49 48.6036C17.9333 48.516 18.4068 48.5632 18.9104 48.745L24.3479 50.708L23.6878 52.5293L22.2915 52.2278C22.7544 52.6932 23.0208 53.1636 23.0909 53.6391C23.1629 54.1096 23.1005 54.6161 22.9039 55.1585ZM21.7357 53.9011C21.8061 53.707 21.8397 53.5053 21.8366 53.296C21.8304 53.0799 21.7945 52.8756 21.7289 52.6831C21.6584 52.4888 21.5611 52.3215 21.4372 52.1811C21.3151 52.0357 21.1727 51.9308 21.01 51.8664L19.8656 51.4533L19.5965 52.2425C19.4698 52.6075 19.392 52.9621 19.3631 53.3062C19.3293 53.6485 19.3694 53.95 19.4836 54.2107C19.5995 54.4664 19.8146 54.6509 20.1287 54.7643C20.4877 54.894 20.8136 54.8737 21.1064 54.7037C21.3961 54.5269 21.6058 54.2594 21.7357 53.9011Z" fill="#222222"/>
<path d="M27.334 45.6231C26.9446 46.2786 26.4512 46.7772 25.8537 47.1189C25.2562 47.4605 24.5982 47.6187 23.8797 47.5935C23.1593 47.561 22.4205 47.3207 21.6633 46.8728C20.9335 46.441 20.3742 45.9194 19.9854 45.3079C19.5966 44.6965 19.3985 44.0441 19.3912 43.3508C19.3821 42.6502 19.5803 41.9585 19.9859 41.2757C20.3374 40.6839 20.7611 40.2456 21.2571 39.9608C21.7557 39.6714 22.2833 39.5252 22.8398 39.5222C23.399 39.5148 23.9426 39.6426 24.4705 39.9057L23.4849 41.5649C23.279 41.4861 23.055 41.4428 22.8131 41.435C22.5666 41.4245 22.33 41.4753 22.1032 41.5872C21.8719 41.6964 21.6751 41.8876 21.5129 42.1607C21.2371 42.625 21.1928 43.1094 21.3801 43.6139C21.5655 44.1112 22.0231 44.5757 22.7529 45.0075C23.4416 45.415 24.0728 45.5977 24.6464 45.5556C25.2154 45.5109 25.65 45.2359 25.9502 44.7306C26.1097 44.462 26.1761 44.1999 26.1493 43.9441C26.1251 43.6837 26.0516 43.4495 25.9287 43.2414C25.8011 43.0306 25.6657 42.8644 25.5222 42.7426L26.4835 41.1244C26.9527 41.445 27.3113 41.8479 27.5594 42.333C27.8029 42.8154 27.9125 43.3417 27.8883 43.9118C27.8622 44.4746 27.6774 45.045 27.334 45.6231Z" fill="#222222"/>
<path d="M32.4571 38.4792C31.9924 39.0364 31.5615 39.4083 31.1644 39.5948C30.7707 39.7773 30.3964 39.8209 30.0412 39.7256C29.6895 39.6261 29.3445 39.4359 29.0062 39.155L25.5646 36.2959L24.7097 37.3208L23.4688 36.29L24.3695 35.2101L22.8387 33.1743L23.8971 31.9053L25.7983 33.4847L26.9686 32.0815L28.2157 33.1175L27.0454 34.5206L30.4238 37.3065C30.5787 37.4352 30.7101 37.5133 30.8181 37.5411C30.9253 37.5613 31.0251 37.5409 31.1174 37.4799C31.209 37.4114 31.3091 37.3121 31.4177 37.182L32.125 36.334L33.2253 37.2481C33.1908 37.3639 33.1185 37.5208 33.0087 37.7187C32.8988 37.9166 32.7149 38.1701 32.4571 38.4792Z" fill="#222222"/>
<path d="M41.8368 30.3333C40.9135 30.9639 40.0691 31.3161 39.3037 31.3899C38.5354 31.4594 37.8318 31.2954 37.1931 30.898C36.5588 30.4976 35.9721 29.9044 35.4331 29.1183L31.458 23.3208L33.4075 21.9895L37.4815 27.9311C37.9666 28.6385 38.4921 29.0395 39.058 29.134C39.6209 29.224 40.1759 29.0823 40.7229 28.7087C41.0861 28.4607 41.3598 28.1712 41.5441 27.8402C41.7253 27.5048 41.7929 27.1348 41.7468 26.7303C41.7021 26.3184 41.5166 25.8744 41.1902 25.3984L37.1162 19.4568L39.0526 18.1344L43.0727 23.9974C43.5967 24.7617 43.9271 25.5107 44.064 26.2444C44.1978 26.9737 44.0895 27.6825 43.739 28.3707C43.3898 29.0516 42.7558 29.7058 41.8368 30.3333Z" fill="#222222"/>
<path d="M50.8317 25.5249C50.3021 25.7424 49.7569 25.8662 49.1959 25.8963C48.6378 25.9195 48.1104 25.8157 47.6138 25.5847C47.1201 25.3469 46.706 24.9475 46.3716 24.3868L48.2251 23.6255C48.4047 23.8665 48.6102 24.031 48.8415 24.1192C49.0777 24.2053 49.3178 24.2383 49.5618 24.2182C49.8038 24.1932 50.0228 24.1404 50.219 24.0598C50.6309 23.8907 50.9356 23.6911 51.1332 23.4612C51.3337 23.2243 51.3785 22.9713 51.2675 22.7022C51.1827 22.4967 51.0391 22.3639 50.8367 22.304C50.6391 22.2421 50.3556 22.2498 49.9861 22.3272L48.5325 22.598C47.8022 22.732 47.1614 22.7148 46.6103 22.5463C46.0621 22.3709 45.6563 21.971 45.3931 21.3466C45.2006 20.8935 45.1498 20.4366 45.2407 19.9758C45.3365 19.5129 45.5789 19.0787 45.9678 18.6729C46.3615 18.2651 46.9041 17.9192 47.5955 17.6353C48.5321 17.2506 49.3646 17.149 50.0931 17.3305C50.8265 17.51 51.3525 17.9721 51.6711 18.7168L49.8764 19.4538C49.7014 19.1824 49.4614 19.0177 49.1566 18.9598C48.8546 18.8949 48.5222 18.937 48.1594 19.0861C47.7916 19.2371 47.5148 19.428 47.329 19.6588C47.1433 19.8897 47.1059 20.1396 47.2168 20.4088C47.2996 20.6094 47.4632 20.7282 47.7078 20.7651C47.9504 20.7971 48.2947 20.7701 48.7409 20.6841L50.0916 20.4555C50.5606 20.3831 50.9648 20.383 51.3043 20.4554C51.6466 20.5208 51.9347 20.6285 52.1686 20.7785C52.4025 20.9285 52.5908 21.1001 52.7335 21.2932C52.8791 21.4795 52.9873 21.6583 53.0579 21.8295C53.2657 22.3336 53.3085 22.8196 53.1861 23.2876C53.0617 23.7507 52.7975 24.1739 52.3937 24.5572C51.9898 24.9405 51.4692 25.2631 50.8317 25.5249Z" fill="#222222"/>
<path d="M60.5539 17.3162L59.1935 16.639L60.5407 14.4627L58.1328 14.1538L58.4266 12.7477L60.7452 13.3824L60.2178 10.9723L61.7212 10.7545L61.8641 13.2283L63.9499 11.9315L64.5692 13.2054L62.4129 14.1835L64.2794 15.8541L63.1693 16.8972L61.5496 14.9342L60.5539 17.3162Z" fill="#222222"/>
</svg>
