<svg width="150" height="150" viewBox="0 0 150 150" fill="none" xmlns="http://www.w3.org/2000/svg">
<circle cx="75" cy="75" r="75" fill="#E5DF5D"/>
<path d="M85.8248 87.8144C92.3448 93.3712 98.8451 98.95 105.379 104.493C107.527 106.489 109.779 108.371 112.005 110.283C120.853 101.006 126.012 88.2835 125.996 75.4439C126.105 66.3714 123.69 57.2904 119.129 49.4536C115.358 42.9373 110.126 37.2759 103.931 33.005C94.7265 26.601 83.3642 23.4323 72.1839 24.0837C63.5658 24.5309 55.0774 27.239 47.7901 31.8682C41.1163 36.0805 35.439 41.8676 31.3578 48.6319C26.6756 56.3387 24.105 65.3151 24.0077 74.3381C23.8821 81.5454 25.3018 88.776 28.1693 95.3884C30.4557 100.693 33.6639 105.586 37.5675 109.835C48.6413 100.854 59.6439 91.7837 70.7113 82.7938C61.5142 93.8771 52.2634 104.914 43.0515 115.985C50.4799 121.588 59.4598 125.105 68.7218 125.972C68.9666 123.854 69.14 121.728 69.3763 119.609C72.0577 119.707 74.7411 119.677 77.4246 119.62C77.6524 121.744 77.8492 123.872 78.0664 126C88.1909 125.173 98.0122 121.155 105.867 114.71C96.443 103.799 86.973 92.9282 77.5247 82.0386C77.0649 81.4938 76.5452 80.9964 76.1897 80.3754C76.7595 80.7117 77.2673 81.1441 77.7913 81.5504C80.4642 83.6438 83.1604 85.709 85.8241 87.8151L85.8248 87.8144ZM116.335 88.186C115.557 90.531 114.718 92.8894 113.413 94.9998C112.252 97.0819 110.942 99.0757 109.518 100.984C102.469 96.3655 95.455 91.6946 88.3891 87.1044C88.4716 86.9065 88.5732 86.72 88.6945 86.5462C91.2672 83.263 94.6834 80.6962 98.4417 78.9242C101.735 77.3868 105.293 76.5637 108.803 75.6777C111.956 74.9196 115.119 74.199 118.29 73.5129C118.515 78.4664 117.815 83.4559 116.335 88.1853L116.335 88.186ZM92.3053 71.7261C92.6178 70.2474 93.8054 69.0159 95.2469 68.5927C97.3105 67.9215 99.7055 69.2618 100.352 71.3071C101.004 73.101 100.139 75.2594 98.5003 76.1949C97.4508 76.8548 96.0876 76.9763 94.9366 76.5206C93.0663 75.843 91.8349 73.6804 92.3053 71.7261ZM43.9732 45.0103C49.1991 39.5926 55.8539 35.5619 63.0869 33.484C69.2515 31.6993 75.8166 31.3171 82.1484 32.3854C91.6466 33.9355 100.544 38.8303 107.003 45.9676C111.367 50.7275 114.626 56.4864 116.497 62.6706C111.651 63.5848 106.787 64.4291 101.886 64.9746C97.137 65.5433 92.2235 65.1964 87.6994 63.5848C84.6781 62.4275 81.9269 60.6273 78.8146 59.7067C76.6143 59.0115 74.263 59.0595 71.9935 59.2814C67.2902 59.9505 63.3274 62.797 58.9062 64.321C56.1924 65.1745 53.3206 65.248 50.5003 65.3285C44.7279 65.2741 38.973 64.6877 33.2704 63.8236C35.1562 56.7732 38.9018 50.2435 43.974 45.0103H43.9732ZM53.1337 76.0062C50.903 76.2839 48.7055 74.4229 48.5644 72.1846C48.35 70.1308 49.9058 68.1285 51.9108 67.7328C54.1718 67.2354 56.6191 69.0032 56.8617 71.3093C57.2192 73.5525 55.3595 75.7915 53.1337 76.0062ZM40.2954 100.872C39.2981 99.7314 38.516 98.4243 37.7396 97.13C33.6428 90.2272 31.575 82.1622 31.7506 74.1361C35.7042 74.7069 39.6987 75.1047 43.5748 76.1228C47.8881 77.2151 52.0892 79.0415 55.5203 81.9269C57.404 83.5816 59.2574 85.3077 60.8132 87.2817C53.9878 91.831 47.1144 96.3125 40.2954 100.871V100.872ZM77.2412 117.635C74.6854 117.74 72.1345 117.674 69.5787 117.668C69.8128 114.984 70.1076 112.305 70.3587 109.623C72.3835 109.692 74.4139 109.748 76.4344 109.607C76.7335 112.28 76.9549 114.962 77.2405 117.635H77.2412ZM76.2567 107.675C74.3561 107.673 72.4568 107.673 70.5583 107.675C70.8009 104.991 71.0872 102.314 71.3517 99.6318C72.698 99.7081 74.0634 99.7688 75.4048 99.6077C75.7948 102.283 75.9464 104.989 76.2567 107.675ZM74.4858 89.6994C74.7524 92.3616 74.9908 95.028 75.275 97.6902C74.0309 97.6796 72.789 97.6839 71.5449 97.6881C71.8094 95.028 72.0605 92.3658 72.3299 89.7058C73.0492 89.7079 73.7672 89.7058 74.4865 89.6994H74.4858ZM72.5309 87.6971C72.7495 85.4412 72.9533 83.1824 73.2051 80.9307C73.3024 80.8742 73.4978 80.7633 73.5951 80.7096C73.8469 83.0376 74.0591 85.3698 74.2778 87.7021C73.6945 87.6957 73.1113 87.6957 72.5309 87.6978V87.6971ZM73.6367 79.4089C72.9406 79.7409 72.0562 79.3375 71.4258 79.8519C69.4059 81.3264 67.3938 82.8179 65.3091 84.2034C63.2047 81.6931 62.2808 78.2516 62.8034 75.0199C63.2956 71.524 65.2725 68.1885 68.3177 66.3452C70.4723 65.1272 72.978 64.3846 75.4682 64.6778C79.2639 65.1031 82.764 67.4029 84.7648 70.6472C87.2663 74.6646 86.8369 80.2518 83.848 83.8974C81.6758 82.4144 79.5368 80.8834 77.3541 79.4244C76.1185 79.2746 74.8681 79.6307 73.6367 79.4089Z" fill="#222222"/>
</svg>
