<svg width="24" height="24" viewBox="0 0 24 24" fill="none" xmlns="http://www.w3.org/2000/svg">
<g clip-path="url(#clip0_274_9714)">
<path d="M8.30762 11.077H5.07682C4.69218 11.077 4.36517 10.9425 4.09592 10.6732C3.82681 10.4039 3.69208 10.077 3.69208 9.6923V9.23097C3.69208 8.21167 4.05272 7.34156 4.77396 6.62032C5.49515 5.89933 6.36542 5.53868 7.38461 5.53868H8.30762C8.55758 5.53868 8.77384 5.4473 8.95662 5.26467C9.13929 5.08195 9.23063 4.86568 9.23063 4.61567V2.76935C9.23063 2.51939 9.13924 2.30292 8.95662 2.1202C8.7739 1.93773 8.55763 1.84619 8.30762 1.84619H7.38461C6.38451 1.84619 5.43039 2.04109 4.52163 2.43033C3.61297 2.81982 2.82701 3.34631 2.16347 4.00986C1.49997 4.67311 0.973626 5.45912 0.584185 6.36788C0.194745 7.27654 0 8.23092 0 9.23092V19.3845C0 20.1542 0.269107 20.8077 0.807574 21.3463C1.34609 21.8847 2.00009 22.1539 2.76927 22.1539H8.30797C9.0771 22.1539 9.7309 21.8847 10.2695 21.3463C10.8078 20.8077 11.0771 20.1542 11.0771 19.3845V13.8463C11.0771 13.0768 10.8078 12.4233 10.2691 11.8846C9.7308 11.3463 9.07675 11.077 8.30762 11.077Z" fill="#222222"/>
<path d="M23.1932 11.8846C22.6549 11.3463 22.001 11.077 21.2317 11.077H18.0009C17.6165 11.077 17.2892 10.9425 17.0204 10.6732C16.751 10.4039 16.6166 10.077 16.6166 9.6923V9.23097C16.6166 8.21167 16.9772 7.34156 17.6981 6.62032C18.419 5.89933 19.2892 5.53868 20.3089 5.53868H21.2317C21.4818 5.53868 21.6982 5.4473 21.8808 5.26467C22.0633 5.08195 22.155 4.86568 22.155 4.61567V2.76935C22.155 2.51939 22.0634 2.30292 21.8808 2.1202C21.6982 1.93773 21.4818 1.84619 21.2317 1.84619H20.3089C19.3083 1.84619 18.3544 2.04109 17.4454 2.43033C16.5368 2.81982 15.7511 3.34631 15.0876 4.00986C14.424 4.67311 13.8975 5.45912 13.5082 6.36788C13.1188 7.27654 12.9238 8.23092 12.9238 9.23092V19.3845C12.9238 20.1542 13.1932 20.8077 13.7315 21.3463C14.2699 21.8847 14.9237 22.1539 15.693 22.1539H21.2314C22.0007 22.1539 22.6545 21.8847 23.1928 21.3463C23.7316 20.8077 24.0004 20.1542 24.0004 19.3845V13.8463C24.0004 13.0768 23.7316 12.4233 23.1932 11.8846Z" fill="#222222"/>
</g>
<defs>
<clipPath id="clip0_274_9714">
<rect width="24" height="24" fill="white"/>
</clipPath>
</defs>
</svg>
