<svg width="24" height="24" viewBox="0 0 24 24" fill="none" xmlns="http://www.w3.org/2000/svg">
<path d="M15.2913 2.14258C16.2124 2.83339 16.8928 3.7965 17.2361 4.89549C17.5794 5.99447 17.5682 7.17361 17.2041 8.26588C16.84 9.35816 16.1415 10.3082 15.2074 10.9814C14.2734 11.6546 13.1512 12.0169 11.9999 12.0169C10.8485 12.0169 9.72635 11.6546 8.79232 10.9814C7.85829 10.3082 7.15976 9.35816 6.79567 8.26588C6.43158 7.17361 6.42039 5.99447 6.76369 4.89549C7.10698 3.7965 7.78736 2.83339 8.70845 2.14258" stroke="#222222" stroke-width="1.5" stroke-linecap="round" stroke-linejoin="round"/>
<path d="M0.856934 15.7194C0.992809 14.5757 1.48524 13.5037 2.26443 12.6555C3.04362 11.8073 4.07004 11.2258 5.19817 10.9935C6.3263 10.7613 7.49892 10.89 8.54981 11.3615C9.60069 11.8329 10.4765 12.6232 11.0531 13.6203C11.6297 14.6174 11.8779 15.7706 11.7624 16.9166C11.6469 18.0626 11.1737 19.1432 10.4097 20.0051C9.64573 20.8671 8.62984 21.4668 7.50602 21.7191C6.3822 21.9714 5.20747 21.8635 4.14836 21.4109" stroke="#222222" stroke-width="1.5" stroke-linecap="round" stroke-linejoin="round"/>
<path d="M19.8511 21.4103C18.7953 21.8587 17.6252 21.9637 16.5064 21.7104C15.3876 21.4572 14.3768 20.8585 13.6169 19.9992C12.8571 19.1398 12.3867 18.0633 12.2724 16.9219C12.158 15.7805 12.4055 14.6321 12.9797 13.6391C13.554 12.6461 14.426 11.8588 15.4723 11.3886C16.5186 10.9185 17.6863 10.7893 18.8101 11.0192C19.9339 11.2492 20.957 11.8268 21.7345 12.6702C22.512 13.5136 23.0046 14.5801 23.1425 15.7189" stroke="#222222" stroke-width="1.5" stroke-linecap="round" stroke-linejoin="round"/>
</svg>
