<svg width="24" height="24" viewBox="0 0 24 24" fill="none" xmlns="http://www.w3.org/2000/svg">
<path d="M21.4284 17.9984C21.883 17.9984 22.3191 17.8178 22.6405 17.4963C22.962 17.1748 23.1426 16.7388 23.1426 16.2841V12.8556C23.1426 12.4009 22.962 11.9649 22.6405 11.6434C22.3191 11.3219 21.883 11.1413 21.4284 11.1413H18.8569L17.5369 7.16414C17.4177 6.80931 17.1855 6.50329 16.876 6.29279C16.5664 6.0823 16.1965 5.97891 15.8226 5.99843H8.94836C8.57453 5.97891 8.20459 6.0823 7.89505 6.29279C7.5855 6.50329 7.35335 6.80931 7.23408 7.16414L5.99979 11.1413H2.57122C2.11656 11.1413 1.68053 11.3219 1.35904 11.6434C1.03755 11.9649 0.856934 12.4009 0.856934 12.8556V16.2841C0.856934 16.7388 1.03755 17.1748 1.35904 17.4963C1.68053 17.8178 2.11656 17.9984 2.57122 17.9984" stroke="#222222" stroke-width="1.5" stroke-linecap="round" stroke-linejoin="round"/>
<path d="M5.99986 21.4275C7.89341 21.4275 9.42843 19.8924 9.42843 17.9989C9.42843 16.1053 7.89341 14.5703 5.99986 14.5703C4.10631 14.5703 2.57129 16.1053 2.57129 17.9989C2.57129 19.8924 4.10631 21.4275 5.99986 21.4275Z" stroke="#222222" stroke-width="1.5" stroke-linecap="round" stroke-linejoin="round"/>
<path d="M17.9999 21.4275C19.8934 21.4275 21.4284 19.8924 21.4284 17.9989C21.4284 16.1053 19.8934 14.5703 17.9999 14.5703C16.1063 14.5703 14.5713 16.1053 14.5713 17.9989C14.5713 19.8924 16.1063 21.4275 17.9999 21.4275Z" stroke="#222222" stroke-width="1.5" stroke-linecap="round" stroke-linejoin="round"/>
<path d="M9.42822 18H14.5711" stroke="#222222" stroke-width="1.5" stroke-linecap="round" stroke-linejoin="round"/>
<path d="M12 5.99888V2.57031" stroke="#222222" stroke-width="1.5" stroke-linecap="round" stroke-linejoin="round"/>
</svg>
