<svg width="24" height="24" viewBox="0 0 24 24" fill="none" xmlns="http://www.w3.org/2000/svg">
<path d="M8.96551 3.85718L9.70265 1.95432C9.82697 1.63214 10.0457 1.35502 10.3302 1.15926C10.6146 0.963487 10.9516 0.858198 11.2969 0.857178H12.7026C13.048 0.858198 13.3849 0.963487 13.6694 1.15926C13.9539 1.35502 14.1726 1.63214 14.2969 1.95432L15.0341 3.85718L17.5369 5.29718L19.5598 4.98861C19.8966 4.94289 20.2394 4.99833 20.5447 5.1479C20.8499 5.29747 21.1038 5.53441 21.2741 5.82861L21.9598 7.02861C22.1355 7.32749 22.2165 7.67263 22.192 8.01847C22.1675 8.36431 22.0387 8.6946 21.8226 8.96575L20.5712 10.56V13.44L21.8569 15.0343C22.073 15.3055 22.2018 15.6358 22.2263 15.9816C22.2507 16.3274 22.1698 16.6726 21.9941 16.9715L21.3084 18.1715C21.1381 18.4657 20.8842 18.7026 20.579 18.8522C20.2737 19.0017 19.9309 19.0572 19.5941 19.0115L17.5712 18.7029L15.0684 20.1429L14.3312 22.0457C14.2069 22.3679 13.9882 22.645 13.7037 22.8408C13.4192 23.0366 13.0823 23.1419 12.7369 23.1429H11.2969C10.9516 23.1419 10.6146 23.0366 10.3302 22.8408C10.0457 22.645 9.82697 22.3679 9.70265 22.0457L8.96551 20.1429L6.46265 18.7029L4.43979 19.0115C4.10296 19.0572 3.76015 19.0017 3.45491 18.8522C3.14966 18.7026 2.89578 18.4657 2.72551 18.1715L2.03979 16.9715C1.86408 16.6726 1.78313 16.3274 1.80761 15.9816C1.83209 15.6358 1.96087 15.3055 2.17694 15.0343L3.42836 13.44V10.56L2.14265 8.96575C1.92658 8.6946 1.79781 8.36431 1.77332 8.01847C1.74884 7.67263 1.8298 7.32749 2.00551 7.02861L2.69122 5.82861C2.86149 5.53441 3.11538 5.29747 3.42062 5.1479C3.72586 4.99833 4.06868 4.94289 4.40551 4.98861L6.42836 5.29718L8.96551 3.85718ZM8.57122 12C8.57122 12.6781 8.7723 13.341 9.14904 13.9048C9.52578 14.4687 10.0612 14.9081 10.6877 15.1676C11.3142 15.4271 12.0036 15.495 12.6687 15.3627C13.3338 15.2304 13.9447 14.9039 14.4242 14.4244C14.9037 13.9449 15.2302 13.334 15.3625 12.6689C15.4948 12.0038 15.4269 11.3145 15.1674 10.688C14.9079 10.0615 14.4684 9.52602 13.9046 9.14928C13.3408 8.77255 12.6779 8.57146 11.9998 8.57146C11.0905 8.57146 10.2184 8.93269 9.57543 9.57567C8.93244 10.2187 8.57122 11.0907 8.57122 12V12Z" stroke="#222222" stroke-width="1.5" stroke-linecap="round" stroke-linejoin="round"/>
</svg>
