<svg width="30" height="30" viewBox="0 0 30 30" fill="none" xmlns="http://www.w3.org/2000/svg">
<path d="M11.207 4.82031L12.1284 2.44174C12.2838 2.03902 12.5572 1.69262 12.9128 1.44791C13.2684 1.2032 13.6896 1.07159 14.1213 1.07031H15.8784C16.3101 1.07159 16.7313 1.2032 17.0869 1.44791C17.4425 1.69262 17.7159 2.03902 17.8713 2.44174L18.7927 4.82031L21.9213 6.62031L24.4499 6.2346C24.8709 6.17745 25.2994 6.24676 25.681 6.43372C26.0625 6.62068 26.3799 6.91685 26.5927 7.2846L27.4499 8.7846C27.6695 9.1582 27.7707 9.58963 27.7401 10.0219C27.7095 10.4542 27.5485 10.8671 27.2784 11.206L25.7142 13.1989V16.7989L27.3213 18.7917C27.5914 19.1307 27.7523 19.5435 27.783 19.9758C27.8136 20.4081 27.7124 20.8396 27.4927 21.2132L26.6356 22.7132C26.4227 23.0809 26.1054 23.3771 25.7238 23.564C25.3423 23.751 24.9138 23.8203 24.4927 23.7632L21.9642 23.3775L18.8356 25.1775L17.9141 27.556C17.7588 27.9587 17.4854 28.3051 17.1298 28.5499C16.7742 28.7946 16.353 28.9262 15.9213 28.9275H14.1213C13.6896 28.9262 13.2684 28.7946 12.9128 28.5499C12.5572 28.3051 12.2838 27.9587 12.1284 27.556L11.207 25.1775L8.07844 23.3775L5.54986 23.7632C5.12883 23.8203 4.70031 23.751 4.31875 23.564C3.9372 23.3771 3.61984 23.0809 3.40701 22.7132L2.54986 21.2132C2.33022 20.8396 2.22903 20.4081 2.25963 19.9758C2.29024 19.5435 2.45121 19.1307 2.72129 18.7917L4.28558 16.7989V13.1989L2.67843 11.206C2.40835 10.8671 2.24738 10.4542 2.21678 10.0219C2.18617 9.58963 2.28737 9.1582 2.50701 8.7846L3.36415 7.2846C3.57699 6.91685 3.89434 6.62068 4.2759 6.43372C4.65745 6.24676 5.08597 6.17745 5.50701 6.2346L8.03558 6.62031L11.207 4.82031ZM10.7141 14.9989C10.7141 15.8465 10.9655 16.6751 11.4364 17.3799C11.9073 18.0847 12.5767 18.634 13.3598 18.9584C14.1429 19.2827 15.0046 19.3676 15.836 19.2022C16.6673 19.0369 17.431 18.6287 18.0303 18.0293C18.6297 17.43 19.0379 16.6663 19.2032 15.835C19.3686 15.0036 19.2837 14.1419 18.9593 13.3588C18.635 12.5757 18.0857 11.9064 17.3809 11.4354C16.6761 10.9645 15.8475 10.7132 14.9999 10.7132C13.8632 10.7132 12.7731 11.1647 11.9694 11.9684C11.1657 12.7722 10.7141 13.8622 10.7141 14.9989V14.9989Z" stroke="#222222" stroke-width="1.5" stroke-linecap="round" stroke-linejoin="round"/>
</svg>
