<svg width="24" height="24" viewBox="0 0 24 24" fill="none" xmlns="http://www.w3.org/2000/svg">
<g clip-path="url(#clip0_371_282)">
<path d="M11.9996 16.2902C14.3665 16.2902 16.2853 14.3714 16.2853 12.0045C16.2853 9.63753 14.3665 7.71875 11.9996 7.71875C9.63265 7.71875 7.71387 9.63753 7.71387 12.0045C7.71387 14.3714 9.63265 16.2902 11.9996 16.2902Z" stroke="#222222" stroke-width="1.5" stroke-linecap="round" stroke-linejoin="round"/>
<path d="M23.1426 12.0022L19.1312 14.9508L19.8855 19.8879L14.9484 19.1337L11.9998 23.1451L9.05122 19.1337L4.11408 19.8879L4.86836 14.9508L0.856934 12.0022L4.86836 9.05366L4.11408 4.11652L9.05122 4.8708L11.9998 0.859375L14.9484 4.8708L19.8855 4.11652L19.1312 9.05366L23.1426 12.0022Z" stroke="#222222" stroke-width="1.5" stroke-linecap="round" stroke-linejoin="round"/>
</g>
<defs>
<clipPath id="clip0_371_282">
<rect width="24" height="24" fill="white"/>
</clipPath>
</defs>
</svg>
