<svg width="40" height="40" viewBox="0 0 40 40" fill="none" xmlns="http://www.w3.org/2000/svg">
<path d="M35 12.7266V22.5016C35 23.3223 34.8383 24.135 34.5242 24.8933C34.2102 25.6516 33.7498 26.3406 33.1694 26.921C32.5891 27.5013 31.9001 27.9617 31.1418 28.2758C30.3835 28.5899 29.5708 28.7516 28.75 28.7516H12.5V30.0016C12.503 30.9952 12.899 31.9473 13.6016 32.6499C14.3042 33.3526 15.2564 33.7486 16.25 33.7516H30.6625C30.858 33.7541 31.0504 33.8011 31.225 33.8891L35.6875 36.1141C35.8621 36.202 36.0545 36.249 36.25 36.2516C36.4839 36.2514 36.7132 36.1865 36.9125 36.0641C37.0926 35.9515 37.2411 35.7948 37.3439 35.6089C37.4467 35.423 37.5004 35.214 37.5 35.0016V16.2516C37.4978 15.4779 37.2564 14.7238 36.8088 14.0927C36.3613 13.4617 35.7294 12.9845 35 12.7266Z" fill="#222222"/>
<path d="M32.5 22.5V7.5C32.5 6.50544 32.1049 5.55161 31.4017 4.84835C30.6984 4.14509 29.7446 3.75 28.75 3.75H6.25C5.25544 3.75 4.30161 4.14509 3.59835 4.84835C2.89509 5.55161 2.5 6.50544 2.5 7.5V30C2.49991 30.2355 2.56637 30.4663 2.69173 30.6657C2.81708 30.8651 2.99623 31.0251 3.20852 31.1271C3.42082 31.2291 3.65762 31.2691 3.89164 31.2424C4.12566 31.2157 4.34738 31.1235 4.53125 30.9762L10.0962 26.5238C10.3173 26.3469 10.5919 26.2504 10.875 26.25H28.75C29.7446 26.25 30.6984 25.8549 31.4017 25.1517C32.1049 24.4484 32.5 23.4946 32.5 22.5ZM18.65 20.475C18.5939 20.6301 18.5043 20.771 18.3876 20.8876C18.271 21.0043 18.1301 21.0939 17.975 21.15C17.8253 21.2159 17.6636 21.2499 17.5 21.2499C17.3364 21.2499 17.1747 21.2159 17.025 21.15C16.8699 21.0939 16.729 21.0043 16.6124 20.8876C16.4957 20.771 16.4061 20.6301 16.35 20.475C16.2859 20.3247 16.252 20.1633 16.25 20C16.2549 19.6691 16.3843 19.3522 16.6125 19.1125C16.7341 19.0022 16.8736 18.9134 17.025 18.85C17.1741 18.782 17.3361 18.7468 17.5 18.7468C17.6639 18.7468 17.8259 18.782 17.975 18.85C18.1264 18.9134 18.2659 19.0022 18.3875 19.1125C18.6177 19.3509 18.7475 19.6686 18.75 20C18.748 20.1633 18.7141 20.3247 18.65 20.475ZM18.8888 16.1C18.8207 16.1408 18.7651 16.1994 18.7279 16.2694C18.6907 16.3394 18.6733 16.4183 18.6775 16.4975C18.6775 16.829 18.5458 17.147 18.3114 17.3814C18.077 17.6158 17.759 17.7475 17.4275 17.7475C17.096 17.7475 16.778 17.6158 16.5436 17.3814C16.3092 17.147 16.1775 16.829 16.1775 16.4975C16.169 15.9239 16.3307 15.3607 16.6422 14.879C16.9537 14.3973 17.4009 14.0188 17.9275 13.7913C18.1904 13.6822 18.4111 13.4914 18.557 13.247C18.7028 13.0027 18.7661 12.7178 18.7373 12.4347C18.7086 12.1516 18.5893 11.8853 18.3973 11.6753C18.2053 11.4652 17.9507 11.3227 17.6713 11.2688C17.3598 11.212 17.0383 11.2673 16.7637 11.4249C16.4891 11.5826 16.2792 11.8324 16.1713 12.13C16.058 12.4396 15.827 12.6918 15.5286 12.8319C15.2302 12.972 14.8885 12.9885 14.578 12.8779C14.2675 12.7673 14.0132 12.5385 13.8705 12.2414C13.7279 11.9442 13.7084 11.6027 13.8163 11.2913C14.0288 10.6903 14.3883 10.1521 14.8619 9.72546C15.3355 9.29885 15.9083 8.9974 16.5281 8.84854C17.1479 8.69967 17.795 8.70812 18.4107 8.8731C19.0264 9.03808 19.5911 9.35437 20.0535 9.79319C20.5158 10.232 20.8611 10.7795 21.0579 11.3857C21.2548 11.992 21.2969 12.6378 21.1806 13.2646C21.0642 13.8913 20.793 14.479 20.3917 14.9742C19.9903 15.4694 19.4715 15.8564 18.8825 16.1H18.8888Z" fill="#222222"/>
</svg>
