<svg width="22" height="22" viewBox="0 0 22 22" fill="none" xmlns="http://www.w3.org/2000/svg">
<g clip-path="url(#clip0_274_9934)">
<path d="M17.387 13.6286C16.9367 13.1597 16.3934 12.9089 15.8176 12.9089C15.2465 12.9089 14.6986 13.155 14.2296 13.624L12.7624 15.0866C12.6416 15.0216 12.5209 14.9613 12.4048 14.9009C12.2377 14.8173 12.0798 14.7384 11.9452 14.6548C10.5708 13.7819 9.32172 12.6443 8.12376 11.1724C7.54336 10.4387 7.15332 9.82117 6.87008 9.19433C7.25083 8.84609 7.60372 8.48392 7.94732 8.13567C8.07733 8.00566 8.20734 7.87101 8.33735 7.741C9.31244 6.76591 9.31244 5.50295 8.33735 4.52787L7.06974 3.26026C6.9258 3.11632 6.77722 2.96774 6.63792 2.81915C6.35933 2.53127 6.0668 2.2341 5.76499 1.95551C5.3146 1.50975 4.77598 1.27295 4.2095 1.27295C3.64303 1.27295 3.09512 1.50975 2.6308 1.95551C2.62615 1.96015 2.62615 1.96015 2.62151 1.96479L1.0428 3.55743C0.448469 4.15176 0.109512 4.87611 0.0352196 5.71654C-0.0762185 7.07237 0.323101 8.33533 0.629556 9.16183C1.38176 11.1909 2.50543 13.0714 4.18164 15.0866C6.21539 17.515 8.66238 19.4327 11.4576 20.7839C12.5256 21.29 13.951 21.889 15.5437 21.9911C15.6412 21.9958 15.7433 22.0004 15.8362 22.0004C16.9088 22.0004 17.8096 21.615 18.5154 20.8489C18.52 20.8396 18.5293 20.835 18.5339 20.8257C18.7754 20.5332 19.054 20.2685 19.3465 19.9852C19.5462 19.7949 19.7505 19.5952 19.9501 19.3863C20.4098 18.908 20.6513 18.3508 20.6513 17.7797C20.6513 17.2039 20.4052 16.6514 19.9362 16.1871L17.387 13.6286ZM19.0493 18.518C19.0447 18.518 19.0447 18.5226 19.0493 18.518C18.8682 18.713 18.6825 18.8894 18.4829 19.0845C18.181 19.3723 17.8746 19.6742 17.5867 20.0131C17.1177 20.5146 16.5652 20.7514 15.8408 20.7514C15.7712 20.7514 15.6969 20.7514 15.6273 20.7467C14.2482 20.6585 12.9667 20.1199 12.0055 19.6602C9.37744 18.388 7.06975 16.5817 5.15208 14.2926C3.56873 12.3842 2.51007 10.6198 1.80894 8.72537C1.37712 7.5692 1.21925 6.66841 1.2889 5.81869C1.33533 5.27543 1.54428 4.82504 1.92967 4.43965L3.51301 2.8563C3.74053 2.64271 3.98198 2.52663 4.21879 2.52663C4.51131 2.52663 4.74812 2.70307 4.8967 2.85165C4.90135 2.8563 4.90599 2.86094 4.91063 2.86558C5.19387 3.13025 5.46318 3.4042 5.74642 3.69673C5.89036 3.84531 6.03894 3.99389 6.18753 4.14712L7.45513 5.41473C7.94732 5.90691 7.94732 6.36195 7.45513 6.85414C7.32048 6.98879 7.19047 7.12344 7.05581 7.25346C6.66578 7.65277 6.29432 8.02424 5.89036 8.38641C5.88107 8.3957 5.87179 8.40034 5.86714 8.40963C5.46782 8.80894 5.54212 9.19898 5.62569 9.46364C5.63034 9.47757 5.63498 9.4915 5.63962 9.50543C5.96929 10.3041 6.43362 11.0563 7.13939 11.9524L7.14404 11.9571C8.42557 13.5358 9.77676 14.7662 11.2672 15.7088C11.4576 15.8295 11.6526 15.927 11.8384 16.0199C12.0055 16.1035 12.1634 16.1824 12.298 16.266C12.3166 16.2753 12.3352 16.2892 12.3538 16.2985C12.5116 16.3774 12.6602 16.4146 12.8134 16.4146C13.1988 16.4146 13.4403 16.1731 13.5192 16.0942L15.1072 14.5062C15.2651 14.3483 15.5158 14.158 15.8083 14.158C16.0962 14.158 16.333 14.3391 16.477 14.4969C16.4816 14.5016 16.4816 14.5016 16.4863 14.5062L19.0447 17.0646C19.5229 17.5383 19.5229 18.0258 19.0493 18.518Z" fill="#222222"/>
<path d="M11.8895 5.23324C13.106 5.43755 14.2111 6.01331 15.0933 6.89553C15.9756 7.77774 16.5467 8.88284 16.7556 10.0994C16.8067 10.4058 17.0714 10.6194 17.3732 10.6194C17.4103 10.6194 17.4428 10.6148 17.48 10.6101C17.8236 10.5544 18.0511 10.2294 17.9954 9.88578C17.7446 8.41387 17.0482 7.07197 15.9849 6.00867C14.9215 4.94536 13.5796 4.24887 12.1077 3.99814C11.7641 3.94242 11.4438 4.16994 11.3834 4.5089C11.323 4.84785 11.5459 5.17752 11.8895 5.23324Z" fill="#222222"/>
<path d="M21.9745 9.70515C21.5612 7.28137 20.419 5.07583 18.6638 3.32068C16.9087 1.56553 14.7031 0.423294 12.2794 0.0100448C11.9404 -0.0503175 11.62 0.181845 11.5597 0.520802C11.5039 0.864403 11.7315 1.18479 12.0751 1.24515C14.2388 1.61197 16.2122 2.63812 17.7816 4.2029C19.351 5.77232 20.3725 7.7457 20.7394 9.90945C20.7904 10.2159 21.0551 10.4295 21.3569 10.4295C21.3941 10.4295 21.4266 10.4249 21.4637 10.4202C21.8027 10.3691 22.0348 10.0441 21.9745 9.70515Z" fill="#222222"/>
</g>
<defs>
<clipPath id="clip0_274_9934">
<rect width="22" height="22" fill="white"/>
</clipPath>
</defs>
</svg>
