<svg width="24" height="24" viewBox="0 0 24 24" fill="none" xmlns="http://www.w3.org/2000/svg">
<g clip-path="url(#clip0_446_10865)">
<path d="M12 17.1772V18.9087" stroke="#222222" stroke-width="1.5" stroke-linecap="round" stroke-linejoin="round"/>
<path d="M12 8.58862V10.2001" stroke="#222222" stroke-width="1.5" stroke-linecap="round" stroke-linejoin="round"/>
<path d="M11.9996 23.1257C17.9996 23.1257 22.2853 20.9999 22.2853 16.2685C22.2853 11.1257 19.7139 7.69709 14.571 5.12566L16.5939 2.51995C16.6966 2.34899 16.7524 2.15389 16.7554 1.95444C16.7585 1.75499 16.7088 1.55827 16.6113 1.38423C16.5139 1.21019 16.3721 1.06501 16.2005 0.963401C16.0288 0.861796 15.8333 0.807378 15.6339 0.805664H8.3653C8.16583 0.807378 7.97036 0.861796 7.7987 0.963401C7.62705 1.06501 7.4853 1.21019 7.38784 1.38423C7.29038 1.55827 7.24066 1.75499 7.24372 1.95444C7.24679 2.15389 7.30253 2.34899 7.4053 2.51995L9.42815 5.14281C4.2853 7.73138 1.71387 11.1599 1.71387 16.3028C1.71387 20.9999 5.99958 23.1257 11.9996 23.1257Z" stroke="#222222" stroke-width="1.5" stroke-linecap="round" stroke-linejoin="round"/>
<path d="M10.2857 16.3885C10.4948 16.6368 10.7581 16.8339 11.0553 16.9646C11.3524 17.0954 11.6756 17.1563 12 17.1428C12.4957 17.1766 12.9853 17.0168 13.3658 16.6971C13.7462 16.3774 13.9879 15.9227 14.04 15.4285C13.9879 14.9343 13.7462 14.4796 13.3658 14.1599C12.9853 13.8402 12.4957 13.6804 12 13.7142C11.5042 13.748 11.0146 13.5883 10.6342 13.2686C10.2537 12.9489 10.0121 12.4941 9.95996 11.9999C10.0079 11.504 10.2484 11.0466 10.6298 10.7261C11.0113 10.4056 11.5032 10.2474 12 10.2856C12.3186 10.2661 12.6376 10.3175 12.9341 10.4361C13.2305 10.5547 13.4969 10.7375 13.7142 10.9714" stroke="#222222" stroke-width="1.5" stroke-linecap="round" stroke-linejoin="round"/>
</g>
<defs>
<clipPath id="clip0_446_10865">
<rect width="24" height="24" fill="white"/>
</clipPath>
</defs>
</svg>
