<svg width="20" height="20" viewBox="0 0 20 20" fill="none" xmlns="http://www.w3.org/2000/svg">
<g clip-path="url(#clip0_351_20826)">
<path d="M10 14.3125V15.7554" stroke="#222222" stroke-width="1.5" stroke-linecap="round" stroke-linejoin="round"/>
<path d="M10 7.15625V8.49911" stroke="#222222" stroke-width="1.5" stroke-linecap="round" stroke-linejoin="round"/>
<path d="M10.0001 19.2719C15.0001 19.2719 18.5716 17.5004 18.5716 13.5576C18.5716 9.27187 16.4287 6.41473 12.143 4.27188L13.8287 2.10045C13.9143 1.95798 13.9608 1.7954 13.9634 1.62919C13.9659 1.46298 13.9245 1.29905 13.8433 1.15401C13.762 1.00898 13.6439 0.887994 13.5009 0.803323C13.3578 0.718651 13.1949 0.673303 13.0287 0.671875H6.97157C6.80535 0.673303 6.64246 0.718651 6.49941 0.803323C6.35636 0.887994 6.23824 1.00898 6.15702 1.15401C6.0758 1.29905 6.03437 1.46298 6.03692 1.62919C6.03948 1.7954 6.08593 1.95798 6.17157 2.10045L7.85728 4.28616C3.57157 6.4433 1.42871 9.30045 1.42871 13.5862C1.42871 17.5004 5.00014 19.2719 10.0001 19.2719Z" stroke="#222222" stroke-width="1.5" stroke-linecap="round" stroke-linejoin="round"/>
<path d="M8.57123 13.6568C8.74554 13.8637 8.96493 14.0279 9.21256 14.1369C9.4602 14.2459 9.7295 14.2966 9.9998 14.2854C10.413 14.3135 10.8209 14.1804 11.138 13.914C11.455 13.6476 11.6564 13.2686 11.6998 12.8568C11.6564 12.445 11.455 12.066 11.138 11.7996C10.8209 11.5332 10.413 11.4001 9.9998 11.4282C9.58665 11.4564 9.17867 11.3233 8.86164 11.0569C8.54461 10.7904 8.34321 10.4115 8.2998 9.99965C8.33973 9.58638 8.54015 9.20525 8.85801 8.93814C9.17588 8.67102 9.58583 8.53923 9.9998 8.57108C10.2654 8.55484 10.5312 8.59766 10.7782 8.69646C11.0252 8.79527 11.2473 8.94761 11.4284 9.14251" stroke="#222222" stroke-width="1.5" stroke-linecap="round" stroke-linejoin="round"/>
</g>
<defs>
<clipPath id="clip0_351_20826">
<rect width="20" height="20" fill="white"/>
</clipPath>
</defs>
</svg>
