<svg width="24" height="24" viewBox="0 0 24 24" fill="none" xmlns="http://www.w3.org/2000/svg">
<g clip-path="url(#clip0_351_20598)">
<path d="M11.9998 9.4269C18.1538 9.4269 23.1426 7.50812 23.1426 5.14118C23.1426 2.77425 18.1538 0.855469 11.9998 0.855469C5.84576 0.855469 0.856934 2.77425 0.856934 5.14118C0.856934 7.50812 5.84576 9.4269 11.9998 9.4269Z" stroke="#222222" stroke-width="1.5" stroke-linecap="round" stroke-linejoin="round"/>
<path d="M0.856934 5.14062V18.8549C0.856934 21.2206 5.84551 23.1406 11.9998 23.1406C18.1541 23.1406 23.1426 21.2206 23.1426 18.8549V5.14062" stroke="#222222" stroke-width="1.5" stroke-linecap="round" stroke-linejoin="round"/>
<path d="M23.1426 12C23.1426 14.3657 18.1541 16.2857 11.9998 16.2857C5.84551 16.2857 0.856934 14.3657 0.856934 12" stroke="#222222" stroke-width="1.5" stroke-linecap="round" stroke-linejoin="round"/>
</g>
<defs>
<clipPath id="clip0_351_20598">
<rect width="24" height="24" fill="white"/>
</clipPath>
</defs>
</svg>
