<svg width="30" height="30" viewBox="0 0 30 30" fill="none" xmlns="http://www.w3.org/2000/svg">
<g clip-path="url(#clip0_524_35327)">
<path d="M3.21512 12.8572H5.35798C5.64214 12.8572 5.91466 12.9701 6.11559 13.171C6.31653 13.3719 6.42941 13.6444 6.42941 13.9286V19.2857C6.42941 19.5699 6.31653 19.8424 6.11559 20.0434C5.91466 20.2443 5.64214 20.3572 5.35798 20.3572H3.21512C2.6468 20.3572 2.10176 20.1314 1.69989 19.7295C1.29803 19.3277 1.07227 18.7826 1.07227 18.2143V15C1.07227 14.4317 1.29803 13.8867 1.69989 13.4848C2.10176 13.0829 2.6468 12.8572 3.21512 12.8572V12.8572Z" stroke="#E5DF5D" stroke-width="1.5" stroke-linecap="round" stroke-linejoin="round"/>
<path d="M26.7868 20.3572H24.644C24.3598 20.3572 24.0873 20.2443 23.8864 20.0434C23.6854 19.8424 23.5725 19.5699 23.5725 19.2857V13.9286C23.5725 13.6444 23.6854 13.3719 23.8864 13.171C24.0873 12.9701 24.3598 12.8572 24.644 12.8572H26.7868C27.3552 12.8572 27.9002 13.0829 28.3021 13.4848C28.7039 13.8867 28.9297 14.4317 28.9297 15V18.2143C28.9297 18.7826 28.7039 19.3277 28.3021 19.7295C27.9002 20.1314 27.3552 20.3572 26.7868 20.3572V20.3572Z" stroke="#E5DF5D" stroke-width="1.5" stroke-linecap="round" stroke-linejoin="round"/>
<path d="M20.3574 26.25C21.4941 26.25 22.5842 25.7985 23.3879 24.9948C24.1916 24.191 24.6431 23.101 24.6431 21.9643V20.3572" stroke="#E5DF5D" stroke-width="1.5" stroke-linecap="round" stroke-linejoin="round"/>
<path d="M17.68 23.5715C18.3904 23.5715 19.0717 23.8537 19.574 24.3561C20.0763 24.8584 20.3585 25.5397 20.3585 26.2501C20.3585 26.9605 20.0763 27.6418 19.574 28.1441C19.0717 28.6465 18.3904 28.9287 17.68 28.9287H14.4657C13.7553 28.9287 13.074 28.6465 12.5716 28.1441C12.0693 27.6418 11.7871 26.9605 11.7871 26.2501C11.7871 25.5397 12.0693 24.8584 12.5716 24.3561C13.074 23.8537 13.7553 23.5715 14.4657 23.5715H17.68Z" stroke="#E5DF5D" stroke-width="1.5" stroke-linecap="round" stroke-linejoin="round"/>
<path d="M5.35742 12.8572V10.7144C5.35742 8.15695 6.37336 5.70425 8.18175 3.89586C9.99014 2.08747 12.4428 1.07153 15.0003 1.07153C17.5577 1.07153 20.0104 2.08747 21.8188 3.89586C23.6272 5.70425 24.6431 8.15695 24.6431 10.7144V12.8572" stroke="#E5DF5D" stroke-width="1.5" stroke-linecap="round" stroke-linejoin="round"/>
<path d="M11.7871 8.57153V11.7858" stroke="#E5DF5D" stroke-width="1.5" stroke-linecap="round" stroke-linejoin="round"/>
<path d="M18.2148 8.57153V11.7858" stroke="#E5DF5D" stroke-width="1.5" stroke-linecap="round" stroke-linejoin="round"/>
<path d="M11.7871 16.0715C11.7871 18.9215 18.2157 18.9215 18.2157 16.0715" stroke="#E5DF5D" stroke-width="1.5" stroke-linecap="round" stroke-linejoin="round"/>
</g>
<defs>
<clipPath id="clip0_524_35327">
<rect width="30" height="30" fill="white"/>
</clipPath>
</defs>
</svg>
