<svg width="24" height="24" viewBox="0 0 24 24" fill="none" xmlns="http://www.w3.org/2000/svg">
<g clip-path="url(#clip0_274_5154)">
<path d="M12.8055 11.8285C12.5513 11.9389 12.277 11.9959 11.9998 11.9959C11.7226 11.9959 11.4484 11.9389 11.1941 11.8285L1.42269 7.30276C1.26402 7.22272 1.13068 7.10022 1.03751 6.94888C0.944349 6.79755 0.89502 6.62332 0.89502 6.44561C0.89502 6.2679 0.944349 6.09367 1.03751 5.94234C1.13068 5.791 1.26402 5.6685 1.42269 5.58847L11.1941 1.02847C11.4484 0.918058 11.7226 0.861084 11.9998 0.861084C12.277 0.861084 12.5513 0.918058 12.8055 1.02847L22.577 5.55418C22.7357 5.63421 22.869 5.75672 22.9622 5.90805C23.0553 6.05939 23.1047 6.23361 23.1047 6.41133C23.1047 6.58904 23.0553 6.76326 22.9622 6.9146C22.869 7.06593 22.7357 7.18844 22.577 7.26847L12.8055 11.8285Z" stroke="#222222" stroke-width="1.5" stroke-linecap="round" stroke-linejoin="round"/>
<path d="M23.1426 12.5999L12.6855 17.417C12.4622 17.5189 12.2196 17.5716 11.9741 17.5716C11.7286 17.5716 11.486 17.5189 11.2626 17.417L0.856934 12.5999" stroke="#222222" stroke-width="1.5" stroke-linecap="round" stroke-linejoin="round"/>
<path d="M23.1426 18.1714L12.6855 22.9885C12.4622 23.0904 12.2196 23.1431 11.9741 23.1431C11.7286 23.1431 11.486 23.0904 11.2626 22.9885L0.856934 18.1714" stroke="#222222" stroke-width="1.5" stroke-linecap="round" stroke-linejoin="round"/>
</g>
<defs>
<clipPath id="clip0_274_5154">
<rect width="24" height="24" fill="white"/>
</clipPath>
</defs>
</svg>
