<svg width="24" height="24" viewBox="0 0 24 24" fill="none" xmlns="http://www.w3.org/2000/svg">
<g clip-path="url(#clip0_430_94)">
<path d="M23.1429 18V21.4286C23.1429 21.8832 22.9622 22.3193 22.6408 22.6408C22.3193 22.9622 21.8832 23.1429 21.4286 23.1429H18" stroke="#222222" stroke-width="1.5" stroke-linecap="round" stroke-linejoin="round"/>
<path d="M18 0.857178H21.4286C21.8832 0.857178 22.3193 1.03779 22.6408 1.35928C22.9622 1.68077 23.1429 2.11681 23.1429 2.57146V6.00003" stroke="#222222" stroke-width="1.5" stroke-linecap="round" stroke-linejoin="round"/>
<path d="M0.857422 6.00003V2.57146C0.857422 2.11681 1.03803 1.68077 1.35952 1.35928C1.68102 1.03779 2.11705 0.857178 2.57171 0.857178H6.00028" stroke="#222222" stroke-width="1.5" stroke-linecap="round" stroke-linejoin="round"/>
<path d="M6.00028 23.1429H2.57171C2.11705 23.1429 1.68102 22.9622 1.35952 22.6408C1.03803 22.3193 0.857422 21.8832 0.857422 21.4286V18" stroke="#222222" stroke-width="1.5" stroke-linecap="round" stroke-linejoin="round"/>
<path d="M19.7147 12C19.7147 12 16.2861 17.1429 12.0004 17.1429C7.7147 17.1429 4.28613 12 4.28613 12C4.28613 12 7.7147 6.85718 12.0004 6.85718C16.2861 6.85718 19.7147 12 19.7147 12Z" stroke="#222222" stroke-width="1.5" stroke-linecap="round" stroke-linejoin="round"/>
<path d="M12.0007 12.8572C12.4741 12.8572 12.8578 12.4735 12.8578 12.0001C12.8578 11.5267 12.4741 11.1429 12.0007 11.1429C11.5273 11.1429 11.1436 11.5267 11.1436 12.0001C11.1436 12.4735 11.5273 12.8572 12.0007 12.8572Z" stroke="#222222" stroke-width="1.5" stroke-linecap="round" stroke-linejoin="round"/>
</g>
<defs>
<clipPath id="clip0_430_94">
<rect width="24" height="24" fill="white"/>
</clipPath>
</defs>
</svg>
