<svg width="24" height="24" viewBox="0 0 24 24" fill="none" xmlns="http://www.w3.org/2000/svg">
<g clip-path="url(#clip0_274_13955)">
<path d="M5.57122 10.2855C8.17485 10.2855 10.2855 8.17485 10.2855 5.57122C10.2855 2.96759 8.17485 0.856934 5.57122 0.856934C2.96759 0.856934 0.856934 2.96759 0.856934 5.57122C0.856934 8.17485 2.96759 10.2855 5.57122 10.2855Z" stroke="#222222" stroke-width="1.5" stroke-linecap="round" stroke-linejoin="round"/>
<path d="M18.4282 10.2855C21.0318 10.2855 23.1424 8.17485 23.1424 5.57122C23.1424 2.96759 21.0318 0.856934 18.4282 0.856934C15.8245 0.856934 13.7139 2.96759 13.7139 5.57122C13.7139 8.17485 15.8245 10.2855 18.4282 10.2855Z" stroke="#222222" stroke-width="1.5" stroke-linecap="round" stroke-linejoin="round"/>
<path d="M5.57122 23.1424C8.17485 23.1424 10.2855 21.0318 10.2855 18.4282C10.2855 15.8245 8.17485 13.7139 5.57122 13.7139C2.96759 13.7139 0.856934 15.8245 0.856934 18.4282C0.856934 21.0318 2.96759 23.1424 5.57122 23.1424Z" stroke="#222222" stroke-width="1.5" stroke-linecap="round" stroke-linejoin="round"/>
<path d="M18.4282 23.1424C21.0318 23.1424 23.1424 21.0318 23.1424 18.4282C23.1424 15.8245 21.0318 13.7139 18.4282 13.7139C15.8245 13.7139 13.7139 15.8245 13.7139 18.4282C13.7139 21.0318 15.8245 23.1424 18.4282 23.1424Z" stroke="#222222" stroke-width="1.5" stroke-linecap="round" stroke-linejoin="round"/>
</g>
<defs>
<clipPath id="clip0_274_13955">
<rect width="24" height="24" fill="white"/>
</clipPath>
</defs>
</svg>
