<svg width="20" height="20" viewBox="0 0 20 20" fill="none" xmlns="http://www.w3.org/2000/svg">
<g clip-path="url(#clip0_351_20874)">
<path d="M17.8567 14.998C18.2356 14.998 18.599 14.8475 18.8669 14.5796C19.1348 14.3117 19.2853 13.9483 19.2853 13.5695V10.7123C19.2853 10.3334 19.1348 9.97008 18.8669 9.70217C18.599 9.43426 18.2356 9.28375 17.8567 9.28375H15.7139L14.6139 5.96946C14.5145 5.67378 14.321 5.41875 14.0631 5.24334C13.8051 5.06793 13.4968 4.98178 13.1853 4.99804H7.45672C7.1452 4.98178 6.83692 5.06793 6.57896 5.24334C6.321 5.41875 6.12755 5.67378 6.02815 5.96946L4.99958 9.28375H2.14244C1.76356 9.28375 1.4002 9.43426 1.13229 9.70217C0.864377 9.97008 0.713867 10.3334 0.713867 10.7123V13.5695C0.713867 13.9483 0.864377 14.3117 1.13229 14.5796C1.4002 14.8475 1.76356 14.998 2.14244 14.998" stroke="#222222" stroke-width="1.5" stroke-linecap="round" stroke-linejoin="round"/>
<path d="M4.99972 17.8549C6.57768 17.8549 7.85686 16.5757 7.85686 14.9978C7.85686 13.4198 6.57768 12.1406 4.99972 12.1406C3.42176 12.1406 2.14258 13.4198 2.14258 14.9978C2.14258 16.5757 3.42176 17.8549 4.99972 17.8549Z" stroke="#222222" stroke-width="1.5" stroke-linecap="round" stroke-linejoin="round"/>
<path d="M14.9997 17.8549C16.5777 17.8549 17.8569 16.5757 17.8569 14.9978C17.8569 13.4198 16.5777 12.1406 14.9997 12.1406C13.4218 12.1406 12.1426 13.4198 12.1426 14.9978C12.1426 16.5757 13.4218 17.8549 14.9997 17.8549Z" stroke="#222222" stroke-width="1.5" stroke-linecap="round" stroke-linejoin="round"/>
<path d="M7.85645 15H12.1422" stroke="#222222" stroke-width="1.5" stroke-linecap="round" stroke-linejoin="round"/>
<path d="M9.99951 4.99777V2.14062" stroke="#222222" stroke-width="1.5" stroke-linecap="round" stroke-linejoin="round"/>
</g>
<defs>
<clipPath id="clip0_351_20874">
<rect width="20" height="20" fill="white"/>
</clipPath>
</defs>
</svg>
