<svg width="27" height="26" viewBox="0 0 27 26" fill="none" xmlns="http://www.w3.org/2000/svg">
<path d="M17.7087 0L16.9769 8.35284L24.658 5.01625L27 12.3265L19.1838 14.5763L24.7737 21.2177L18.0993 25.8546L13.5905 18.4762L9.05192 26L2.36261 21.3949L8.08763 14.6195L0 12.3833L2.67984 5.09688L10.1674 8.34035L9.57071 0H17.7087ZM10.8293 1.16292L11.4752 10.1756L3.35324 6.65843L1.53576 11.6009L10.1559 13.9846L4.08619 21.1655L8.69002 24.3351L13.5859 16.223L18.452 24.1897L23.0558 20.9917L17.1327 13.9551L25.5181 11.5429L23.9354 6.60051L15.6381 10.2051L16.4295 1.16292H10.8293Z" fill="#E5DF5D"/>
</svg>
