<svg width="24" height="24" viewBox="0 0 24 24" fill="none" xmlns="http://www.w3.org/2000/svg">
<g clip-path="url(#clip0_351_25978)">
<path d="M21.4282 2.57422L15.5825 8.41993" stroke="#222222" stroke-width="1.5" stroke-linecap="round" stroke-linejoin="round"/>
<path d="M2.57129 2.57422L8.417 8.41993" stroke="#222222" stroke-width="1.5" stroke-linecap="round" stroke-linejoin="round"/>
<path d="M2.57129 21.4317L8.417 15.5859" stroke="#222222" stroke-width="1.5" stroke-linecap="round" stroke-linejoin="round"/>
<path d="M21.4282 21.4317L15.5825 15.5859" stroke="#222222" stroke-width="1.5" stroke-linecap="round" stroke-linejoin="round"/>
<path d="M11.9998 23.1451C18.1538 23.1451 23.1426 18.1563 23.1426 12.0022C23.1426 5.8482 18.1538 0.859375 11.9998 0.859375C5.84576 0.859375 0.856934 5.8482 0.856934 12.0022C0.856934 18.1563 5.84576 23.1451 11.9998 23.1451Z" stroke="#222222" stroke-width="1.5" stroke-linecap="round" stroke-linejoin="round"/>
<path d="M12 17.0596C14.793 17.0596 17.0572 14.7954 17.0572 12.0025C17.0572 9.20947 14.793 6.94531 12 6.94531C9.20703 6.94531 6.94287 9.20947 6.94287 12.0025C6.94287 14.7954 9.20703 17.0596 12 17.0596Z" stroke="#222222" stroke-width="1.5" stroke-linecap="round" stroke-linejoin="round"/>
</g>
<defs>
<clipPath id="clip0_351_25978">
<rect width="24" height="24" fill="white"/>
</clipPath>
</defs>
</svg>
