<svg width="20" height="20" viewBox="0 0 20 20" fill="none" xmlns="http://www.w3.org/2000/svg">
<g clip-path="url(#clip0_351_26250)">
<path d="M15.1998 2.20312H4.79982C4.56005 2.20971 4.3252 2.27262 4.11425 2.38678C3.9033 2.50094 3.72218 2.66314 3.58553 2.86027L0.985533 6.46027C0.79247 6.73309 0.696053 7.06257 0.711582 7.39643C0.72711 7.73029 0.853694 8.0494 1.07125 8.30313L8.87125 17.2888C9.00478 17.4609 9.17589 17.6002 9.3715 17.6959C9.5671 17.7917 9.78202 17.8415 9.99982 17.8415C10.2176 17.8415 10.4325 17.7917 10.6281 17.6959C10.8237 17.6002 10.9949 17.4609 11.1284 17.2888L18.9284 8.30313C19.1459 8.0494 19.2725 7.73029 19.2881 7.39643C19.3036 7.06257 19.2072 6.73309 19.0141 6.46027L16.4141 2.86027C16.2775 2.66314 16.0963 2.50094 15.8854 2.38678C15.6744 2.27262 15.4396 2.20971 15.1998 2.20312V2.20312Z" stroke="#222222" stroke-width="1.5" stroke-linecap="round" stroke-linejoin="round"/>
<path d="M9.2572 2.1875L5.77148 7.5875L10.0001 17.8018" stroke="#222222" stroke-width="1.5" stroke-linecap="round" stroke-linejoin="round"/>
<path d="M10.7857 2.1875L14.2571 7.5875L10 17.8018" stroke="#222222" stroke-width="1.5" stroke-linecap="round" stroke-linejoin="round"/>
<path d="M0.742676 7.58594H19.257" stroke="#222222" stroke-width="1.5" stroke-linecap="round" stroke-linejoin="round"/>
</g>
<defs>
<clipPath id="clip0_351_26250">
<rect width="20" height="20" fill="white"/>
</clipPath>
</defs>
</svg>
