<svg width="24" height="24" viewBox="0 0 24 24" fill="none" xmlns="http://www.w3.org/2000/svg">
<g clip-path="url(#clip0_274_5229)">
<path d="M7.71408 22.2858C11.5012 22.2858 14.5712 19.2158 14.5712 15.4287C14.5712 11.6416 11.5012 8.57153 7.71408 8.57153C3.92698 8.57153 0.856934 11.6416 0.856934 15.4287C0.856934 19.2158 3.92698 22.2858 7.71408 22.2858Z" stroke="#222222" stroke-width="1.5" stroke-linecap="round" stroke-linejoin="round"/>
<path d="M16.2854 22.2858C20.0725 22.2858 23.1425 19.2158 23.1425 15.4287C23.1425 11.6416 20.0725 8.57153 16.2854 8.57153C12.4983 8.57153 9.42822 11.6416 9.42822 15.4287C9.42822 19.2158 12.4983 22.2858 16.2854 22.2858Z" stroke="#222222" stroke-width="1.5" stroke-linecap="round" stroke-linejoin="round"/>
<path d="M11.9997 15.4286C15.7868 15.4286 18.8569 12.3586 18.8569 8.5715C18.8569 4.7844 15.7868 1.71436 11.9997 1.71436C8.21263 1.71436 5.14258 4.7844 5.14258 8.5715C5.14258 12.3586 8.21263 15.4286 11.9997 15.4286Z" stroke="#222222" stroke-width="1.5" stroke-linecap="round" stroke-linejoin="round"/>
</g>
<defs>
<clipPath id="clip0_274_5229">
<rect width="24" height="24" fill="white"/>
</clipPath>
</defs>
</svg>
