<svg width="30" height="30" viewBox="0 0 30 30" fill="none" xmlns="http://www.w3.org/2000/svg">
<g clip-path="url(#clip0_274_9886)">
<path d="M26.7856 1.07153H3.21415C2.03068 1.07153 1.07129 2.03092 1.07129 3.21439V26.7858C1.07129 27.9693 2.03068 28.9287 3.21415 28.9287H26.7856C27.969 28.9287 28.9284 27.9693 28.9284 26.7858V3.21439C28.9284 2.03092 27.969 1.07153 26.7856 1.07153Z" stroke="#222222" stroke-width="1.5" stroke-linecap="round" stroke-linejoin="round"/>
<path d="M11.7637 22.6288V14.4216C11.7697 14.2955 11.8065 14.1728 11.871 14.0642C11.9355 13.9556 12.0256 13.8646 12.1335 13.799C12.2414 13.7334 12.3638 13.6953 12.4898 13.688C12.6159 13.6808 12.7418 13.7046 12.8565 13.7573L19.9708 17.8502C20.086 17.9212 20.1811 18.0205 20.2471 18.1386C20.3131 18.2568 20.3477 18.3899 20.3477 18.5252C20.3477 18.6605 20.3131 18.7936 20.2471 18.9117C20.1811 19.0299 20.086 19.1292 19.9708 19.2002L12.8565 23.3145C12.7398 23.3624 12.6134 23.3819 12.4876 23.3711C12.3619 23.3604 12.2406 23.3198 12.1337 23.2527C12.0268 23.1857 11.9375 23.0941 11.8731 22.9855C11.8088 22.877 11.7712 22.7547 11.7637 22.6288V22.6288Z" stroke="#222222" stroke-width="1.5" stroke-linecap="round" stroke-linejoin="round"/>
<path d="M1.07129 8.57153H28.9284" stroke="#222222" stroke-width="1.5" stroke-linecap="round" stroke-linejoin="round"/>
<path d="M8.57129 8.57153L11.7856 1.07153" stroke="#222222" stroke-width="1.5" stroke-linecap="round" stroke-linejoin="round"/>
<path d="M18.2139 8.57153L21.4282 1.07153" stroke="#222222" stroke-width="1.5" stroke-linecap="round" stroke-linejoin="round"/>
</g>
<defs>
<clipPath id="clip0_274_9886">
<rect width="30" height="30" fill="white"/>
</clipPath>
</defs>
</svg>
