<svg width="24" height="24" viewBox="0 0 24 24" fill="none" xmlns="http://www.w3.org/2000/svg">
<path d="M8.96551 3.85938L9.70265 1.95652C9.82697 1.63434 10.0457 1.35722 10.3302 1.16145C10.6146 0.965685 10.9516 0.860395 11.2969 0.859375H12.7026C13.048 0.860395 13.3849 0.965685 13.6694 1.16145C13.9539 1.35722 14.1726 1.63434 14.2969 1.95652L15.0341 3.85938L17.5369 5.29937L19.5598 4.9908C19.8966 4.94508 20.2394 5.00053 20.5447 5.1501C20.8499 5.29967 21.1038 5.53661 21.2741 5.8308L21.9598 7.0308C22.1355 7.32969 22.2165 7.67483 22.192 8.02067C22.1675 8.36651 22.0387 8.6968 21.8226 8.96795L20.5712 10.5622V13.4422L21.8569 15.0365C22.073 15.3077 22.2018 15.638 22.2263 15.9838C22.2507 16.3296 22.1698 16.6748 21.9941 16.9737L21.3084 18.1737C21.1381 18.4679 20.8842 18.7048 20.579 18.8544C20.2737 19.0039 19.9309 19.0594 19.5941 19.0137L17.5712 18.7051L15.0684 20.1451L14.3312 22.0479C14.2069 22.3701 13.9882 22.6472 13.7037 22.843C13.4192 23.0388 13.0823 23.1441 12.7369 23.1451H11.2969C10.9516 23.1441 10.6146 23.0388 10.3302 22.843C10.0457 22.6472 9.82697 22.3701 9.70265 22.0479L8.96551 20.1451L6.46265 18.7051L4.43979 19.0137C4.10296 19.0594 3.76015 19.0039 3.45491 18.8544C3.14966 18.7048 2.89578 18.4679 2.72551 18.1737L2.03979 16.9737C1.86408 16.6748 1.78313 16.3296 1.80761 15.9838C1.83209 15.638 1.96087 15.3077 2.17694 15.0365L3.42836 13.4422V10.5622L2.14265 8.96795C1.92658 8.6968 1.79781 8.36651 1.77332 8.02067C1.74884 7.67483 1.8298 7.32969 2.00551 7.0308L2.69122 5.8308C2.86149 5.53661 3.11538 5.29967 3.42062 5.1501C3.72586 5.00053 4.06868 4.94508 4.40551 4.9908L6.42836 5.29937L8.96551 3.85938ZM8.57122 12.0022C8.57122 12.6803 8.7723 13.3432 9.14904 13.907C9.52578 14.4709 10.0612 14.9103 10.6877 15.1698C11.3142 15.4293 12.0036 15.4972 12.6687 15.3649C13.3338 15.2326 13.9447 14.9061 14.4242 14.4266C14.9037 13.9471 15.2302 13.3362 15.3625 12.6711C15.4948 12.006 15.4269 11.3167 15.1674 10.6902C14.9079 10.0637 14.4684 9.52822 13.9046 9.15148C13.3408 8.77474 12.6779 8.57366 11.9998 8.57366C11.0905 8.57366 10.2184 8.93488 9.57543 9.57787C8.93244 10.2208 8.57122 11.0929 8.57122 12.0022V12.0022Z" stroke="#222222" stroke-width="1.5" stroke-linecap="round" stroke-linejoin="round"/>
</svg>
