<svg width="24" height="24" viewBox="0 0 24 24" fill="none" xmlns="http://www.w3.org/2000/svg">
<g clip-path="url(#clip0_351_25803)">
<path d="M20.1426 17.1451C20.736 17.1451 21.316 17.321 21.8094 17.6507C22.3027 17.9803 22.6872 18.4489 22.9143 18.997C23.1414 19.5452 23.2008 20.1484 23.085 20.7304C22.9693 21.3123 22.6835 21.8469 22.264 22.2664C21.8444 22.686 21.3099 22.9717 20.7279 23.0874C20.146 23.2032 19.5428 23.1438 18.9946 22.9167C18.4464 22.6897 17.9779 22.3051 17.6482 21.8118C17.3186 21.3185 17.1426 20.7384 17.1426 20.1451V3.85938C17.1426 3.26603 17.3186 2.68601 17.6482 2.19267C17.9779 1.69932 18.4464 1.3148 18.9946 1.08774C19.5428 0.860675 20.146 0.801265 20.7279 0.917021C21.3099 1.03278 21.8444 1.3185 22.264 1.73806C22.6835 2.15761 22.9693 2.69216 23.085 3.27411C23.2008 3.85605 23.1414 4.45925 22.9143 5.00743C22.6872 5.55561 22.3027 6.02414 21.8094 6.35379C21.316 6.68343 20.736 6.85938 20.1426 6.85938H3.85693C3.26359 6.85938 2.68357 6.68343 2.19022 6.35379C1.69688 6.02414 1.31236 5.55561 1.0853 5.00743C0.858233 4.45925 0.798823 3.85605 0.914579 3.27411C1.03033 2.69216 1.31606 2.15761 1.73561 1.73806C2.15517 1.3185 2.68972 1.03278 3.27166 0.917021C3.85361 0.801265 4.45681 0.860675 5.00499 1.08774C5.55316 1.3148 6.0217 1.69932 6.35134 2.19267C6.68099 2.68601 6.85693 3.26603 6.85693 3.85938V20.1451C6.85693 20.7384 6.68099 21.3185 6.35134 21.8118C6.0217 22.3051 5.55316 22.6897 5.00499 22.9167C4.45681 23.1438 3.85361 23.2032 3.27166 23.0874C2.68972 22.9717 2.15517 22.686 1.73561 22.2664C1.31606 21.8469 1.03033 21.3123 0.914579 20.7304C0.798823 20.1484 0.858233 19.5452 1.0853 18.997C1.31236 18.4489 1.69688 17.9803 2.19022 17.6507C2.68357 17.321 3.26359 17.1451 3.85693 17.1451H20.1426Z" stroke="#222222" stroke-width="1.5" stroke-linecap="round" stroke-linejoin="round"/>
</g>
<rect x="0.5" y="0.5" width="23" height="23" stroke="#222222" stroke-opacity="0.02" stroke-linecap="round"/>
<defs>
<clipPath id="clip0_351_25803">
<rect width="24" height="24" fill="white"/>
</clipPath>
</defs>
</svg>
