<svg width="50" height="50" viewBox="0 0 50 50" fill="none" xmlns="http://www.w3.org/2000/svg">
<circle cx="25" cy="25" r="25" fill="#E5DF5D"/>
<path d="M28.6083 29.2715C30.7816 31.1237 32.9484 32.9833 35.1262 34.8311C35.8422 35.4964 36.5929 36.1238 37.335 36.7609C40.2844 33.6686 42.004 29.4278 41.9988 25.148C42.035 22.1238 41.2301 19.0968 39.7098 16.4845C38.4526 14.3124 36.7085 12.4253 34.6436 11.0017C31.5755 8.86701 27.7881 7.81075 24.0613 8.02789C21.1886 8.17697 18.3591 9.07967 15.93 10.6227C13.7054 12.0268 11.813 13.9559 10.4526 16.2106C8.89187 18.7796 8.03499 21.7717 8.00255 24.7794C7.96071 27.1818 8.43393 29.592 9.38978 31.7961C10.1519 33.5643 11.2213 35.1952 12.5225 36.6118C16.2138 33.618 19.8813 30.5946 23.5704 27.5979C20.5047 31.2924 17.4211 34.9715 14.3505 38.6617C16.8266 40.5293 19.8199 41.7016 22.9073 41.9906C22.9889 41.2848 23.0467 40.5761 23.1254 39.8698C24.0192 39.9023 24.9137 39.8922 25.8082 39.8734C25.8841 40.5813 25.9497 41.2906 26.0221 42C29.397 41.7242 32.6707 40.3851 35.2891 38.2368C32.1477 34.5996 28.991 30.9761 25.8416 27.3462C25.6883 27.1646 25.5151 26.9988 25.3966 26.7918C25.5865 26.9039 25.7558 27.048 25.9304 27.1835C26.8214 27.8813 27.7201 28.5697 28.608 29.2717L28.6083 29.2715ZM38.7784 29.3953C38.5191 30.177 38.2394 30.9631 37.8045 31.6666C37.4173 32.3606 36.9808 33.0252 36.5061 33.6613C34.1565 32.1218 31.8183 30.5649 29.463 29.0348C29.4905 28.9688 29.5244 28.9067 29.5648 28.8487C30.4224 27.7543 31.5611 26.8987 32.8139 26.3081C33.9115 25.7956 35.0977 25.5212 36.2675 25.2259C37.3188 24.9732 38.3729 24.733 39.4298 24.5043C39.5051 26.1555 39.2716 27.8186 38.7782 29.3951L38.7784 29.3953ZM30.7684 23.9087C30.8726 23.4158 31.2685 23.0053 31.749 22.8642C32.4368 22.6405 33.2352 23.0873 33.4505 23.769C33.668 24.367 33.3798 25.0865 32.8334 25.3983C32.4836 25.6183 32.0292 25.6588 31.6455 25.5069C31.0221 25.281 30.6116 24.5601 30.7684 23.9087ZM14.6577 15.0034C16.3997 13.1975 18.618 11.854 21.029 11.1613C23.0838 10.5664 25.2722 10.439 27.3828 10.7951C30.5489 11.3118 33.5147 12.9434 35.6678 15.3225C37.1223 16.9092 38.2088 18.8288 38.8325 20.8902C37.217 21.1949 35.5956 21.4764 33.9621 21.6582C32.379 21.8478 30.7412 21.7321 29.2331 21.1949C28.226 20.8092 27.309 20.2091 26.2715 19.9022C25.5381 19.6705 24.7543 19.6865 23.9978 19.7605C22.4301 19.9835 21.1091 20.9323 19.6354 21.4403C18.7308 21.7248 17.7735 21.7493 16.8334 21.7762C14.9093 21.758 12.991 21.5626 11.0901 21.2745C11.7187 18.9244 12.9673 16.7478 14.658 15.0034H14.6577ZM17.7112 25.3354C16.9677 25.428 16.2352 24.8076 16.1881 24.0616C16.1167 23.3769 16.6353 22.7095 17.3036 22.5776C18.0573 22.4118 18.873 23.0011 18.9539 23.7698C19.0731 24.5175 18.4532 25.2638 17.7112 25.3354ZM13.4318 33.6239C13.0994 33.2438 12.8387 32.8081 12.5799 32.3766C11.2143 30.0757 10.525 27.3874 10.5835 24.712C11.9014 24.9023 13.2329 25.0349 14.5249 25.3743C15.9627 25.7384 17.3631 26.3472 18.5068 27.309C19.1347 27.8605 19.7525 28.4359 20.2711 29.0939C17.9959 30.6103 15.7048 32.1042 13.4318 33.6237V33.6239ZM25.7471 39.2118C24.8951 39.2467 24.0448 39.2248 23.1929 39.2226C23.2709 38.3279 23.3692 37.4349 23.4529 36.5409C24.1278 36.564 24.8046 36.5828 25.4781 36.5357C25.5778 37.4267 25.6516 38.3207 25.7468 39.2118H25.7471ZM25.4189 35.8916C24.7854 35.8909 24.1523 35.8909 23.5194 35.8916C23.6003 34.9969 23.6957 34.1046 23.7839 33.2106C24.2327 33.236 24.6878 33.2563 25.1349 33.2026C25.2649 34.0942 25.3155 34.9962 25.4189 35.8916ZM24.8286 29.8998C24.9175 30.7872 24.9969 31.676 25.0917 32.5634C24.677 32.5599 24.263 32.5613 23.8483 32.5627C23.9365 31.676 24.0202 30.7886 24.11 29.9019C24.3497 29.9026 24.5891 29.9019 24.8288 29.8998H24.8286ZM24.177 29.2324C24.2498 28.4804 24.3178 27.7275 24.4017 26.9769C24.4341 26.9581 24.4993 26.9211 24.5317 26.9032C24.6156 27.6792 24.6864 28.4566 24.7593 29.234C24.5648 29.2319 24.3704 29.2319 24.177 29.2326V29.2324ZM24.5456 26.4696C24.3135 26.5803 24.0187 26.4458 23.8086 26.6173C23.1353 27.1088 22.4646 27.606 21.7697 28.0678C21.0682 27.231 20.7603 26.0839 20.9345 25.0066C21.0985 23.8413 21.7575 22.7295 22.7726 22.1151C23.4908 21.7091 24.326 21.4615 25.1561 21.5593C26.4213 21.701 27.588 22.4676 28.2549 23.5491C29.0888 24.8882 28.9456 26.7506 27.9493 27.9658C27.2253 27.4715 26.5123 26.9611 25.7847 26.4748C25.3728 26.4249 24.956 26.5436 24.5456 26.4696Z" fill="#222222"/>
</svg>
