<svg width="179" height="50" viewBox="0 0 179 50" fill="none" xmlns="http://www.w3.org/2000/svg">
<circle cx="25" cy="25" r="25" fill="#E5DF5D"/>
<path d="M28.6083 29.2715C30.7816 31.1237 32.9484 32.9833 35.1262 34.8311C35.8422 35.4964 36.5929 36.1238 37.335 36.7609C40.2844 33.6686 42.004 29.4278 41.9988 25.148C42.035 22.1238 41.2301 19.0968 39.7098 16.4845C38.4526 14.3124 36.7085 12.4253 34.6436 11.0017C31.5755 8.86701 27.7881 7.81075 24.0613 8.02789C21.1886 8.17697 18.3591 9.07967 15.93 10.6227C13.7054 12.0268 11.813 13.9559 10.4526 16.2106C8.89187 18.7796 8.03499 21.7717 8.00255 24.7794C7.96071 27.1818 8.43393 29.592 9.38978 31.7961C10.1519 33.5643 11.2213 35.1952 12.5225 36.6118C16.2138 33.618 19.8813 30.5946 23.5704 27.5979C20.5047 31.2924 17.4211 34.9715 14.3505 38.6617C16.8266 40.5293 19.8199 41.7016 22.9073 41.9906C22.9889 41.2848 23.0467 40.5761 23.1254 39.8698C24.0192 39.9023 24.9137 39.8922 25.8082 39.8734C25.8841 40.5813 25.9497 41.2906 26.0221 42C29.397 41.7242 32.6707 40.3851 35.2891 38.2368C32.1477 34.5996 28.991 30.9761 25.8416 27.3462C25.6883 27.1646 25.5151 26.9988 25.3966 26.7918C25.5865 26.9039 25.7558 27.048 25.9304 27.1835C26.8214 27.8813 27.7201 28.5697 28.608 29.2717L28.6083 29.2715ZM38.7784 29.3953C38.5191 30.177 38.2394 30.9631 37.8045 31.6666C37.4173 32.3606 36.9808 33.0252 36.5061 33.6613C34.1565 32.1218 31.8183 30.5649 29.463 29.0348C29.4905 28.9688 29.5244 28.9067 29.5648 28.8487C30.4224 27.7543 31.5611 26.8987 32.8139 26.3081C33.9115 25.7956 35.0977 25.5212 36.2675 25.2259C37.3188 24.9732 38.3729 24.733 39.4298 24.5043C39.5051 26.1555 39.2716 27.8186 38.7782 29.3951L38.7784 29.3953ZM30.7684 23.9087C30.8726 23.4158 31.2685 23.0053 31.749 22.8642C32.4368 22.6405 33.2352 23.0873 33.4505 23.769C33.668 24.367 33.3798 25.0865 32.8334 25.3983C32.4836 25.6183 32.0292 25.6588 31.6455 25.5069C31.0221 25.281 30.6116 24.5601 30.7684 23.9087ZM14.6577 15.0034C16.3997 13.1975 18.618 11.854 21.029 11.1613C23.0838 10.5664 25.2722 10.439 27.3828 10.7951C30.5489 11.3118 33.5147 12.9434 35.6678 15.3225C37.1223 16.9092 38.2088 18.8288 38.8325 20.8902C37.217 21.1949 35.5956 21.4764 33.9621 21.6582C32.379 21.8478 30.7412 21.7321 29.2331 21.1949C28.226 20.8092 27.309 20.2091 26.2715 19.9022C25.5381 19.6705 24.7543 19.6865 23.9978 19.7605C22.4301 19.9835 21.1091 20.9323 19.6354 21.4403C18.7308 21.7248 17.7735 21.7493 16.8334 21.7762C14.9093 21.758 12.991 21.5626 11.0901 21.2745C11.7187 18.9244 12.9673 16.7478 14.658 15.0034H14.6577ZM17.7112 25.3354C16.9677 25.428 16.2352 24.8076 16.1881 24.0616C16.1167 23.3769 16.6353 22.7095 17.3036 22.5776C18.0573 22.4118 18.873 23.0011 18.9539 23.7698C19.0731 24.5175 18.4532 25.2638 17.7112 25.3354ZM13.4318 33.6239C13.0994 33.2438 12.8387 32.8081 12.5799 32.3766C11.2143 30.0757 10.525 27.3874 10.5835 24.712C11.9014 24.9023 13.2329 25.0349 14.5249 25.3743C15.9627 25.7384 17.3631 26.3472 18.5068 27.309C19.1347 27.8605 19.7525 28.4359 20.2711 29.0939C17.9959 30.6103 15.7048 32.1042 13.4318 33.6237V33.6239ZM25.7471 39.2118C24.8951 39.2467 24.0448 39.2248 23.1929 39.2226C23.2709 38.3279 23.3692 37.4349 23.4529 36.5409C24.1278 36.564 24.8046 36.5828 25.4781 36.5357C25.5778 37.4267 25.6516 38.3207 25.7468 39.2118H25.7471ZM25.4189 35.8916C24.7854 35.8909 24.1523 35.8909 23.5194 35.8916C23.6003 34.9969 23.6957 34.1046 23.7839 33.2106C24.2327 33.236 24.6878 33.2563 25.1349 33.2026C25.2649 34.0942 25.3155 34.9962 25.4189 35.8916ZM24.8286 29.8998C24.9175 30.7872 24.9969 31.676 25.0917 32.5634C24.677 32.5599 24.263 32.5613 23.8483 32.5627C23.9365 31.676 24.0202 30.7886 24.11 29.9019C24.3497 29.9026 24.5891 29.9019 24.8288 29.8998H24.8286ZM24.177 29.2324C24.2498 28.4804 24.3178 27.7275 24.4017 26.9769C24.4341 26.9581 24.4993 26.9211 24.5317 26.9032C24.6156 27.6792 24.6864 28.4566 24.7593 29.234C24.5648 29.2319 24.3704 29.2319 24.177 29.2326V29.2324ZM24.5456 26.4696C24.3135 26.5803 24.0187 26.4458 23.8086 26.6173C23.1353 27.1088 22.4646 27.606 21.7697 28.0678C21.0682 27.231 20.7603 26.0839 20.9345 25.0066C21.0985 23.8413 21.7575 22.7295 22.7726 22.1151C23.4908 21.7091 24.326 21.4615 25.1561 21.5593C26.4213 21.701 27.588 22.4676 28.2549 23.5491C29.0888 24.8882 28.9456 26.7506 27.9493 27.9658C27.2253 27.4715 26.5123 26.9611 25.7847 26.4748C25.3728 26.4249 24.956 26.5436 24.5456 26.4696Z" fill="#222222"/>
<path d="M68.4688 34H64.1904L70.7158 15.084H75.8701L82.3828 34H78.1172L73.3691 19.4004H73.2168L68.4688 34ZM68.2148 26.5605H78.333V29.6836H68.2148V26.5605ZM92.8311 27.9697V19.8066H96.7539V34H92.9834V31.4229H92.8311C92.5094 32.2438 91.9805 32.9124 91.2441 33.4287C90.5078 33.9365 89.6064 34.1862 88.54 34.1777C87.5921 34.1777 86.7542 33.9661 86.0264 33.543C85.307 33.1113 84.7441 32.4977 84.3379 31.7021C83.9401 30.9066 83.7412 29.9544 83.7412 28.8457V19.8066H87.6641V28.1602C87.6641 28.9896 87.8883 29.6497 88.3369 30.1406C88.7855 30.623 89.3822 30.86 90.127 30.8516C90.6009 30.8516 91.041 30.7458 91.4473 30.5342C91.8535 30.3141 92.1836 29.9883 92.4375 29.5566C92.6999 29.125 92.8311 28.596 92.8311 27.9697ZM106.605 19.8066V22.7773H98.0615V19.8066H106.605ZM100.004 16.4297H103.927V29.6328C103.927 30.1068 104.033 30.458 104.244 30.6865C104.456 30.9066 104.794 31.0166 105.26 31.0166C105.412 31.0166 105.581 31.0039 105.768 30.9785C105.954 30.9531 106.115 30.9235 106.25 30.8896L106.872 33.835C106.44 33.9619 106.021 34.055 105.615 34.1143C105.217 34.1735 104.824 34.2031 104.435 34.2031C103.021 34.2031 101.929 33.8519 101.159 33.1494C100.389 32.4385 100.004 31.4398 100.004 30.1533V16.4297ZM114.553 34.2793C113.122 34.2793 111.882 33.9746 110.833 33.3652C109.792 32.7474 108.988 31.8926 108.421 30.8008C107.862 29.7005 107.583 28.4225 107.583 26.9668C107.583 25.4941 107.862 24.2119 108.421 23.1201C108.988 22.0199 109.792 21.165 110.833 20.5557C111.882 19.9378 113.122 19.6289 114.553 19.6289C115.992 19.6289 117.231 19.9378 118.272 20.5557C119.322 21.165 120.126 22.0199 120.685 23.1201C121.252 24.2119 121.535 25.4941 121.535 26.9668C121.535 28.4225 121.252 29.7005 120.685 30.8008C120.126 31.8926 119.322 32.7474 118.272 33.3652C117.231 33.9746 115.992 34.2793 114.553 34.2793ZM114.578 31.207C115.23 31.207 115.776 31.0251 116.216 30.6611C116.656 30.2887 116.986 29.7809 117.206 29.1377C117.435 28.4945 117.549 27.7624 117.549 26.9414C117.549 26.112 117.435 25.3799 117.206 24.7451C116.986 24.1104 116.656 23.611 116.216 23.2471C115.776 22.8831 115.23 22.7012 114.578 22.7012C113.918 22.7012 113.364 22.8831 112.915 23.2471C112.475 23.611 112.141 24.1104 111.912 24.7451C111.692 25.3799 111.582 26.112 111.582 26.9414C111.582 27.7624 111.692 28.4945 111.912 29.1377C112.141 29.7809 112.475 30.2887 112.915 30.6611C113.364 31.0251 113.918 31.207 114.578 31.207ZM129.622 39.6113C127.709 39.6113 126.211 39.2305 125.128 38.4688C124.045 37.7155 123.384 36.776 123.147 35.6504L126.778 35.168C126.888 35.4557 127.062 35.7223 127.299 35.9678C127.536 36.2132 127.853 36.4079 128.251 36.5518C128.649 36.7041 129.135 36.7803 129.711 36.7803C130.566 36.7803 131.272 36.5729 131.831 36.1582C132.39 35.752 132.669 35.0622 132.669 34.0889V31.4863H132.504C132.335 31.8757 132.076 32.248 131.729 32.6035C131.382 32.959 130.938 33.2467 130.396 33.4668C129.855 33.6868 129.207 33.7969 128.454 33.7969C127.388 33.7969 126.419 33.5514 125.547 33.0605C124.684 32.5612 123.99 31.7995 123.465 30.7754C122.949 29.7513 122.69 28.4564 122.69 26.8906C122.69 25.2741 122.953 23.9284 123.478 22.8535C124.011 21.7786 124.713 20.9746 125.585 20.4414C126.457 19.8997 127.413 19.6289 128.454 19.6289C129.25 19.6289 129.914 19.7643 130.447 20.0352C130.989 20.2975 131.429 20.6276 131.768 21.0254C132.106 21.4232 132.36 21.8167 132.529 22.2061H132.682V19.8066H136.554V34.1523C136.554 35.3542 136.257 36.3613 135.665 37.1738C135.073 37.9863 134.256 38.5957 133.215 39.002C132.174 39.4082 130.976 39.6113 129.622 39.6113ZM129.698 30.8389C130.646 30.8389 131.378 30.4876 131.895 29.7852C132.419 29.0827 132.682 28.1094 132.682 26.8652C132.682 26.0358 132.563 25.3164 132.326 24.707C132.098 24.0892 131.763 23.611 131.323 23.2725C130.883 22.9255 130.341 22.752 129.698 22.752C129.055 22.752 128.509 22.9297 128.061 23.2852C127.62 23.6322 127.286 24.1146 127.058 24.7324C126.829 25.3503 126.715 26.0612 126.715 26.8652C126.715 27.6777 126.829 28.3844 127.058 28.9854C127.286 29.5778 127.62 30.0348 128.061 30.3564C128.509 30.6781 129.055 30.8389 129.698 30.8389ZM147.954 27.9697V19.8066H151.877V34H148.106V31.4229H147.954C147.632 32.2438 147.104 32.9124 146.367 33.4287C145.631 33.9365 144.729 34.1862 143.663 34.1777C142.715 34.1777 141.877 33.9661 141.149 33.543C140.43 33.1113 139.867 32.4977 139.461 31.7021C139.063 30.9066 138.864 29.9544 138.864 28.8457V19.8066H142.787V28.1602C142.787 28.9896 143.011 29.6497 143.46 30.1406C143.909 30.623 144.505 30.86 145.25 30.8516C145.724 30.8516 146.164 30.7458 146.57 30.5342C146.977 30.3141 147.307 29.9883 147.561 29.5566C147.823 29.125 147.954 28.596 147.954 27.9697ZM154.2 34V19.8066H157.996V22.2949H158.148C158.411 21.4147 158.847 20.7503 159.456 20.3018C160.065 19.8447 160.764 19.6162 161.551 19.6162C161.754 19.6162 161.965 19.6289 162.186 19.6543C162.414 19.6712 162.617 19.7051 162.795 19.7559V23.2344C162.609 23.1751 162.351 23.1286 162.021 23.0947C161.699 23.0524 161.398 23.0312 161.119 23.0312C160.552 23.0312 160.04 23.1582 159.583 23.4121C159.126 23.6576 158.766 24.0046 158.504 24.4531C158.25 24.8932 158.123 25.401 158.123 25.9766V34H154.2ZM173.065 27.9697V19.8066H176.988V34H173.218V31.4229H173.065C172.744 32.2438 172.215 32.9124 171.479 33.4287C170.742 33.9365 169.841 34.1862 168.774 34.1777C167.826 34.1777 166.989 33.9661 166.261 33.543C165.541 33.1113 164.979 32.4977 164.572 31.7021C164.174 30.9066 163.976 29.9544 163.976 28.8457V19.8066H167.898V28.1602C167.898 28.9896 168.123 29.6497 168.571 30.1406C169.02 30.623 169.617 30.86 170.361 30.8516C170.835 30.8516 171.275 30.7458 171.682 30.5342C172.088 30.3141 172.418 29.9883 172.672 29.5566C172.934 29.125 173.065 28.596 173.065 27.9697Z" fill="white"/>
</svg>
